<svg xmlns="http://www.w3.org/2000/svg" width="1299" height="981" fill="none" viewBox="0 0 1299 981">
  <path fill="#00B0FF" d="M1196.35 615.46c-36.94 74.732-112.41 155.606-218.645 179.562-160.504 36.179-179.677 133.887-467.146 124.822-41.974-1.17-83.656-5.775-124.314-13.734a595.065 595.065 0 0 1-58.455-14.695C159.855 840.03 72.25 726.96 64.95 608.671c-9.587-155.586 134.161-229.75 227.585-273.169 93.424-43.419 206.047-211.68 488.736-204.46 43.176.992 86.058 5.738 127.795 14.146 95.114 19.443 191.814 62.431 248.004 125.313 4.21 4.709 8.24 9.555 12.08 14.479 75.29 96.295 77.58 228.613 27.2 330.48Z"/>
  <path fill="#fff" d="M1196.35 615.46c-36.94 74.732-112.41 155.606-218.645 179.562-160.504 36.179-179.677 133.887-467.146 124.822-41.974-1.17-83.656-5.774-124.314-13.734a595.065 595.065 0 0 1-58.455-14.695C159.855 840.03 72.25 726.96 64.95 608.671c-9.587-155.586 134.161-229.75 227.585-273.169 93.424-43.419 206.047-211.68 488.736-204.46 43.176.992 86.058 5.738 127.795 14.146 95.114 19.443 191.814 62.431 248.004 125.313 4.21 4.709 8.24 9.555 12.08 14.479 75.29 96.295 77.58 228.613 27.2 330.48Z" opacity=".8"/>
  <g opacity=".3">
    <path fill="#000" d="M371.056 265.969c33.563-25.346 33.563-66.44 0-91.786-33.562-25.346-87.977-25.346-121.54 0-33.562 25.346-33.562 66.44 0 91.786 33.563 25.347 87.978 25.347 121.54 0Z" opacity=".3"/>
    <path fill="#fff" d="M351.894 248.629c20.871-17.346 19.17-44.186-3.799-59.948s-58.509-14.477-79.38 2.869c-20.872 17.347-19.171 44.186 3.799 59.948 22.969 15.762 58.509 14.478 79.38-2.869Z" opacity=".3"/>
    <path fill="#000" d="M310.305 242.542c16.429 0 29.747-10.058 29.747-22.465s-13.318-22.464-29.747-22.464c-16.429 0-29.747 10.057-29.747 22.464 0 12.407 13.318 22.465 29.747 22.465Z" opacity=".3"/>
  </g>
  <path fill="#263238" d="m276.167 232.929-2.338 13.616 33.514-25.271-47.361.314 14.496 8.28-83.395 26.369-23.382-3.08-22.187 7.024 14.6 6.2a1.35 1.35 0 0 0-.287.707c-.021.25.034.5.163.73.129.231.327.435.578.598.252.162.55.278.871.339l-4.39 12.243 22.213-7.024 12.99-14.578 83.915-26.467Z"/>
  <path fill="#000" d="M1112.62 68.2v-9.163h-11.69v9.162h-33.91v-9.162h-11.69v9.162h-33.77v-9.162h-11.72v9.162h-33.772v-9.162h-11.691v9.162h-34.163v-9.162h-11.691v9.162h-42.114V255.06h269.571V68.2h-33.36ZM918.99 241.325h-23.875v-18.011h23.875v18.011Zm0-25.506h-23.875v-18.031h23.875v18.031Zm0-25.506h-23.875v-18.247h23.875v18.247Zm0-25.624h-23.875v-18.227h23.875v18.227Zm34.814 76.636h-23.876v-18.011h23.876v18.011Zm0-25.506h-23.876v-18.031h23.876v18.031Zm0-25.506h-23.876v-18.247h23.876v18.247Zm0-25.624h-23.876v-18.227h23.876v18.227Zm34.813 76.636h-23.876v-18.011h23.876v18.011Zm0-25.506h-23.876v-18.031h23.876v18.031Zm0-25.506h-23.876v-18.247h23.876v18.247Zm0-25.624h-23.876v-18.227h23.876v18.227Zm34.783 76.636h-23.846v-18.011h23.846v18.011Zm0-25.506h-23.846v-18.031h23.846v18.031Zm0-25.506h-23.846v-18.247h23.846v18.247Zm0-25.624h-23.846v-18.227h23.846v18.227Zm34.82 76.636h-23.88v-18.011h23.88v18.011Zm0-25.506h-23.88v-18.031h23.88v18.031Zm0-25.506h-23.88v-18.247h23.88v18.247Zm0-25.624h-23.88v-18.227h23.88v18.227Zm34.81 76.636h-23.88v-18.011h23.88v18.011Zm0-25.506h-23.88v-18.031h23.88v18.031Zm0-25.506h-23.88v-18.247h23.88v18.247Zm0-25.624h-23.88v-18.227h23.88v18.227Zm34.81 76.636h-23.87v-18.011h23.87v18.011Zm0-25.506h-23.87v-18.031h23.87v18.031Zm0-25.506h-23.87v-18.247h23.87v18.247Zm0-25.624h-23.87v-18.227h23.87v18.227Zm2.34-38.337H892.777V83.758h237.353l.05 42.595Z" opacity=".3"/>
  <path fill="#00B0FF" d="M959.675 314.371s3.923-29.626-11.769-42.968c-15.691-13.341-39.229 2.963-33.358 20.739 5.872 17.776 45.127 22.229 45.127 22.229ZM914.497 446.355s6.209-46.107-18.186-66.943c-24.396-20.837-61.131 4.63-51.96 32.333 9.171 27.704 70.146 34.61 70.146 34.61ZM901.35 521.186s-6.702-46.127-36.372-62.608c-29.669-16.48-58.533 14.107-41.931 39.77 16.601 25.663 78.303 22.838 78.303 22.838ZM963.598 559.798c-36.112 5.258-68.483 44.714-68.483 44.714s54.091 22.582 83.682 4.826c29.593-17.756 20.94-54.779-15.199-49.54ZM975.549 629.312c-51.701 7.514-97.971 63.961-97.971 63.961s77.395 32.314 119.742 6.886c42.35-25.427 29.93-78.362-21.771-70.847Z"/>
  <path fill="#00B0FF" d="M891.114 605.14h2.598s-.338-2.198-1.143-5.886c4.131-17.482 8.313-39.476 13.276-65.767l2.078-10.948c14.081 5.043 54.558 17.403 78.641 2.904 29.596-17.775 20.936-54.779-15.198-49.521-26.136 3.787-50.297 25.506-61.65 37.18 3.195-16.677 6.676-34.609 10.599-53.386a361.731 361.731 0 0 1 2.261-9.908c13.899 7.848 47.907 23.976 74.199 14.087 33.775-12.733 35.545-50.305-1.247-50.835-26.5-.373-55.961 16.893-70.354 26.585 5.196-19.777 12.652-42.615 20.472-65.178 8.443 4.788 30.942 15.912 48.245 9.398 21.719-8.181 22.809-32.275-.806-32.608-17.172-.255-36.216 11.026-45.361 17.226 6.287-17.972 12.782-35.532 18.68-51.012 9.716 5.2 30.085 14.166 46.006 8.162 21.7-8.181 22.81-32.275-.8-32.608-15.017-.216-31.463 8.358-41.569 14.676 8.625-22.505 15.38-39.103 17.121-43.4 8.781-4.395 35.278-18.129 39.698-26.35 1.27-2.351 1.91-4.867 1.88-7.405-.02-2.538-.7-5.048-2.01-7.386-1.31-2.338-3.21-4.46-5.6-6.243-2.39-1.782-5.23-3.192-8.34-4.148-3.11-.956-6.44-1.439-9.8-1.423-3.365.017-6.689.533-9.785 1.52-3.096.986-5.905 2.424-8.266 4.23-2.361 1.806-4.227 3.946-5.493 6.297-4.235 7.848 1.429 30.117 3.871 38.769l-1.559-.372c-.234.529-9.041 22.033-20.394 51.836l-.702.529.39.256c-6.105 16.088-12.99 34.55-19.563 53.405.364-8.947-.338-28.135-12.133-38.141-15.588-13.342-39.229 2.963-33.332 20.738 5.196 15.892 37.151 21.111 43.854 22.053-8.807 25.369-17.069 51.149-22.498 72.594l-1.221.942.857.549a283.286 283.286 0 0 0-2.858 12.4c-5.586 26.723-10.392 51.758-14.497 73.85-3.923 20.699-7.326 38.73-10.626 53.974-4.884-14.773-14.366-34.668-31.773-44.341-29.643-16.5-58.533 14.107-41.932 39.77 12.704 19.62 51.778 22.583 69.445 22.877-.676 2.629-1.325 5.14-2.001 7.534-2.598 9.516-6.91 35.728-11.093 64.491-5.82-21.19-19.485-56.643-48.245-72.594-42.399-23.544-83.734 20.189-59.988 56.898 19.927 30.823 85.344 32.922 105.817 32.804-5.612 40.163-10.6 80.011-10.99 83.072l6.131.431c.182-1.393 17.537-139.871 24.396-164.062a268.65 268.65 0 0 0 2.312-8.515ZM425.708 457.911s-2.286-17.246 6.859-24.996 22.836 1.727 19.407 12.067c-3.429 10.339-26.266 12.929-26.266 12.929ZM452.052 534.763s-3.56-26.88 10.678-38.966c14.237-12.085 35.592 2.688 30.24 18.816s-40.918 20.15-40.918 20.15ZM459.664 578.319s3.897-26.84 21.148-36.454 34.086 8.221 24.421 23.152c-9.665 14.931-45.569 13.302-45.569 13.302ZM423.474 600.804c21.044 3.06 39.88 26.035 39.88 26.035s-31.514 13.146-48.739 2.806c-17.224-10.34-12.236-31.902 8.859-28.841ZM416.46 641.28c30.11 4.375 57.156 37.278 57.156 37.278s-45.076 18.815-69.731 4.022c-24.655-14.794-17.536-45.675 12.575-41.3Z"/>
  <path fill="#00B0FF" d="M465.64 627.193h-1.507s.208-1.276.676-3.375c-2.417-10.183-4.833-22.995-7.794-38.298-.39-2.06-.78-4.199-1.196-6.377-8.209 2.943-31.747 10.144-45.802 1.688-17.225-10.34-12.185-31.883 8.859-28.822 15.224 2.217 29.279 14.832 35.904 21.582-1.87-9.81-3.897-20.17-6.183-31.098-.398-1.844-.84-3.767-1.325-5.768-8.08 4.512-27.877 13.969-43.179 8.201-19.719-7.416-20.784-29.273.728-29.587 15.432-.216 32.553 9.81 40.944 15.48-3.065-11.517-7.352-24.819-11.899-37.965-4.936 2.806-18.03 9.281-28.11 5.494-12.626-4.768-13.276-18.796.468-18.992 10.002-.157 21.095 6.416 26.421 10.026-3.663-10.458-7.456-20.68-10.885-29.705-5.664 3.022-17.511 8.24-26.786 4.748-12.626-4.768-13.275-18.796.468-18.992 8.729-.118 18.316 4.885 24.161 8.554-5.04-13.106-8.963-22.759-9.976-25.27-5.196-2.551-20.55-10.556-23.122-15.343-1.301-2.737-1.149-5.747.422-8.402 1.572-2.654 4.442-4.746 8.01-5.839 3.568-1.093 7.558-1.101 11.133-.022 3.576 1.078 6.461 3.159 8.052 5.807 2.598 4.591-.832 17.54-2.261 22.563l.936-.216c0 .314 5.196 12.831 11.846 30.175l.416.314-.234.157c3.56 9.359 7.56 20.111 11.406 31.078-.234-5.199.207-16.382 7.066-22.21 9.119-7.848 22.837 1.727 19.407 12.086-3.065 9.241-21.641 12.283-25.538 12.832 5.196 14.774 9.924 29.783 12.99 42.301.247.172.482.356.701.549l-.493.314c.623 2.511 1.195 4.925 1.662 7.2 3.274 15.579 6.028 30.137 8.444 43.007 2.286 12.047 4.261 22.544 6.183 31.392 2.832-8.613 8.366-20.188 18.498-25.819 17.251-9.614 34.086 8.201 24.421 23.151-7.404 11.419-30.163 13.146-40.425 13.322.39 1.53.78 3.002 1.169 4.375 1.559 5.553 4.001 20.798 6.443 37.553 3.378-12.321 11.354-32.981 28.085-42.301 24.681-13.734 48.738 11.772 34.917 33.138-11.587 17.933-49.674 19.15-61.599 19.091 3.274 23.387 6.183 46.578 6.417 48.363l-3.585.255c0-.824-10.21-81.442-14.185-95.53a132.81 132.81 0 0 0-1.169-4.865ZM145.229 670.553s-6.002-9.987-2.598-16.049c3.403-6.063 14.159-2.453 14.886 4.277.728 6.729-12.288 11.772-12.288 11.772ZM181.575 712.657s-9.327-15.578-4.053-25.015c5.274-9.437 22.083-3.924 23.2 6.651 1.117 10.575-19.147 18.364-19.147 18.364ZM197.889 737.712s-4.858-16.716 2.936-25.114c7.794-8.397 22.655-.274 20.784 10.164-1.87 10.437-23.72 14.95-23.72 14.95ZM182.198 756.645c13.431-1.275 30.838 9.516 30.838 9.516s-15.354 12.714-28.578 9.143c-13.224-3.571-15.588-17.266-2.26-18.659ZM188.875 781.994c19.225-1.962 44.166 13.617 44.166 13.617s-21.979 18.187-40.737 13.086c-18.757-5.101-22.68-24.721-3.429-26.703Z"/>
  <path fill="#00B0FF" d="m214.595 766.024-.909.215s-.234-.804-.52-2.138c-4.157-5.729-9.067-13.047-14.887-21.798-.805-1.177-1.61-2.394-2.442-3.63-4.131 3.022-16.341 10.929-27.019 8.025-13.12-3.591-15.874-17.285-2.442-18.659 9.742-1 21.563 4.415 27.357 7.495-3.715-5.552-7.794-11.497-12.055-17.658a195.868 195.868 0 0 0-2.338-3.257c-3.637 3.924-12.99 12.655-23.72 11.537-13.795-1.432-20.264-14.401-7.482-17.874 9.197-2.492 22.187.922 28.734 3.021-4.936-6.435-11.094-13.734-17.355-20.954-2.182 2.433-8.313 8.319-15.38 7.593-8.859-.922-12.99-9.241-4.806-11.458 5.949-1.628 14.367.628 18.524 1.962a860.816 860.816 0 0 0-14.497-16.147c-2.598 2.668-8.288 7.612-14.783 6.945-8.859-.922-12.99-9.241-4.806-11.458 5.196-1.412 12.288.118 16.757 1.433-6.521-7.103-11.457-12.302-12.756-13.636-3.741-.765-15.147-3.198-17.978-5.671-.867-.703-1.536-1.531-1.969-2.434a5.56 5.56 0 0 1-.55-2.823c.07-.959.396-1.897.957-2.759.561-.862 1.347-1.63 2.311-2.257a10.622 10.622 0 0 1 3.296-1.394 12.39 12.39 0 0 1 3.755-.308 11.78 11.78 0 0 1 3.616.827c1.119.456 2.105 1.078 2.899 1.829 2.598 2.394 4.208 10.654 4.702 13.891l.468-.255c.181.157 6.598 6.886 15.224 16.284l.338.118a.456.456 0 0 1 0 .138 934.37 934.37 0 0 1 15.172 16.912c-1.533-3.1-4.261-9.81-1.715-14.421 3.404-6.043 14.159-2.452 14.887 4.277.649 6.024-9.691 10.693-11.873 11.615 7.04 8.084 13.951 16.364 19.199 23.368l.572.235-.208.255a235.159 235.159 0 0 1 2.936 4.081c6.131 8.829 11.691 17.168 16.601 24.506 4.598 6.886 8.599 12.87 12.132 17.913-.597-5.592-.389-13.401 4.183-18.325 7.794-8.398 22.655-.275 20.784 10.163-1.377 7.985-14.575 12.498-20.784 14.185.65.844 1.273 1.668 1.897 2.433 2.416 3.1 7.976 11.87 13.925 21.582-1.273-7.848-2.026-21.582 5.508-29.685 11.145-12.007 32.423-.412 29.851 14.538-2.157 12.538-24.681 19.091-31.852 20.876 8.236 13.538 16.212 27.017 16.835 28.037l-2.078.706c-.286-.471-27.981-47.303-34.164-55.151a175.067 175.067 0 0 1-2.052-2.845ZM1159.31 724.645s9.61-8.221 18.18-8.358c8.58-.137 8.78 8.75.94 12.007-7.85 3.257-19.12-3.649-19.12-3.649ZM1123.35 766.946s14.99-12.812 28.58-13.048c13.59-.235 13.69 13.734 1.45 18.718-12.23 4.983-30.03-5.67-30.03-5.67ZM1099.89 788.41s18.19-10.183 31.51-8.28c13.33 1.904 9.64 15.5-3.71 18.541-13.36 3.041-27.8-10.261-27.8-10.261ZM1070.38 785.389c7.17 8.691 1.17 25.192 1.17 25.192s-21.67-5.376-22.71-15.873c-1.04-10.497 14.42-18.011 21.54-9.319ZM1042.58 800.378c10.26 12.439 1.66 36.042 1.66 36.042s-30.97-7.71-32.5-22.72c-1.53-15.009 20.55-25.761 30.84-13.322Z"/>
  <path fill="#00B0FF" d="m1072.4 811.562-.62-.55 2.36-1.216c5.2-5.239 12.06-11.596 20.22-19.208l3.4-3.159c-5.35-1.609-19.9-6.769-20.78-15.343-1.07-10.497 14.36-17.991 21.53-9.3 5.2 6.279 3.48 16.658 2.16 21.916 5.2-4.846 10.7-10.046 16.44-15.559.97-.942 1.98-1.962 2.99-2.943-6.26-.902-20.6-3.767-23.64-11.615-3.92-10.104 9.09-19.875 18.5-12.498 6.78 5.317 7.97 15.696 8.13 21.033 5.74-6.043 12.08-13.263 18.19-20.523-3.82-.529-13.46-2.334-15.46-7.494-2.6-6.475 5.84-12.754 11.87-8.025 4.39 3.453 5.2 10.183 5.2 13.597 4.83-5.788 9.51-11.537 13.58-16.619-4.31-.686-12.62-2.589-14.47-7.337-2.59-6.495 5.85-12.753 11.88-8.025 3.84 3.021 4.88 8.535 5.19 12.145 5.9-7.397 10.13-12.93 11.25-14.362-.62-2.904-2.36-11.772-.52-14.715.53-.848 1.27-1.609 2.18-2.24.92-.632 1.99-1.121 3.15-1.439 1.17-.319 2.41-.462 3.64-.42 1.24.043 2.46.269 3.58.665 1.12.397 2.13.957 2.97 1.648.83.691 1.48 1.5 1.9 2.38.42.88.61 1.814.56 2.749a5.875 5.875 0 0 1-.88 2.7c-1.77 2.845-11.15 7.259-14.86 8.927l.54.216c-.15.176-5.64 7.377-13.46 17.167v.275h-.2a851.085 851.085 0 0 1-14.21 17.383c3.11-2.315 10.15-6.984 16.7-7.083 8.7-.137 8.78 8.751.94 12.008-7.02 2.904-16.89-2.296-18.89-3.434-6.89 8.162-14.03 16.324-20.37 22.818v.491h-.42c-1.27 1.295-2.59 2.531-3.71 3.689-8.16 7.848-15.95 15.087-22.81 21.464-6.42 6.004-12.03 11.222-16.65 15.696 6.52-2.708 16-5.768 23.85-4.63 13.32 1.962 9.61 15.48-3.75 18.521-10.21 2.335-21.07-4.905-25.59-8.437l-2.2 2.296c-2.73 2.943-11.05 10.379-20.3 18.443 9.05-4.121 25.15-10.223 38.09-8.378 19.07 2.747 13.77 22.17-5.32 26.526-16.03 3.649-33.18-9.182-38.27-13.381-12.99 11.223-25.98 22.23-26.97 23.073l-1.71-1.157c.46-.373 45.69-38.632 52.63-46.107.73-.864 1.56-1.727 2.44-2.629Z"/>
  <path fill="#D8A990" stroke="#263238" stroke-linecap="round" stroke-linejoin="round" d="m1084.69 583.675-6.52 4.925-8.11 2.963-5.5 13.851 5.76 1.374 3.88-3.081 3.55 2.904-4.78 10.34s-6.44 1.413-6.49 2.609c-.05 1.197 4.05 3.728 4.05 3.728l7.54-2.57 20.78-1.785 5.98-3.022-6.5-26.526-13.64-5.71Z"/>
  <path stroke="#263238" stroke-linecap="round" stroke-linejoin="round" d="m1077.96 620.718 7.51-9.163M1087.91 619.894l5.07-8.986M1098.75 618.933l1.71-7.79"/>
  <path fill="#fff" stroke="#263238" stroke-linecap="round" stroke-linejoin="round" d="m1069 463.915 50.56 60.528-18.5 65.491-19.9-3.296-1.07-61.214-31.82-23.917 20.73-37.592Z"/>
  <path fill="#fff" stroke="#263238" stroke-linecap="round" stroke-linejoin="round" d="m1029.92 443.804 39.08 20.111-43.34 84.778-72.402-16.03-7.223-48.441 8.496-42.301 35.514-3.12 39.875 5.003Z"/>
  <path fill="#fff" stroke="#263238" stroke-linecap="round" stroke-linejoin="round" d="m994.592 461.07 7.298 5.984c1.07.873 2.4 1.545 3.87 1.963 1.47.419 3.06.572 4.62.449 1.57-.124 3.07-.522 4.4-1.162 1.33-.64 2.44-1.504 3.25-2.525l16.86-21.347-11.69-9.025-25.854.844-10.886 4.336-5.04 10.83c-.64 1.376-.746 2.861-.304 4.281.443 1.419 1.414 2.713 2.8 3.729 1.386 1.015 3.128 1.71 5.02 2.001 1.892.291 3.855.167 5.656-.358v0Z"/>
  <path fill="#D8A990" stroke="#263238" stroke-linecap="round" stroke-linejoin="round" d="M1004.62 379.647s-12.262 6.122-13.795 8.613a22.377 22.377 0 0 0-2.156 6.848l-13.848 4.159 5.976 6.651s-5.196 15.049-1.637 17.384c3.559 2.334 16.367 8.083 16.367 8.083l-.337 18.894c-.017.999.329 1.982 1.001 2.842.672.861 1.644 1.565 2.81 2.037a9.214 9.214 0 0 0 3.799.638c1.32-.054 2.6-.381 3.69-.945l22.01-11.341 6.62-11.595s22.08-13.734 21.82-22.19c-.26-8.457-5.66-21.582-21.9-28.449-16.23-6.867-29.61-3.748-29.61-3.748l-.81 2.119Z"/>
  <path fill="#263238" stroke="#263238" stroke-linecap="round" stroke-linejoin="round" d="M1012 378.921s9.09 1.373.52 17.658-16.966 28.586-4.24 38.926c12.73 10.34 21.52 16.658 15.44 23.878-6.08 7.22-23.802 4.689-18.66 21.032 5.15 16.344 22.32 19.62 29.75 10.948s3.58-23.544 4.42-26.585c.4-1.749 1.42-3.384 2.96-4.728l4.96.745 29.62 11.772s-.37-2.217 1.58-16.186c1.95-13.97-14.7-15.834-11.43-28.312 3.27-12.478 21.3-9.123 14.84-26.958-6.47-17.834-44.51-30.038-44.51-30.038s-15.38-19.816-32.71-9.437c-17.326 10.379-5.791 20.954-5.791 20.954l13.251-3.669Z"/>
  <path fill="#263238" d="M995.527 396.618c-.493 1.609 0 3.081 1.169 3.277 1.169.196 2.598-.903 3.014-2.511.42-1.609 0-3.061-1.169-3.277-1.169-.216-2.494.922-3.014 2.511Z"/>
  <path stroke="#263238" stroke-linecap="round" stroke-linejoin="round" d="M1007.04 392.871c-1.01-1.339-2.58-2.385-4.46-2.972a11.898 11.898 0 0 0-5.935-.265"/>
  <path fill="#D8A990" stroke="#263238" stroke-linecap="round" stroke-linejoin="round" d="m855.599 441.685-.987-8.652a24.624 24.624 0 0 0 0-8.613 53.29 53.29 0 0 0-3.819-8.731c-1.299-2.472-3.014-3.924-4.911-1.491-1.896 2.433-1.091 6.965-1.091 6.965-.55-2.311-1.641-4.53-3.221-6.553-2.027-1.962-8.73-3.512-15.406-5.062-6.677-1.55-3.638 1.256-2.598 2.629 1.039 1.373 7.3 3.708 7.3 3.708s-9.846-2.707-12.652-3.335c-2.806-.628-7.249 1.962-4.105 3.374a68.004 68.004 0 0 0 9.82 2.983 73.384 73.384 0 0 0-10.392 2.648c-2.935 1.276-1.636 3.728.156 3.787a89.895 89.895 0 0 0 7.145-.589s-4.781 2.806-3.793 4.454c.987 1.648 10.002-.51 10.002-.51.86 2.714 2.704 5.194 5.326 7.161 2.873 1.884 6.019 3.516 9.379 4.866l8.183 7.26 5.664-6.299Z"/>
  <path stroke="#263238" stroke-linecap="round" stroke-linejoin="round" d="m830.918 415.885-3.014 9.889"/>
  <path fill="#CCC" d="m844.895 421.163.546 3.237s-5.846 2.786-5.014 7.122"/>
  <path stroke="#263238" stroke-linecap="round" stroke-linejoin="round" d="m844.895 421.163.546 3.237s-5.846 2.786-5.014 7.122"/>
  <path fill="#fff" stroke="#263238" stroke-linecap="round" stroke-linejoin="round" d="m954.531 441.921-56.689 32.55-42.139-34.669-11.432 7.573 43.387 57.095 59.079-24.545 7.794-38.004Z"/>
  <path fill="#263238" stroke="#263238" stroke-linecap="round" stroke-linejoin="round" d="m1039.2 655.955.34-50.286c1.01-32.765-11.77-54.936-13.93-56.466-.31-.263-.73-.442-1.19-.51l-72.409-16.03s-9.275 19.915-16.679 23.544c-81.837 40.221-100.75 59.802-100.023 60.822 21.408 29.764 90.566 79.795 88.332 76.322l17.511-4.473-53.935-66.924 79.057-23.544 15.588 57.153 79.498 111.834 21.67-5.886-43.83-105.556Z"/>
  <path fill="#D8A990" stroke="#263238" stroke-linecap="round" stroke-linejoin="round" d="m923.484 693.371-8.261 12.4s-8.262 1.962-11.353 3.119c-3.092 1.158-4.651 1.393-6.262 3.257-1.053 1.399-1.658 2.964-1.766 4.572l41.1 1.236 18.524-14.029c5.819-4.434-14.471-15.029-14.471-15.029l-17.511 4.474ZM1083.05 761.491s-.41 7.672-.78 14.559c-.36 6.886-11.58 17.304-18.39 20.954-6.81 3.649-12.99 4.218-10.88-5.317a169.754 169.754 0 0 1 8.39-24.329s19.64-6.318 21.66-5.867Z"/>
  <path stroke="#263238" stroke-linecap="round" stroke-linejoin="round" d="m608.425 88.741-46.244 23.995M614.869 85.386l-3.092 1.61M545.502 62.45l-10.418-1.079M612.79 69.435l-60.663-6.298M623.832 38.573l-20.057-15.421M632.119 44.95l-4.65-3.591M685.82 45.185l23.252-17.933M681.377 48.618l2.234-1.707M737.131 70.377l47.205-3.963M694.004 74.007l37.437-3.16M726.115 105.301l21.434 16.716M695.692 81.58l26.266 20.483"/>
  <path fill="#FFC107" stroke="#263238" stroke-linecap="round" stroke-linejoin="round" d="M665.192 80.619h-11.977v26.055h11.977V80.619Z"/>
  <path fill="#263238" stroke="#263238" stroke-linecap="round" stroke-linejoin="round" d="M673.973 104.535v-3.727h-29.566v3.727h-14.081v14.892h57.728v-14.892h-14.081Z"/>
  <path fill="#FFC107" stroke="#263238" stroke-linecap="round" stroke-linejoin="round" d="m659.19 32.236 14.003 21.405 31.306 3.453-22.654 16.657 5.351 23.544-28.006-11.104-28.006 11.105 5.351-23.545-22.654-16.657 31.306-3.453 14.003-21.405Z"/>
  <path fill="#FFC107" d="m619.986 59.311 39.204 7.71 34.502-6.513"/>
  <path stroke="#263238" stroke-linecap="round" stroke-linejoin="round" d="m619.986 59.311 39.204 7.71 34.502-6.513M659.97 41.555v18.953"/>
  <path fill="#FFC107" d="m635.679 93.666 22.732-22.504v9.476"/>
  <path stroke="#263238" stroke-linecap="round" stroke-linejoin="round" d="m635.679 93.666 22.732-22.504v9.476M687.197 97.315l-23.304-26.153"/>
  <path fill="#263238" stroke="#263238" stroke-linecap="round" stroke-linejoin="round" d="M575.509 360.851s36.528 11.478 72.978 12.792c36.45 1.315 101.893-12.792 101.893-12.792l-43.438-42.281H606.243l-30.734 42.281Z"/>
  <path fill="#AE7461" d="M748.509 573.375c-1.324-3.022-12.678-25.683-12.678-25.683s-6.651-37.788-6.651-55.426c0-17.639-8.027-28.194-8.027-28.194l-9.301-126.196-6.054-15.971h-13.327l-37.048.255-37.099-.255h-4.651l-15.25 21.896-8.677 120.271s-8.002 10.575-8.002 28.194-6.677 55.426-6.677 55.426-11.327 22.661-12.678 25.683c-1.351 3.021-11.327 10.085-11.327 12.596a4.39 4.39 0 0 0 .72 2.233c.448.697 1.088 1.314 1.878 1.809h36.086s2-.51 3.351-5.553a51.118 51.118 0 0 0 1.325-13.086c0-3.022 4.001-28.214 4.001-28.214l51.363-161.531h11.353l51.362 161.531s4.001 25.192 4.001 28.214a51.163 51.163 0 0 0 1.325 13.086c1.325 5.043 3.326 5.553 3.326 5.553h36.034c.789-.495 1.43-1.112 1.878-1.809a4.4 4.4 0 0 0 .72-2.233c.078-2.511-9.925-9.575-11.276-12.596Z"/>
  <path fill="#263238" d="m748.509 573.375-.457.201.001.003.456-.204Zm-12.678-25.683-.492.087a.5.5 0 0 0 .045.137l.447-.224Zm-14.678-83.62-.499.037a.498.498 0 0 0 .101.266l.398-.303Zm-9.301-126.196.498-.037a.481.481 0 0 0-.031-.14l-.467.177Zm-6.054-15.971.468-.177a.501.501 0 0 0-.468-.323v.5Zm-13.327 0v-.5h-.004l.004.5Zm-37.048.255-.003.5h.007l-.004-.5Zm-37.099-.255.003-.5h-.003v.5Zm-4.651 0v-.5a.5.5 0 0 0-.41.215l.41.285Zm-15.25 21.896-.41-.285a.497.497 0 0 0-.089.249l.499.036Zm-8.677 120.271.398.302a.497.497 0 0 0 .1-.266l-.498-.036Zm-14.679 83.62.447.224a.47.47 0 0 0 .045-.137l-.492-.087Zm-24.005 38.279h-.5v.017l.5-.017Zm2.598 4.042-.266.423c.08.05.172.077.266.077v-.5Zm36.086 0v.5a.512.512 0 0 0 .123-.016l-.123-.484Zm3.351-5.553.483.13.004-.016-.487-.114Zm1.325-13.086h-.5v.014l.5-.014Zm4.001-28.214-.476-.151a.433.433 0 0 0-.018.073l.494.078Zm51.363-161.531v-.5a.5.5 0 0 0-.477.348l.477.152Zm11.353 0 .476-.152a.5.5 0 0 0-.476-.348v.5Zm51.362 161.531.494-.078a.555.555 0 0 0-.017-.073l-.477.151Zm4.001 28.214.5.014v-.014h-.5Zm1.325 13.086-.487.114.004.013.483-.127Zm3.326 5.553-.124.484c.04.01.082.016.124.016v-.5Zm36.034 0v.5a.496.496 0 0 0 .265-.077l-.265-.423Zm2.598-4.042.5.017v-.002l-.5-.015Zm-10.818-12.797c-.668-1.525-3.846-7.961-6.846-13.996a4554.7 4554.7 0 0 0-4.048-8.121l-1.304-2.609-.363-.724-.095-.19a1.751 1.751 0 0 1-.024-.049l-.007-.013-.001-.003h-.001l-.447.223-.447.225h.001l.001.003.007.013.024.048.095.19.363.725 1.304 2.608a4552.66 4552.66 0 0 1 4.047 8.119c3.008 6.052 6.169 12.456 6.826 13.953l.915-.402Zm-13.136-25.482.493-.087-.001-.001v-.005l-.004-.02-.014-.082-.056-.319-.211-1.228a756.139 756.139 0 0 1-3.037-19.427c-1.663-11.655-3.321-25.478-3.321-34.257h-1c0 8.859 1.669 22.749 3.331 34.398a762.33 762.33 0 0 0 3.253 20.685l.056.32.014.082.004.021.001.005v.002l.492-.087Zm-6.151-55.426c0-8.896-2.024-16.01-4.052-20.903a43.994 43.994 0 0 0-2.791-5.622 28.896 28.896 0 0 0-.926-1.462 14.435 14.435 0 0 0-.334-.474l-.019-.026-.005-.007-.002-.002-.398.302c-.398.303-.399.302-.399.302l.001.001.003.005.016.02.063.087c.056.078.14.196.247.354.214.315.522.788.893 1.411a43.093 43.093 0 0 1 2.728 5.494c1.986 4.794 3.975 11.777 3.975 20.52h1Zm-8.029-28.231-9.301-126.196-.997.074 9.301 126.196.997-.074Zm-9.332-126.336-6.053-15.971-.935.355 6.053 15.97.935-.354Zm-6.521-16.294h-13.327v1h13.327v-1Zm-13.331 0-37.047.255.007 1 37.047-.255-.007-1Zm-37.04.255-37.1-.255-.007 1 37.1.255.007-1Zm-37.103-.255h-4.651v1h4.651v-1Zm-5.061.215-15.25 21.896.82.571 15.251-21.896-.821-.571Zm-15.339 22.145-8.677 120.271.997.072 8.678-120.271-.998-.072Zm-8.178 120.307-.399-.301h-.001l-.001.002-.006.007-.019.026-.07.098c-.062.085-.15.211-.262.377-.224.331-.542.821-.923 1.464a44.125 44.125 0 0 0-2.782 5.626c-2.021 4.895-4.039 12.009-4.039 20.895h1c0-8.733 1.983-15.716 3.963-20.513a43.12 43.12 0 0 1 2.719-5.499c.369-.624.677-1.097.89-1.413a16.59 16.59 0 0 1 .309-.442l.016-.02.003-.005.001-.001s-.001.001-.399-.301Zm-8.502 28.194c0 8.769-1.664 22.592-3.333 34.249a764.813 764.813 0 0 1-3.05 19.434c-.091.534-.163.948-.212 1.229l-.055.319-.015.081a.26.26 0 0 1-.003.021l-.001.005v.001l.492.087.493.087v-.002l.001-.005a.17.17 0 0 0 .003-.021l.015-.081.056-.321.212-1.231a762.96 762.96 0 0 0 3.053-19.461c1.669-11.651 3.344-25.541 3.344-34.391h-1Zm-6.177 55.426-.447-.223-.001.001-.001.003a217.177 217.177 0 0 1-.488.976l-1.301 2.608a4311.027 4311.027 0 0 0-4.042 8.121c-2.997 6.036-6.174 12.47-6.855 13.993l.913.408c.67-1.499 3.833-7.906 6.837-13.956 1.501-3.021 2.959-5.948 4.042-8.12l1.301-2.608.362-.724a16.406 16.406 0 0 1 .125-.251l.002-.003v-.001l-.447-.224Zm-13.135 25.479c-.294.658-1.103 1.605-2.237 2.74-1.116 1.117-2.478 2.352-3.816 3.586-1.329 1.227-2.635 2.454-3.609 3.537-.487.541-.903 1.059-1.201 1.533-.288.459-.507.944-.507 1.404h1c0-.168.092-.454.354-.873.254-.404.628-.874 1.097-1.395.939-1.043 2.211-2.241 3.545-3.471 1.325-1.224 2.71-2.478 3.845-3.614 1.116-1.118 2.061-2.187 2.442-3.039l-.913-.408Zm-11.37 12.817c.03.871.306 1.719.799 2.486l.841-.54a3.896 3.896 0 0 1-.641-1.98l-.999.034Zm.799 2.486c.493.767 1.189 1.433 2.033 1.962l.531-.847c-.735-.461-1.319-1.027-1.723-1.655l-.841.54Zm2.299 2.039h36.086v-1H553.66v1Zm36.086-.5.124.484h.001l.003-.001.005-.001.013-.004.034-.011c.026-.008.06-.021.1-.037.08-.034.186-.085.313-.161.253-.154.584-.408.951-.824.732-.83 1.6-2.294 2.29-4.868l-.966-.259c-.661 2.467-1.469 3.78-2.074 4.465a3.205 3.205 0 0 1-.72.631c-.082.05-.143.078-.177.092l-.032.012c-.002.001-.002.001 0 0l.004-.001.003-.001h.002l.001-.001.125.485Zm3.838-5.439a51.668 51.668 0 0 0 1.338-13.215l-1 .029a50.629 50.629 0 0 1-1.312 12.959l.974.227Zm1.338-13.2c0-.714.243-2.813.621-5.617.374-2.783.874-6.212 1.374-9.549.5-3.337 1-6.579 1.375-8.988.187-1.204.344-2.199.453-2.894a532.288 532.288 0 0 0 .16-1.015l.009-.054.002-.014.001-.003v-.001l-.494-.079-.494-.078v.004a.106.106 0 0 0-.003.014l-.008.054-.034.212-.127.805c-.109.695-.266 1.691-.453 2.896-.375 2.409-.876 5.654-1.376 8.993-.5 3.338-1.001 6.774-1.376 9.564-.373 2.769-.63 4.952-.63 5.75h1Zm3.978-28.062 51.362-161.532-.953-.303-51.362 161.532.953.303Zm50.886-161.183h11.353v-1h-11.353v1Zm10.876-.349 51.363 161.532.953-.303-51.363-161.532-.953.303Zm51.839 161.38-.494.079.001.001v.003l.002.014.009.054.033.211.127.804a1633.32 1633.32 0 0 1 1.828 11.882c.5 3.337 1 6.766 1.375 9.549.377 2.804.62 4.903.62 5.617h1c0-.798-.257-2.981-.629-5.75-.376-2.79-.877-6.226-1.377-9.564a1516.252 1516.252 0 0 0-1.829-11.889l-.127-.805a15.205 15.205 0 0 1-.033-.212l-.009-.054-.002-.014-.001-.003v-.001l-.494.078Zm3.501 28.199a51.668 51.668 0 0 0 1.338 13.215l.974-.227a50.629 50.629 0 0 1-1.312-12.959l-1-.029Zm1.342 13.228c.676 2.575 1.537 4.04 2.267 4.87.365.416.695.671.949.824.126.077.232.128.312.162.04.016.074.029.1.037l.034.011.013.004.005.001.003.001h.001l.125-.484.124-.485.001.001h.002l.003.001.004.001c.002.001.002.001 0 0a1.288 1.288 0 0 1-.208-.104 3.196 3.196 0 0 1-.717-.63c-.601-.685-1.403-1.997-2.051-4.464l-.967.254Zm3.809 5.926h36.034v-1h-36.034v1Zm36.299-.077c.845-.529 1.541-1.195 2.033-1.962l-.841-.54c-.403.628-.988 1.194-1.723 1.655l.531.847Zm2.033-1.962c.494-.767.77-1.615.8-2.486l-1-.034a3.896 3.896 0 0 1-.641 1.98l.841.54Zm.8-2.488c.014-.464-.198-.953-.48-1.414-.291-.476-.703-.995-1.186-1.537-.966-1.083-2.269-2.311-3.597-3.538-1.336-1.235-2.699-2.469-3.816-3.586-1.136-1.135-1.946-2.082-2.24-2.74l-.913.408c.381.852 1.328 1.922 2.446 3.039 1.135 1.136 2.521 2.391 3.845 3.613 1.331 1.231 2.599 2.428 3.529 3.47.465.521.832.99 1.079 1.392.255.418.338.699.333.862l1 .031Z"/>
  <path fill="#263238" stroke="#263238" stroke-linecap="round" stroke-linejoin="round" d="M735.831 547.692s-6.651-37.788-6.651-55.426c0-17.639-8.028-28.194-8.028-28.194l-9.3-126.196-6.054-15.971H692.47l-37.047.255-37.099-.255h-4.651l-15.25 21.896-8.677 120.271s-8.002 10.575-8.002 28.194-6.677 55.426-6.677 55.426l-.234.51h22.707c.441-3.001.779-5.042.779-5.042l51.362-161.531h11.354l51.362 161.531s.312 1.962.78 5.042h22.81l-.156-.51Z"/>
  <path fill="#00B0FF" stroke="#263238" stroke-linecap="round" stroke-linejoin="round" d="m596.786 553.657-12.99 23.249h-24.343c-3.404 3.277-8.34 7.299-8.34 9.065.027.774.272 1.536.72 2.233.448.697 1.089 1.314 1.878 1.809h36.035s2-.511 3.351-5.553a51.163 51.163 0 0 0 1.325-13.086c0-1.707 1.273-10.419 2.364-17.717ZM714.112 553.657l12.99 23.249h24.318c3.403 3.277 8.365 7.299 8.365 9.065a4.393 4.393 0 0 1-.72 2.233c-.448.697-1.088 1.314-1.878 1.809h-36.034s-2.001-.511-3.326-5.553a51.163 51.163 0 0 1-1.325-13.086c0-1.707-1.273-10.419-2.39-17.717Z"/>
  <path fill="#263238" stroke="#263238" stroke-linecap="round" stroke-linejoin="round" d="M651.734 158.196s-11.847-4.689-20.784 4.709-2.832 17.893-2.832 20.464c0 2.57-13.535 11.085-9.586 14.93 3.949 3.846 10.158 5.886 9.586 7.672-.571 1.785-16.367-.863-15.224 3.414 1.143 4.277 2.234 11.085 22.577 22.602 20.342 11.517 49.699 2.119 57.597-4.277 7.898-6.396 14.679-12.792 13.562-16.618-1.117-3.826-9.041-2.571-9.041-4.278 0-1.706 8.469-7.671 8.469-11.085 0-3.414-9.041-7.671-9.612-9.81-.572-2.138 4.52-5.121 4.52-8.515s-11.301-7.691-11.301-10.673 8.495-8.103-4.495-14.931c-12.99-6.828-30.474-1.707-33.436 6.396Z"/>
  <path fill="#fff" stroke="#263238" stroke-linecap="round" stroke-linejoin="round" d="m648.175 211.229-4.52 17.344s-10.548-3.414-13.562-4.277c-3.014-.863-11.769 97.609-11.769 97.609h83.942l-4.521-97.04-18.81 3.708-5.663-17.658-25.097.314Z"/>
  <path fill="#fff" stroke="#263238" stroke-linecap="round" stroke-linejoin="round" d="m680.156 257.022 3.326-29.312-4.443.883-5.663-17.658-25.201.294-4.52 17.344-3.716-1.197 4.079 29.626 36.138.02Z"/>
  <path fill="#263238" stroke="#263238" stroke-linecap="round" stroke-linejoin="round" d="M645.343 214.741s15.094 10.928 18.186 10.928c3.091 0 12.574-9.967 12.574-9.967l-1.247-3.335-29.513-.471v2.845Z"/>
  <path fill="#AE7461" stroke="#263238" stroke-linecap="round" stroke-linejoin="round" d="m596.631 145.188 25.98-20.424-7.43-15.304s7.378-10.34 8.027-11.517c.65-1.177 3.352-4.728 3.352-4.728a5.446 5.446 0 0 1 1.687.183 4.56 4.56 0 0 1 1.449.676c.417.298.748.658.973 1.057.225.399.338.829.333 1.262.514 3.781.601 7.588.26 11.38-.597 1.746 5.924 11.379 3.326 15.696-2.598 4.316-29.124 31.725-29.124 31.725l-8.833-10.006Z"/>
  <path stroke="#263238" stroke-linecap="round" stroke-linejoin="round" d="M631.002 99.454s-8.236 8.986-8.158 9.81c.12.761.311 1.515.572 2.256M629.391 94.137l-10.964 12.243-.026 3.982"/>
  <path fill="#ADADAD" stroke="#263238" stroke-linecap="round" stroke-linejoin="round" d="M637.627 225.728s-2.598 52.405-6.391 72.594c-3.793 20.189-8.288 31.843-17.329 42.085s-38.398 20.464-38.398 20.464 21.07-54.936 25.226-69.926c4.157-14.99 4.131-46.715 4.131-46.715-12.884-7.649-24.257-16.647-33.774-26.723-15.042-16.206-27.253-32.942-26.603-35.316.649-2.374 59.754-45.4 59.754-45.4l12.132 12.36-32.89 37.867s30.812 27.056 33.046 28.468c2.234 1.413 10.938 2.296 21.096 10.242Z"/>
  <path fill="#ADADAD" stroke="#263238" stroke-linecap="round" stroke-linejoin="round" d="M635.834 224.394v.196s-12.418 17.344-12.418 33.55c0 9.32 3.741 39.24 6.911 45.126.337-1.628.675-3.276 1.013-5.022 3.741-20.17 6.391-72.594 6.391-72.594-.701-.393-1.221-.844-1.897-1.256Z"/>
  <path fill="#AE7461" stroke="#263238" stroke-linecap="round" stroke-linejoin="round" d="m726.192 144.697-27.85-19.129 6.001-15.696s-8.261-9.947-9.015-11.085c-.753-1.138-3.767-4.552-3.767-4.552a5.353 5.353 0 0 0-1.674.268 4.372 4.372 0 0 0-1.393.753c-.39.32-.688.698-.876 1.11-.187.412-.26.849-.214 1.283-.187 3.802.066 7.61.754 11.379.753 1.707-4.885 11.655-1.871 15.912 3.014 4.258 31.982 30.136 31.982 30.136l7.923-10.379Z"/>
  <path stroke="#263238" stroke-linecap="round" stroke-linejoin="round" d="M687.794 100.925s9.041 8.515 9.041 9.379a11.546 11.546 0 0 1-.39 2.276M688.911 95.51l12.055 11.674.364 3.963"/>
  <path fill="#ADADAD" stroke="#263238" stroke-linecap="round" stroke-linejoin="round" d="M688.262 225.728s2.598 52.405 6.391 72.594c3.793 20.189 8.287 31.843 17.328 42.085 9.041 10.242 38.399 20.464 38.399 20.464s-21.096-54.936-25.227-69.926c-4.131-14.99-4.157-46.715-4.157-46.715 12.892-7.643 24.265-16.642 33.774-26.723 15.069-16.206 33.515-35.178 32.397-37.454-1.117-2.276-67.547-41.889-67.547-41.889l-9.431 13.734 32.553 37.278s-31.176 25.016-33.514 26.428c-2.339 1.413-10.808 2.178-20.966 10.124Z"/>
  <path stroke="#263238" stroke-linecap="round" stroke-linejoin="round" d="M618.324 226.003c-3.144 9.535-13.458 18.207-13.458 18.207s6.365-11.066 4.781-20.601M703.564 223.668c5.005 7.237 10.838 14.131 17.433 20.601 0 0-7.95-21.778-7.95-24.76"/>
  <path fill="#ADADAD" stroke="#263238" stroke-linecap="round" stroke-linejoin="round" d="M690.029 224.394v.196s12.418 17.344 12.418 33.55c0 9.32-3.715 39.24-6.911 45.126-.337-1.628-.649-3.276-.987-5.022-3.767-20.17-6.391-72.594-6.391-72.594.702-.393 1.299-.844 1.871-1.256Z"/>
  <path fill="#AE7461" stroke="#263238" stroke-linecap="round" stroke-linejoin="round" d="M637.238 193.885s-7.509-8.24-8.652-1.138c-1.143 7.102 7.794 12.223 7.794 12.223l.858-11.085ZM688.08 192.276s6.391-4.827 8.262.844c1.87 5.67-7.794 10.81-7.794 10.81l-.468-11.654Z"/>
  <path fill="#AE7461" stroke="#263238" stroke-linecap="round" stroke-linejoin="round" d="M653.994 165.887s-1.689 7.24-8.469 8.947c-3.511.69-6.657 2.176-9.016 4.257 0 0-1.117 24.741 1.144 27.292 2.26 2.55 17.042 13.361 24.447 13.361 7.404 0 25.019-9.967 25.59-12.517.572-2.551-.364-26.448-.935-28.155-.572-1.707-7.794-4.258-14.133-4.258-6.339 0-11.276-5.121-12.419-6.827-1.143-1.707-6.209-2.1-6.209-2.1Z"/>
  <path stroke="#263238" stroke-linecap="round" stroke-linejoin="round" d="M658.879 186.214c1.489.921 3.288 1.512 5.196 1.706a6.35 6.35 0 0 0 2.331-.609c.701-.341 1.282-.805 1.696-1.353M647.682 178.071c.257-.63.711-1.204 1.325-1.674.614-.469 1.368-.819 2.199-1.022a7.12 7.12 0 0 1 2.576-.139c.86.111 1.673.377 2.369.775M668.725 176.207s6.027-3.512 10.677 2.472M653.553 194.238s12.99 5.886 21.459-2.119"/>
  <path fill="#263238" d="M653.812 179.935c0 1.177-.883 2.139-1.974 2.139s-1.975-.962-1.975-2.139c0-1.177.884-2.119 1.975-2.119 1.091 0 1.974.942 1.974 2.119ZM674.701 180.131c0 1.177-.883 2.139-1.975 2.139-1.091 0-1.974-.962-1.974-2.139 0-1.177.883-2.138 1.974-2.138 1.092 0 1.975.961 1.975 2.138Z"/>
  <path fill="#fff" stroke="#263238" stroke-linecap="round" stroke-linejoin="round" d="m277.076 443.804-39.074 20.111 31.072 99.768 94.645-13.146.935-104.496-47.699-7.24-39.879 5.003Z"/>
  <path fill="#263238" stroke="#263238" stroke-linecap="round" stroke-linejoin="round" d="m298.874 462.62 12.107 12.106 1.974 64.883 15.302 17.952 11.458-27.409-23.019-55.603 5.742-13.714-12.704-9.359-10.86 11.144Z"/>
  <path fill="#fff" stroke="#263238" stroke-linecap="round" stroke-linejoin="round" d="m312.409 461.129-16.497 13.499-23.824-30.137 11.717-9.025 25.85.844 21.953 8.554 1.169 22.151-20.368-5.886Z"/>
  <path fill="#D8A990" stroke="#263238" stroke-linecap="round" stroke-linejoin="round" d="M323.892 380.138s10.392 7.848 11.301 10.477c.528 2.319.659 4.679.39 7.024l12.496 6.121-7.586 5.651s7.275 15.48 3.066 17.226c-4.209 1.746-24.006 5.592-24.006 5.592l-7.144 28.841-28.396-21.876-3.43-12.282s-18.186-16.775-15.588-24.977c2.598-8.201 11.12-20.365 28.812-24.682 17.692-4.316 18.732-2.688 18.732-2.688l11.353 5.573Z"/>
  <path fill="#263238" stroke="#263238" stroke-linecap="round" stroke-linejoin="round" d="M289.157 414.747s10.652-1.962 10.392-5.729c-.259-3.767-7.534-6.808-1.948-9.692 5.586-2.884 11.249-4.12 11.145-6.298-.104-2.178-5.196-4.16-1.792-6.435 3.403-2.276 16.861-6.455 16.861-6.455s-5.638-11.772-26.448-12.204c-20.81-.432-39.853 19.071-38.476 31.392 1.377 12.321 19.433 28.645 23.797 29.606 4.365.962 6.469-14.185 6.469-14.185Z"/>
  <path fill="#D8A990" d="M293.574 417.317s-6.833-7.377-12.237-1.255c-5.404 6.121 7.093 12.243 13.536 12.046 6.443-.196 7.794-2.413 7.794-2.413"/>
  <path stroke="#263238" stroke-linecap="round" stroke-linejoin="round" d="M293.574 417.317s-6.833-7.377-12.237-1.255c-5.404 6.121 7.093 12.243 13.536 12.046 6.443-.196 7.794-2.413 7.794-2.413"/>
  <path fill="#263238" d="M328.439 398.129c0 1.648-.805 3.002-2 3.041-1.196.039-2.209-1.275-2.287-2.904-.078-1.628.806-3.001 1.975-3.041 1.169-.039 2.234 1.256 2.312 2.904Z"/>
  <path stroke="#263238" stroke-linecap="round" stroke-linejoin="round" d="M318.125 392.753s6.157-5.591 12.73-3.08"/>
  <path fill="#D8A990" stroke="#263238" stroke-linecap="round" stroke-linejoin="round" d="m222.31 583.675 6.625 4.925 8.106 2.963 5.482 13.851-5.742 1.374-3.871-3.081-3.559 2.904 4.78 10.261s6.443 1.413 6.495 2.61c.052 1.197-4.053 3.728-4.053 3.728l-7.56-2.57-20.784-1.786-6.001-3.021 6.521-26.527 13.561-5.631Z"/>
  <path stroke="#263238" stroke-linecap="round" stroke-linejoin="round" d="m229.014 620.718-7.483-9.163M219.089 619.894l-5.067-8.986M208.256 618.933l-1.715-7.79"/>
  <path fill="#fff" stroke="#263238" stroke-linecap="round" stroke-linejoin="round" d="m238.002 463.915-50.557 60.528 18.498 65.491 19.901-3.296 1.065-61.214 25.252-24.035-14.159-37.474Z"/>
  <path fill="#D8A990" stroke="#263238" stroke-linecap="round" stroke-linejoin="round" d="m463.925 430.502.961-8.633a24.69 24.69 0 0 1 0-8.633 53.96 53.96 0 0 1 3.819-8.73c1.299-2.453 3.014-3.924 4.91-1.492 1.897 2.433 1.091 6.966 1.091 6.966.564-2.309 1.654-4.527 3.222-6.554 2.026-1.962 8.729-3.492 15.432-5.042 6.703-1.55 3.637 1.236 2.598 2.61-1.039 1.373-7.3 3.727-7.3 3.727s9.846-2.727 12.678-3.355c2.832-.627 7.222 1.962 4.105 3.395a71.89 71.89 0 0 1-9.847 2.982 74.209 74.209 0 0 1 10.392 2.649c2.91 1.255 1.611 3.727-.155 3.767a81.503 81.503 0 0 1-7.171-.589s4.78 2.825 3.793 4.473c-.987 1.648-10.002-.51-10.002-.51-.853 2.717-2.698 5.198-5.326 7.162a54.999 54.999 0 0 1-9.379 4.865l-8.184 7.24-5.637-6.298Z"/>
  <path stroke="#263238" stroke-linecap="round" stroke-linejoin="round" d="m488.579 404.721 3.04 9.869"/>
  <path fill="#CCC" d="m474.602 410.058-.545 3.257s5.845 2.786 5.014 7.122"/>
  <path stroke="#263238" stroke-linecap="round" stroke-linejoin="round" d="m474.602 410.058-.545 3.257s5.845 2.786 5.014 7.122"/>
  <path fill="#fff" stroke="#263238" stroke-linecap="round" stroke-linejoin="round" d="m364.655 446.041 44.504 28.429 54.662-45.851 11.431 7.592-55.909 68.258-54.61-16.225-.078-42.203Z"/>
  <path fill="#263238" stroke="#263238" stroke-linecap="round" stroke-linejoin="round" d="m269.075 563.683 6.781 92.998-51.96 104.81 21.667 5.886 79.473-111.834 11.613-49.854 71.237 9.025-41.828 74.183 17.537 4.474s88.202-100.533 89.734-100.592c1.533-.059-106.518-32.863-106.518-32.863l-3.091-9.379-94.645 13.146Z"/>
  <path fill="#D8A990" stroke="#263238" stroke-linecap="round" stroke-linejoin="round" d="m383.516 693.371 8.262 12.4s8.235 1.962 11.353 3.119c3.117 1.158 4.65 1.393 6.261 3.257 1.054 1.399 1.659 2.964 1.767 4.572l-41.101 1.236-18.523-14.029c-5.82-4.434 14.444-15.029 14.444-15.029l17.537 4.474ZM223.947 761.491s.416 7.672.78 14.559c.363 6.886 11.587 17.304 18.394 20.954 6.806 3.649 12.989 4.218 10.885-5.317a170.13 170.13 0 0 0-8.391-24.329s-19.589-6.318-21.668-5.867Z"/>
  <path fill="#DBDBDB" stroke="#263238" stroke-linecap="round" stroke-linejoin="round" d="M802.522 586.481H502.115V716.11h300.407V586.481Z"/>
  <path fill="#ADADAD" stroke="#263238" stroke-linecap="round" stroke-linejoin="round" d="M978.667 712.716H325.919v129.629h652.748V712.716Z"/>
  <path fill="#919191" stroke="#263238" stroke-linecap="round" stroke-linejoin="round" d="M1171.62 801.124H132.991v129.629H1171.62V801.124Z"/>
  <path fill="#FFC107" stroke="#263238" stroke-linecap="round" stroke-linejoin="round" d="m652.41 600.804 14.003 21.425 31.306 3.433-22.654 16.677 5.351 23.544-28.006-11.105-28.006 11.105 5.352-23.544-22.629-16.677 31.28-3.433 14.003-21.425ZM417.42 718.21l14.004 21.405 31.306 3.434-22.655 16.677 5.352 23.544-28.007-11.105-28.006 11.105 5.352-23.544-22.655-16.677 31.306-3.434 14.003-21.405ZM891.997 718.21 906 739.615l31.28 3.434-22.629 16.677 5.326 23.544-27.98-11.105-28.007 11.105 5.352-23.544-22.654-16.677 31.305-3.434 14.004-21.405Z"/>
  <path stroke="#263238" stroke-linecap="round" stroke-linejoin="round" d="M54.947 930.773H1254.44"/>
</svg>
