<svg xmlns="http://www.w3.org/2000/svg" width="655" height="462" fill="none" viewBox="0 0 655 462">
  <path fill="#000" d="M374.847 64.656c3.794.465 7.601-.72 10.699-3.327 3.064-2.605 5.67-5.88 7.673-9.646 3.527-6.234 6.07-13.16 7.508-20.449 1.189 1.675 2.746 2.939 4.502 3.655a8.803 8.803 0 005.464.41c5.937-1.563 9.497-9.68 8.339-16.68-1.158-7.001-6.058-12.551-11.65-15.36C401.79.448 395.558-.016 389.474 0c-4.012.01-8.101.23-11.869 1.843-3.769 1.612-7.221 4.826-8.56 9.259-.839 2.779-.812 5.854-1.766 8.582-1.733 4.951-6.227 7.655-10.444 9.707-4.217 2.051-8.802 4.135-11.289 8.623-2.809 5.068-1.998 12.142 1.097 16.975 3.095 4.834 8.065 7.637 13.124 8.809 5.058 1.172 10.27.882 15.42.587"/>
  <path fill="#C36F0B" d="M328.805 383.199l-16.622-8.448 9.019-21.755 13.423 9.206-5.82 20.997z"/>
  <path fill="#000" d="M390.291 271.651l-16.053 38.268-28.329 67.541-29.208-16.45 32.242-88.471.092-11.136.288-34.655 40.968 44.903z"/>
  <path fill="#C36F0B" d="M435.81 365.9l-17.07 7.114-6.069-23.118 15.173-4.001 7.966 20.005zM432.017 164.507l-51.589-17.338 15.173-12.004 39.83 14.671 18.01 5.066c1.272.358 2.462 1.04 3.483 1.999 1.022.958 1.851 2.168 2.428 3.545.577 1.377.888 2.885.911 4.419a12.001 12.001 0 01-.78 4.453 10.536 10.536 0 01-2.143 3.457 8.72 8.72 0 01-3.146 2.16 7.68 7.68 0 01-3.621.5 7.973 7.973 0 01-3.489-1.244l-15.067-9.684z"/>
  <path fill="#fff" d="M399.015 135.61l-20.863 14.226c-1.841-17.791 7.235-49.461 18.587-84.025 3.324 2.821 5.933 6.647 7.549 11.069 1.615 4.422 2.177 9.274 1.625 14.04l-6.898 44.69z"/>
  <path fill="#C36F0B" d="M309.114 171.176l-.439 18.249a11.962 11.962 0 01-1.008 4.556c-.625 1.41-1.515 2.636-2.602 3.586-1.087.95-2.344 1.598-3.675 1.897a7.698 7.698 0 01-4.014-.17c-1.261-.396-2.434-1.109-3.436-2.091-1.002-.982-1.809-2.208-2.365-3.592a12.058 12.058 0 01-.855-4.426c-.007-1.53.271-3.044.814-4.436l5.821-14.907 18.208-50.682 12.517 5.335-18.966 46.681zM393.894 47.806c9.009 0 16.311-8.559 16.311-19.117 0-10.558-7.302-19.117-16.311-19.117-9.008 0-16.311 8.56-16.311 19.117 0 10.558 7.303 19.117 16.311 19.117z"/>
  <path fill="#C36F0B" d="M393.325 68.924l-18.966-10.67 9.483-24.897 15.932 3.557-6.449 32.01z"/>
  <path fill="#fff" d="M381.187 159.172l-38.692-11.114 7.769-83.47c.357-3.826 1.98-7.335 4.521-9.772 2.542-2.438 5.798-3.608 9.068-3.26l12.782 1.363 17.449 9.336 6.448 8.002-1.967 9.862c1.834 20.313.42 37.938-9.656 48.398l-7.722 30.655z"/>
  <path fill="#fff" d="M331.874 127.608l-20.105-6.225 26.954-52.32c2.829-5.492 6.933-9.926 11.833-12.785s10.393-4.024 15.837-3.36l-10.242 39.568c-9.47 8.375-17.425 20.412-24.277 35.122z"/>
  <path fill="#000" d="M390.291 271.65l-16.054 38.27c-9.077-16.405-17.836-32.699-25.202-48.517l.288-34.655 40.968 44.902z" opacity=".2"/>
  <path fill="#000" d="M436.569 348.118l-30.726 10.67c-37.414-71.189-90.988-147.906-70.176-199.171l7.587-20.895 39.45 14.226 2.276 55.128 24.277 44.458 27.312 95.584zM451.645 396.522l-27.306-.315c-2.598-.02-5.083-1.243-6.913-3.403-1.831-2.159-2.858-5.08-2.858-8.124v-15.954a4.217 4.217 0 01.332-1.663c.221-.517.543-.965.939-1.308a2.916 2.916 0 011.341-.67 2.701 2.701 0 011.454.113c4.933 1.853 8.971 1.237 12.016-2.123 1.826-2.014 2.039-2.418 4.212-.953l12.328 15.782 5 .378c1.874.142 3.642 1.073 4.977 2.622 1.336 1.548 2.148 3.61 2.289 5.806.08 1.257-.062 2.52-.419 3.709a9.54 9.54 0 01-1.653 3.201 7.92 7.92 0 01-2.611 2.155 6.818 6.818 0 01-3.128.747zM322.352 417.977l-19.118-22.852c-1.825-2.167-2.844-5.091-2.835-8.135.008-3.045 1.044-5.961 2.88-8.114l9.626-11.281c.347-.41.771-.718 1.239-.9a2.703 2.703 0 011.452-.147c.487.085.951.304 1.352.638.402.334.731.774.961 1.285 2.369 5.398 5.597 8.308 9.777 8.457 2.506.089 2.901-.021 3.553 2.816l-.804 21.377 3.307 4.41c1.24 1.654 1.928 3.778 1.938 5.979.01 2.202-.659 4.333-1.885 6.002a8.054 8.054 0 01-2.534 2.276c-.97.546-2.025.85-3.1.893a6.783 6.783 0 01-3.146-.639 7.835 7.835 0 01-2.663-2.065zM393.236 24.228c2.234 4.165 5.553 7.375 9.465 9.155 2.771 1.251 6.287 1.562 8.367-.922 1.507-1.8 1.807-4.569 1.593-7.077-.667-7.83-5.688-14.648-11.918-17.582-6.23-2.934-13.422-2.293-19.639.678-5.867 2.802-11.438 8.543-11.753 15.958-.162 3.8 1.012 7.985-.728 11.196-1.311 2.42-3.843 3.402-6.111 4.473-2.268 1.072-4.702 2.762-5.167 5.575a7.262 7.262 0 00.24 2.877c.272.923.724 1.76 1.321 2.44 1.206 1.35 2.633 2.398 4.195 3.083 3.698 1.845 7.769 2.996 11.742 2.282 3.974-.713 7.816-3.549 9.371-7.893 1.197-3.346.952-7.12.814-10.745-.139-3.624-.097-7.484 1.554-10.553 1.651-3.068 5.485-4.786 7.952-2.596"/>
  <path fill="#24A0ED" d="M489.154 172.437c-1 .002-1.959.468-2.666 1.297-.707.829-1.105 1.953-1.106 3.125v30.95c.001 1.172.399 2.296 1.106 3.125.707.829 1.666 1.295 2.666 1.296h135.058c1-.001 1.959-.467 2.666-1.296.708-.829 1.106-1.953 1.107-3.125v-30.95c-.001-1.172-.399-2.296-1.107-3.125-.707-.829-1.666-1.295-2.666-1.297H489.154z"/>
  <path fill="#fff" d="M508.017 202.503c4.584 0 8.3-4.355 8.3-9.727s-3.716-9.727-8.3-9.727c-4.584 0-8.299 4.355-8.299 9.727s3.715 9.727 8.299 9.727z"/>
  <path fill="#24A0ED" d="M180.936 419.155H36.824v41.562h144.112v-41.562zM221.68 420.04c-1.001.001-1.959.467-2.667 1.296-.707.829-1.105 1.953-1.106 3.125v32.719c.001 1.172.399 2.296 1.106 3.125.708.829 1.666 1.295 2.667 1.296h135.057c1.001-.001 1.959-.467 2.667-1.296.707-.829 1.105-1.953 1.106-3.125v-32.719c-.001-1.172-.399-2.296-1.106-3.125-.708-.829-1.666-1.295-2.667-1.296H221.68zM414.458 421.808c-4.503 0-8.821 2.096-12.005 5.828-3.183 3.731-4.972 8.792-4.972 14.069 0 5.277 1.789 10.337 4.972 14.069 3.184 3.731 7.502 5.827 12.005 5.827h108.649c4.503 0 8.821-2.096 12.005-5.827 3.183-3.732 4.972-8.792 4.972-14.069 0-5.277-1.789-10.338-4.972-14.069-3.184-3.732-7.502-5.828-12.005-5.828H414.458zM600.068 460.717c10.001 0 18.108-9.502 18.108-21.223 0-11.721-8.107-21.223-18.108-21.223-10.001 0-18.109 9.502-18.109 21.223 0 11.721 8.108 21.223 18.109 21.223z"/>
  <path fill="#fff" d="M600.068 449.221c4.583 0 8.299-4.355 8.299-9.727s-3.716-9.727-8.299-9.727c-4.584 0-8.3 4.355-8.3 9.727s3.716 9.727 8.3 9.727z"/>
  <path fill="#3F3D56" d="M655 460.231H0V462h655v-1.769z"/>
  <path fill="#fff" d="M142.81 433.746H74.95v12.38h67.86v-12.38zM323.139 433.746h-67.861v12.38h67.861v-12.38zM502.713 435.515h-67.861v12.38h67.861v-12.38z"/>
</svg>
