<svg xmlns="http://www.w3.org/2000/svg" width="772" height="506" fill="none" viewBox="0 0 772 506">
  <path stroke="#B7C9CC" stroke-dasharray="2 4" stroke-linecap="round" d="M630 67.013c-12.397-.504-37.353 13.79-38 74.987M316 44.014c21.206-.57 63.894 15.629 65 84.986M172 129c-.922-20.522-11.014-60.374-44-55.608M86.206 163.85c-.528-20.925 8.49-66.156 48.79-79.69M626 62c-59.222 0-132 50.763-132 141M278 39c-126-10-3.5 90.5-5.5 120M716.5 128C731 87.5 706 51.5 631 60.822"/>
  <path fill="#C5D4D6" stroke="#39424E" stroke-linecap="round" stroke-miterlimit="10" stroke-width=".697" d="M592.886 219.264c9.151 0 16.57-8.023 16.57-17.921 0-9.897-7.419-17.921-16.57-17.921s-16.57 8.024-16.57 17.921c0 9.898 7.419 17.921 16.57 17.921z"/>
  <path fill="#F3F7F7" stroke="#39424E" stroke-linecap="round" stroke-miterlimit="10" stroke-width=".732" d="M350.761 268.068c-.902 9.242-1.916 18.372-3.156 27.501 1.014 2.705 1.916 5.523 2.931 8.228 0 .338-.113.677-.226 1.015-.451 1.352-1.014 2.705-1.578 4.057-.676 1.691-1.353 3.382-2.142 4.959-1.803-2.817-3.945-7.1-4.509-12.623-.225-2.592-.112-4.509.113-6.425 1.015-10.482.113-7.889 1.24-21.527.451-5.41 1.127-11.835 2.029-19.274h.338c2.029-.225 4.171-.451 6.313-.676-.564 4.959-.902 9.918-1.353 14.765z"/>
  <path stroke="#39424E" stroke-linecap="round" stroke-miterlimit="10" stroke-width=".732" d="M425.382 254.881h-4.734c-5.072.113-10.145.113-15.105.225.113 2.254.226 5.749.339 10.032 0 4.621-.113 4.621-.339 13.299-.112 5.636-.225 11.271-.789 17.02-.225 1.916-.338 3.043-.45 3.606-.564 3.833-1.128 4.734-1.691 7.89-.226 1.24-.113 1.24-.338 4.058a185.409 185.409 0 00-4.171-1.353c-9.131-2.818-16.007-4.846-24.461-5.748-5.41-.564-13.413-.789-23.107.902.112-.451.112-.789.225-1.015-1.014-2.705-1.916-5.523-2.931-8.228 1.24-9.129 2.367-18.371 3.156-27.501.451-4.847.902-9.806 1.24-14.652-2.029.225-4.17.45-6.312.676.451-4.17 1.014-6.988 2.367-20.288 1.24-12.736 2.142-19.161 5.185-23.895 2.931-4.508 6.538-7.1 8.004-8.228 4.057-2.705 8.003-3.832 10.37-4.395a9.064 9.064 0 00.338 3.719c.225.789 1.127 3.156 3.156 4.058.902.338 2.142.451 2.706.451.45 0 .901.112 1.352 0 3.72 0 6.651-1.466 8.567-2.931 1.804-1.24 2.818-3.268 2.818-5.297v-1.353c6.989 1.015 14.541 3.607 20.741 9.017 9.356 8.003 11.159 18.146 13.188 29.305 1.465 8.679 1.127 15.779.676 20.626z"/>
  <path fill="#39424E" d="M350.536 303.91c12.173-1.578 21.642-.451 27.842.789 6.65 1.352 13.414 3.494 18.148 5.072 5.41 1.691 9.807 3.381 12.963 4.621.225 2.705.563 6.875.901 12.06a270.155 270.155 0 01-.338 31.784c-.676 10.933-2.93 38.773-9.919 112.936-4.734-.225-9.356-.563-14.09-.789-2.48-48.803-4.847-97.72-7.327-146.523-1.916-.226-3.72-.338-5.636-.564a2431.68 2431.68 0 011.691 57.257c.563 29.981.789 60.075.563 90.056-5.636-.113-11.272-.226-16.908-.226a1495.595 1495.595 0 01-8.792-88.703c-1.578-23.331-2.48-45.986-2.931-67.626 1.24-3.494 2.48-6.875 3.833-10.144z"/>
  <path stroke="#39424E" stroke-linecap="round" stroke-miterlimit="10" stroke-width=".819" d="M392.242 176.322c-.676 1.352-1.916 1.916-2.367 2.028l.226 17.471v1.352c0 2.142-.902 4.17-2.593 5.41-1.803 1.465-4.509 2.931-7.89 3.043-1.353 0-2.706-.225-3.72-.563-2.367-.676-3.945-2.818-4.058-5.185l-.226-3.494-.225-3.381a15.126 15.126 0 01-4.509-2.254c-5.861-4.509-6.312-13.075-6.763-21.528-.338-5.861.338-11.497.563-13.525.113-1.128.226-2.029.339-2.593 2.367-1.014 8.341-3.043 15.217-1.127 2.931.789 8.679 2.367 11.385 7.89 1.916 4.057 1.127 8.115.676 9.693.451 0 1.916 0 3.044 1.127 1.803 1.578 1.803 4.058.901 5.636z"/>
  <path fill="#F3F7F7" stroke="#39424E" stroke-linecap="round" stroke-miterlimit="10" stroke-width=".732" d="M416.365 295.006c-.451 2.029-.789 3.719-1.015 4.734.677 2.141 1.691 5.072 2.48 8.791.676 3.156 1.24 5.41 1.353 8.341.225 4.959-.677 10.031-1.353 10.031-.338 0-.902-1.578-1.465-9.13 0 .564-.113 12.962-.902 12.962-.564 0-1.578-4.17-3.156-14.765-.338 1.803-.677 4.283-.789 7.439-.113 4.057.338 6.763-.338 6.875-.564.113-1.691-2.029-2.255-3.607-.902-2.366-.789-3.719-1.353-7.664-.338-2.141-.901-6.424-1.465-6.424-.338 0-.563 1.127-.902 2.592-.451 1.916-.225 2.367-.563 3.269-.677 1.69-2.255 3.381-3.044 3.156-.563-.226-.338-1.804.338-8.116.113-1.014.113-1.69.226-2.367.225-2.817.225-2.817.338-4.057.564-3.156 1.014-4.058 1.691-7.89.113-.563.225-1.691.451-3.607.563-5.748.676-11.383.789-17.019.225-8.679.338-8.679.338-13.3 0-4.283-.226-7.777-.338-10.031 2.48 0 5.072-.113 7.552-.113 2.931 0 5.862-.112 8.68-.225-.339 7.101-.902 12.962-1.466 17.132-1.014 8.453-2.48 15.892-3.832 22.993z"/>
  <path stroke="#000" stroke-linecap="round" stroke-miterlimit="10" stroke-width=".795" d="M415.688 254.881h-2.592c.902.113 1.691 0 2.592 0z"/>
  <path fill="#39424E" d="M363.724 170.235a1.352 1.352 0 10.001-2.705 1.352 1.352 0 00-.001 2.705zM377.927 170.235a1.352 1.352 0 100-2.703 1.352 1.352 0 000 2.703z"/>
  <path stroke="#39424E" stroke-linecap="round" stroke-miterlimit="10" stroke-width=".782" d="M368.909 174.856c-.113.113-1.014 1.691-.225 3.269a2.904 2.904 0 001.24 1.352"/>
  <path stroke="#39424E" stroke-linecap="round" stroke-miterlimit="10" stroke-width=".819" d="M368.458 183.986a9.19 9.19 0 005.073 0c2.254-.676 3.607-1.916 4.283-2.592"/>
  <path stroke="#E7EEEF" stroke-linecap="round" stroke-miterlimit="10" stroke-width=".795" d="M353.466 305.939c0 .901-.112 1.916-.451 3.043-.901 3.607-3.156 5.974-4.396 7.101M353.466 381.568a8.673 8.673 0 001.353 3.494 8.215 8.215 0 001.803 2.028M386.944 381.568c0 .563 0 1.803.79 3.268.901 1.465 2.141 2.029 2.592 2.254"/>
  <path stroke="#39424E" stroke-linecap="round" stroke-miterlimit="10" stroke-width=".795" d="M388.523 464.635l-.339 16.343c4.171.564 8.229 1.24 12.4 1.804-.338-7.101-.564-14.089-.902-21.19-3.833 1.014-7.44 2.029-11.159 3.043z"/>
  <path stroke="#E7EEEF" stroke-linecap="round" stroke-miterlimit="10" stroke-width=".795" d="M396.864 316.759c.113 1.24.451 2.705.902 4.283 1.578 4.396 4.396 7.326 6.087 8.791"/>
  <path fill="#39424E" d="M360.117 160.542c1.014.564 2.48 1.24 4.509 1.465 1.352.113 2.705 0 5.185-.676 6.312-1.803 6.989-3.381 9.807-3.043 2.592.338 4.283 2.029 5.072 2.818 3.607 3.606 3.382 8.34 3.269 9.242 1.127-1.465 3.607-5.41 2.593-9.468-1.691-6.537-11.385-8.34-14.992-8.566-2.368-.112-5.186.226-6.989.451-1.691.226-2.705.451-3.833.902-1.24.563-2.818 1.24-3.832 2.93-1.015 1.578-.902 3.043-.789 3.945z"/>
  <path fill="#39424E" d="M389.988 181.394c1.014-.113 2.705-.564 4.058-1.804 2.48-2.479 2.029-6.312 1.803-8.34-1.014-8.454-9.017-13.864-11.046-15.104.902.789 2.818 2.818 3.72 5.974 1.014 3.494.225 6.425-.113 7.552.338 0 1.803 0 3.043 1.127 1.804 1.69 1.128 4.283 1.128 4.508-.564 2.142-2.48 3.043-2.818 3.156.112 1.014.225 2.029.225 2.931z"/>
  <path fill="#E7EEEF" stroke="#39424E" stroke-miterlimit="10" d="M360.117 160.204c-1.127-.564-3.044-1.803-4.622-3.832-1.014-1.353-3.381-4.396-2.48-6.312 1.691-3.607 14.316-.564 15.105-.451 4.058 1.015 7.214 2.367 9.243 3.494-2.367-.451-6.763-1.014-11.159.564-2.931 1.014-4.171 2.367-4.622 2.93-.902 1.353-1.352 2.818-1.465 3.607z"/>
  <path fill="#E7EEEF" stroke="#39424E" stroke-miterlimit="10" d="M370.938 150.511c1.24-1.015 3.607-2.818 7.102-3.269 5.974-.901 11.723 2.593 14.653 7.101 3.72 5.636 2.367 11.722 2.029 12.962a53.024 53.024 0 00-9.806-9.581 45.907 45.907 0 00-13.978-7.213z"/>
  <path stroke="#39424E" stroke-linecap="round" stroke-miterlimit="10" stroke-width=".732" d="M354.481 224.224c-.451 4.395-1.24 11.383-1.916 19.837-.902 10.82-.902 15.328-1.579 23.105-.563 6.538-1.465 16.005-3.381 27.727"/>
  <path stroke="#39424E" stroke-linecap="round" stroke-miterlimit="10" stroke-width=".782" d="M373.305 186.24c.226.113.677.226 1.24.113.338 0 .677-.226.789-.226"/>
  <path stroke="#39424E" stroke-linecap="round" stroke-miterlimit="10" stroke-width=".819" d="M376.011 165.276c.112-.113.676-.564 1.578-.451.901.113 1.352.902 1.352 1.014"/>
  <path stroke="#39424E" stroke-linecap="round" stroke-miterlimit="10" stroke-width=".782" d="M364.964 165.389s-.676-.677-1.578-.564c-.789.113-1.127.789-1.127.789M388.297 171.813c.226-.113.789-.225 1.466 0 .676.338 1.239 1.015 1.239 1.916"/>
  <path stroke="#39424E" stroke-linecap="round" stroke-miterlimit="10" stroke-width=".819" d="M388.748 152.314c.676.451 1.353 1.127 1.916 1.916 2.142 2.931 2.142 6.199 2.029 7.439"/>
  <path stroke="#39424E" stroke-linecap="round" stroke-miterlimit="10" stroke-width=".732" d="M407.685 202.02c-1.014 1.803-2.48 4.508-3.494 8.002-1.804 6.086-1.578 11.046-1.353 14.54a577.45 577.45 0 002.705 30.657c5.411-.113 10.822-.225 16.232-.225"/>
  <path fill="#39424E" d="M334.642 489.882c-2.255 1.578-.902 4.734 1.916 4.621l36.071-.45c2.254 0 4.058-1.691 3.945-3.72l-.676-11.384-9.694-.338-6.087-1.69c-2.593 1.127-5.298 2.254-8.116 3.494-6.425 3.156-12.174 6.312-17.359 9.467zM423.015 490.333c1.917 1.578.789 4.734-1.578 4.621l-31.111-.451c-1.916 0-3.494-1.69-3.382-3.719l.564-11.384 8.341-.338c1.691-.563 3.495-1.127 5.186-1.69 2.254 1.127 4.621 2.254 6.988 3.494 5.636 3.155 10.596 6.311 14.992 9.467z"/>
  <path stroke="#39424E" stroke-linecap="round" stroke-miterlimit="10" stroke-width=".84" d="M415.35 212.84a81.18 81.18 0 012.818 6.312c4.96 12.511 5.749 24.12 5.185 33.475"/>
  <path stroke="#39424E" stroke-linecap="round" stroke-miterlimit="10" stroke-width=".782" d="M377.814 180.492l.902.902"/>
  <path stroke="#39424E" stroke-linecap="round" stroke-miterlimit="10" stroke-width=".84" d="M374.771 468.017c.225 4.283.338 8.678.563 12.961-4.621-.901-9.356-1.69-13.977-2.592l-2.367-13.525"/>
  <path stroke="#39424E" stroke-linecap="round" stroke-miterlimit="10" stroke-width=".732" d="M275.238 469.482c.113 2.93.225 5.861.338 8.904 0 1.24-.564 2.48-1.578 3.156-2.818 1.803-5.636 3.607-8.454 5.523a22.188 22.188 0 007.665 2.254c7.439.789 13.075-2.705 14.992-3.945.112-5.41.112-10.82.225-16.23-4.396 0-8.792.225-13.188.338z"/>
  <path fill="#39424E" d="M288.877 482.331c-1.127.901-4.621 3.381-9.807 3.494-4.058 0-7.101-1.465-8.341-2.254-1.578.225-6.087 1.239-9.807 5.297-1.465 1.578-2.367 3.269-3.043 4.621-.451 1.015.338 2.254 1.465 2.142l26.377-1.015c1.465 0 2.705-1.24 2.818-2.818l.338-9.467z"/>
  <path stroke="#39424E" stroke-linecap="round" stroke-miterlimit="10" stroke-width=".732" d="M305.898 468.016c-.451 1.466-2.818 9.694.789 13.3 1.127 1.127 4.171 3.156 6.2 4.283.901.564 1.691.902 2.254 1.24a22.166 22.166 0 01-7.665 2.254c-7.44.789-13.076-2.705-14.992-3.944l-.338-16.456c4.622-.226 9.243-.451 13.752-.677z"/>
  <path fill="#39424E" d="M292.033 482.331c1.127.901 4.622 3.268 9.582 3.381 3.945 0 6.988-1.465 8.228-2.141 1.578.225 5.974 1.239 9.582 5.184 1.465 1.578 2.367 3.156 2.93 4.509.451 1.014-.338 2.141-1.465 2.141-8.68-.338-17.246-.676-25.926-.901-1.465 0-2.705-1.24-2.705-2.706l-.226-9.467zM256.075 330.96c-1.691-.225-3.381-.45-5.072-.563-2.48 0-4.396 2.029-4.396 4.508.112 6.087.225 12.286.338 18.372a8.758 8.758 0 008.792 8.566l.338-30.883z"/>
  <path stroke="#39424E" stroke-linecap="round" stroke-miterlimit="10" stroke-width=".7" d="M247.508 308.418c-.225 4.847-.45 8.003-.563 10.595-.113 2.818-.226 4.396.789 5.974 1.465 2.479 4.396 3.494 5.974 3.945l-.338-20.063c-2.029-.112-3.945-.225-5.862-.451zM319.65 306.39c.225 5.184.451 8.34.564 11.271.112 2.592.338 4.395-.79 6.311-1.239 2.142-3.381 3.156-4.621 3.72-.338-6.875-.676-13.864-1.015-20.739 1.917-.225 3.946-.451 5.862-.563z"/>
  <path stroke="#39424E" stroke-linecap="round" stroke-miterlimit="10" stroke-width=".732" d="M256.075 330.961c7.665 2.141 18.712 4.395 32.013 3.944a104.13 104.13 0 0024.573-3.832c1.578 18.034 2.593 36.969 3.156 56.806.79 28.178.226 54.778-1.127 79.574-16.682.902-33.365 1.803-49.935 2.705-3.495-23.444-6.313-49.029-7.778-76.643-1.127-22.091-1.353-43.056-.902-62.554z"/>
  <path stroke="#39424E" stroke-linecap="round" stroke-miterlimit="10" stroke-width=".732" d="M257.202 230.874c-3.156 8.566-6.199 18.371-8.454 29.642-3.719 18.259-4.509 34.603-4.058 47.564 3.044.226 5.975.451 9.018.789.113 7.101.113 14.202.225 21.415 6.313 2.029 14.429 3.832 23.897 4.509a105.31 105.31 0 0037.198-4.283c-.338-7.777-.789-15.554-1.127-23.331 2.48-.451 4.96-1.015 7.552-1.466 0-9.242-.789-20.4-3.156-32.686a173.953 173.953 0 00-14.541-43.281c-.789 1.466-9.017 15.554-23.671 16.456-7.778.451-19.501-2.592-22.206-10.369-.789-1.804-.789-3.607-.677-4.959zM276.478 206.077c.112.113 1.127 1.353 2.818 1.353 1.352-.113 2.141-.902 2.367-1.127M275.012 209.909c.677.451 2.142 1.466 4.171 1.578 3.494.338 5.974-1.803 6.425-2.254M279.409 213.516c.225.113.45.226.901.338.902.113 1.466-.338 1.691-.451"/>
  <path fill="#39424E" d="M270.954 201.118a1.24 1.24 0 100-2.48 1.24 1.24 0 000 2.48zM285.495 200.554a1.24 1.24 0 100-2.48 1.24 1.24 0 000 2.48z"/>
  <path stroke="#39424E" stroke-linecap="round" stroke-miterlimit="10" stroke-width=".732" d="M283.354 195.031c.112-.112.676-.676 1.691-.563a2.06 2.06 0 011.69 1.465M272.983 195.708c-.112-.113-.676-.676-1.69-.564a2.06 2.06 0 00-1.691 1.465M256.864 256.684a250.168 250.168 0 00-2.818 24.909c-.676 10.595-.676 20.401-.338 29.192M307.025 258.826c1.015 5.41 1.916 10.82 2.818 16.455 2.255 15.216 3.72 29.869 4.622 43.619"/>
  <path fill="#39424E" d="M303.531 238.2c-2.931 10.707-7.44 23.556-14.767 37.42-11.159 21.189-24.573 36.518-35.056 46.662v2.705a178.79 178.79 0 0036.296-46.211c8.905-16.569 13.752-31.898 16.57-43.732-1.014 1.014-2.029 2.141-3.043 3.156z"/>
  <path stroke="#39424E" stroke-linecap="round" stroke-miterlimit="10" stroke-width=".75" d="M687.91 465.537c-.113 2.479-.338 4.959-.451 7.439.226-2.029.338-4.171.564-6.199.901-.226 3.494-.677 6.312.563 3.607 1.465 5.073 4.621 5.298 5.298 3.269-.113 6.538-.226 9.807-.226v-6.762a60.181 60.181 0 01-13.414.901c-3.044-.225-5.749-.563-8.116-1.014z"/>
  <path stroke="#39424E" stroke-linecap="round" stroke-miterlimit="10" stroke-width=".75" d="M688.023 466.777c1.014-.226 3.043-.564 5.41.225 4.171 1.353 5.862 4.959 6.2 5.636 3.269-.113 6.538-.226 9.807-.226.338 3.382.789 6.65 1.127 10.032-.113 2.141-.225 4.283-.225 6.424-.113 1.803-1.466 3.269-3.157 3.381-13.864 1.24-27.616 2.48-41.481 3.72-.902-5.523.451-8.453 1.691-10.144 3.043-3.945 8.116-3.043 14.879-7.89 2.48-1.803 4.283-3.607 5.298-4.846.113-2.255.225-4.283.451-6.312zM665.366 493.264c14.992-1.466 29.984-2.931 44.863-4.396"/>
  <path fill="#39424E" d="M678.441 480.077c.564.45 1.466 1.127 2.593 2.028 2.029 1.691 2.593 2.48 2.818 2.255.451-.226.113-2.593-1.353-4.058-.676-.789-1.465-1.127-2.029-1.353-.676.339-1.352.789-2.029 1.128zM682.838 477.372c.45.338 1.239.901 2.029 1.577 1.578 1.466 2.141 2.706 2.479 2.593.451-.113.339-2.029-.451-3.494-.563-1.127-1.465-1.916-2.028-2.254-.677.45-1.353 1.014-2.029 1.578z"/>
  <path stroke="#39424E" stroke-linecap="round" stroke-miterlimit="10" stroke-width=".75" d="M687.459 472.976c.676 0 1.804.113 2.931.563 1.691.564 2.818 1.578 3.382 2.142M747.314 461.592v2.142c-1.014-.113-2.931-.113-5.072.901-3.269 1.578-4.735 4.396-5.073 5.185-3.269-.113-6.538-.113-9.807-.226v-6.649c2.818.45 6.538.789 10.822.45 3.607-.338 6.65-1.014 9.13-1.803z"/>
  <path stroke="#39424E" stroke-linecap="round" stroke-miterlimit="10" stroke-width=".75" d="M748.779 463.959c-1.014-.225-3.043-.564-5.41.225-4.171 1.353-5.862 4.96-6.2 5.636-3.269-.113-6.538-.113-9.807-.225-.338 3.381-.676 6.649-1.127 10.031l.338 6.424c.113 1.804 1.466 3.156 3.269 3.382 13.865 1.127 27.617 2.254 41.482 3.494.901-5.523-.451-8.454-1.691-10.144-3.044-3.945-8.116-3.044-14.879-7.777-2.48-1.804-4.284-3.607-5.298-4.847-.226-2.029-.451-4.17-.677-6.199zM771.549 490.333c-14.992-1.352-29.984-2.818-44.976-4.17"/>
  <path fill="#39424E" d="M758.474 477.259c-.564.451-1.466 1.127-2.593 2.029-2.029 1.69-2.593 2.479-2.818 2.254-.451-.226-.113-2.593 1.24-4.17.676-.789 1.465-1.128 2.029-1.353.676.451 1.352.902 2.142 1.24zM754.077 474.554c-.45.338-1.24.901-2.029 1.578-1.578 1.578-2.141 2.705-2.479 2.592-.451-.113-.339-2.029.45-3.494.564-1.127 1.466-1.916 2.029-2.254.677.451 1.353 1.014 2.029 1.578z"/>
  <path stroke="#39424E" stroke-linecap="round" stroke-miterlimit="10" stroke-width=".75" d="M749.343 470.158a8.23 8.23 0 00-2.931.564c-1.69.563-2.818 1.578-3.381 2.141M665.929 303.797c-1.014 3.607-2.367 9.017-2.818 15.667-.112 2.029-.45 7.326 1.015 21.528 1.014 9.355 1.578 11.158 3.269 23.894 1.352 10.708 1.24 12.06 2.254 20.063 1.353 10.82 2.818 18.484 5.073 29.868 3.381 17.019 6.537 33.362 9.919 50.156 4.847 1.127 11.61 2.142 19.501 1.466 3.72-.339 6.989-.902 9.919-1.691.113-15.329-.676-27.276-1.465-35.504-.338-3.268-.902-9.58-2.029-20.851-1.015-11.159-1.24-14.427-1.465-18.034-.113-2.705-.451-10.257-.113-19.161.338-8.904 1.353-21.302 4.283-36.293a241.439 241.439 0 013.156 18.259c1.353 9.806 1.804 16.456 2.818 29.643 2.029 26.375 1.691 20.739 2.593 32.686.902 12.849 1.804 28.742 2.593 47.001 3.494.789 9.017 1.69 15.555.901a47.968 47.968 0 0012.4-3.381c1.127-7.551 2.479-17.47 3.945-29.305 1.24-10.144 2.93-24.345 4.283-42.83 1.24-18.146 1.691-32.46 1.691-43.731 0-9.693 0-21.19-2.593-35.842-.45-2.367-.789-4.283-1.014-5.636-17.472 3.945-32.464 5.185-43.623 5.41-5.073.113-15.217.113-27.842-1.127-8.454-.902-15.443-2.029-21.305-3.156z"/>
  <path fill="#39424E" d="M741.34 174.18c-2.367-3.494-6.087-5.635-6.313-5.748-2.141-1.24-3.494-1.24-5.185-2.931-1.24-1.127-1.803-2.367-3.156-4.621-1.353-2.592-1.465-3.268-2.705-5.748-1.353-2.818-2.029-4.17-3.382-5.636-.789-.901-4.396-4.846-9.356-4.621-1.691.113-3.043.677-3.832 1.015-1.015-1.015-2.593-2.48-4.96-3.607-8.341-3.719-16.795 2.254-17.246 2.592-4.96 3.607-6.651 8.566-7.214 10.257-.339.902-.339 1.24-1.128 9.693-.676 6.988-1.014 10.482-2.254 12.849-1.127 2.029-2.367 3.381-4.509 5.636-3.832 4.057-5.185 3.945-6.763 6.762-.564 1.015-2.48 4.283-1.466 8.228 1.015 3.72 4.058 5.523 5.073 6.199 2.254 1.353 4.396 1.691 5.636 1.804a52.25 52.25 0 018.792-5.523c5.185-2.593 7.891-3.832 8.342-3.945.563-.113 2.029-.451 3.043-1.578 1.014-1.014 1.353-2.367 1.465-3.269 1.578 1.015 6.989 4.171 14.316 3.269 5.636-.676 9.469-3.494 11.047-4.734.112.789.451 2.592 1.916 4.283 2.593 2.931 6.425 2.818 6.876 2.705 1.24.113 4.96.226 8.679-2.141 3.495-2.255 4.848-5.523 5.411-6.65 2.367-5.072 1.353-10.708-1.127-14.54zm-13.527.564c-1.014 1.352-2.48 1.69-3.156 1.803.113 1.578.451 6.763-2.931 11.609-4.396 6.312-11.723 6.876-13.639 7.101-7.327.676-15.894-2.705-19.501-9.58-1.127-2.255-1.578-4.396-1.691-5.974-.676 0-2.141-.226-3.381-1.465-2.029-2.029-2.367-5.974-.451-7.665 1.014-.789 2.254-.901 3.156-.901l.451-3.156c4.058-.338 10.934-1.578 17.585-6.199a41.5 41.5 0 005.636-4.734c1.127 1.691 2.818 3.607 4.959 5.635 1.804 1.691 3.72 2.931 5.186 3.833.338.676.789 1.465 1.127 2.479.225.789.338 1.465.451 2.142 0 .451.563.563.789.225l1.691-2.705c.563-.113 1.69-.225 2.705.338 2.142 1.24 2.592 5.072 1.014 7.214z"/>
  <path stroke="#39424E" stroke-linecap="round" stroke-miterlimit="10" stroke-width=".75" d="M705.156 191.538c.339.225 1.015.45 1.804.45 1.24 0 2.142-.45 2.592-.676M698.168 183.986c.901.563 3.832 2.367 8.003 2.141a13.115 13.115 0 007.665-3.268M703.015 168.77c-1.691 5.185-.902 9.355 1.24 10.482.451.226 1.352.564 2.93-.113"/>
  <path fill="#39424E" d="M694.786 171.926a1.578 1.578 0 100-3.156 1.578 1.578 0 000 3.156zM713.836 171.25a1.579 1.579 0 10-.001-3.157 1.579 1.579 0 00.001 3.157z"/>
  <path stroke="#39424E" stroke-linecap="round" stroke-miterlimit="10" stroke-width=".75" d="M712.258 164.712c.113-.112.789-.789 1.803-.563.789.113 1.466.789 1.578 1.69M724.883 168.77c.338.113 1.352.338 1.916 1.24.789 1.24.338 2.93-.564 3.832-.563.564-1.24.789-1.578.902M685.994 171.588c-.451.112-1.353.225-1.916 1.014-1.015 1.24-.451 3.494.901 4.509.677.563 1.466.563 1.917.676M713.385 182.295c.338.451.676.902 1.015 1.466M698.619 183.197c-.339.451-.677.789-.902 1.24M692.644 195.821c1.128 1.127 6.313 5.973 14.541 6.199 8.68.225 14.316-4.734 15.33-5.749a43.79 43.79 0 0113.64 3.72c1.69.789 6.537 3.043 11.61 7.664 1.127 1.015 5.749 5.298 10.145 12.962 5.749 10.144 7.214 19.499 8.003 25.472.676 4.622 1.127 11.046.564 18.71.901 2.255 2.029 5.974 1.803 10.821-.113 3.719-1.014 6.65-1.803 8.678-.113.789-.338 2.029-1.128 3.269-1.803 2.705-5.072 3.156-5.523 3.156.451 3.832.789 7.551 1.24 11.384-6.425 1.578-13.301 2.817-20.515 3.944-29.871 4.171-56.361 1.578-77.102-2.592l2.029-15.892a19.808 19.808 0 01-7.439-4.283c-4.058-3.607-5.411-7.89-6.312-10.933-.564-2.029-.79-3.381-.677-4.847.113-2.028.789-3.494 1.24-4.508.226-13.751.676-20.175 1.127-21.64 1.691-7.101 4.058-17.583 12.738-27.727 5.861-6.876 12.286-10.933 15.555-12.849 4.058-2.48 8.004-3.945 10.934-4.959zM711.243 274.492c.564 11.046 1.24 22.092 1.804 33.025"/>
  <path stroke="#39424E" stroke-linecap="round" stroke-miterlimit="10" stroke-width=".745" d="M707.185 202.132c.902 16.118 1.804 32.123 2.706 48.24"/>
  <path fill="#39424E" d="M711.356 211.713a1.127 1.127 0 100-2.254 1.127 1.127 0 000 2.254zM713.16 229.972a1.128 1.128 0 10-.001-2.255 1.128 1.128 0 00.001 2.255zM714.287 249.133a1.128 1.128 0 10-.001-2.255 1.128 1.128 0 00.001 2.255zM716.541 284.862a1.127 1.127 0 100-2.254 1.127 1.127 0 000 2.254zM718.908 300.19a1.13 1.13 0 01-1.127 1.128c-.563 0-1.127-.564-1.127-1.128 0-.676.564-1.127 1.127-1.127a1.13 1.13 0 011.127 1.127zM702.676 201.456c-.901.676-2.367 1.803-3.607 3.607-1.69 2.479-2.029 4.846-2.141 6.086-1.578-.789-4.171-2.367-6.538-5.41-2.367-2.93-3.269-5.974-3.72-7.552l6.425-3.043c.564 1.015 1.578 2.254 3.156 3.494 2.48 2.029 5.073 2.593 6.425 2.818zM711.243 201.794c.902.564 2.255 1.691 3.382 3.381 1.578 2.255 1.916 4.509 2.142 5.636 1.465-.789 3.269-1.803 5.072-3.381 4.058-3.607 5.974-7.665 6.763-10.144l-5.748-3.382a14.935 14.935 0 01-4.397 4.96c-2.93 2.254-5.748 2.817-7.214 2.93z"/>
  <path stroke="#39424E" stroke-linecap="round" stroke-miterlimit="10" stroke-width=".75" d="M675.06 232.451c-.902 1.691-2.029 4.058-2.705 7.101-1.015 4.396-.564 8.003-.451 9.355.45 3.043 1.352 5.41 2.141 7.214M749.456 228.168c0 .677 0 1.466-.113 2.255l-.338 1.69a35.157 35.157 0 011.803 5.523c.79 2.818 1.466 5.748 1.466 9.017-.113 2.029-.451 5.748-2.931 10.031"/>
  <path stroke="#39424E" stroke-linecap="round" stroke-miterlimit="10" stroke-width=".75" d="M671.002 233.24c0 .339-.113 1.24.338 2.255.451 1.127 1.353 1.803 1.691 2.028M749.343 256.684a34.051 34.051 0 018.905 7.665c4.96 5.973 11.047 17.695 7.214 23.218-4.96 6.988-24.686 2.818-37.649-5.41-5.523-3.494-9.355-7.552-11.835-10.37a65.282 65.282 0 0121.98-12.398 56.68 56.68 0 0111.385-2.705z"/>
  <path stroke="#39424E" stroke-linecap="round" stroke-miterlimit="10" stroke-width=".75" d="M674.158 255.895c-1.465.451-3.494 1.353-5.749 2.705-1.691 1.015-5.749 3.494-9.017 8.454-2.142 3.268-5.073 7.664-3.946 11.834 1.917 7.665 15.443 9.468 17.021 9.693 10.596 1.353 19.276-3.043 27.73-7.326 6.425-3.268 12.286-7.213 20.402-12.736 4.847-3.269 8.68-6.087 14.992-8.453 4.847-1.804 9.018-2.706 11.836-3.156-.451-1.466-1.578-4.847-4.734-7.665-3.495-3.156-7.327-3.719-8.905-4.057-6.651-1.015-11.836 2.029-13.414 3.043a240.429 240.429 0 01-18.487 3.945c-9.806 1.916-19.162 3.043-27.729 3.719z"/>
  <path stroke="#39424E" stroke-linecap="round" stroke-miterlimit="10" stroke-width=".75" d="M672.355 250.823c-1.353 0-3.495.113-5.862.789-6.651 1.916-15.217 8.003-15.33 16.681-.113 4.734 2.367 8.566 4.171 10.708-.113-.902-.226-2.367 0-3.945.112-1.014.563-2.93 2.93-6.424 1.24-1.917 3.044-4.396 5.975-6.989a32.26 32.26 0 019.694-5.635c-.451-1.803-1.015-3.494-1.578-5.185z"/>
  <path stroke="#39424E" stroke-linecap="round" stroke-miterlimit="10" stroke-width=".75" d="M663.111 257.924a19.983 19.983 0 00-4.058 2.931c-2.818 2.705-4.17 5.86-4.847 7.664M751.372 251.95c1.691.451 4.058 1.353 6.538 3.044 1.465.901 4.396 2.93 6.763 6.537 2.818 4.283 3.269 8.34 3.495 10.595.563 5.41-.677 9.805-1.691 12.172-.338-3.268-1.353-9.806-5.749-16.455-3.945-5.974-8.68-9.468-11.498-11.159.789-1.578 1.466-3.156 2.142-4.734z"/>
  <path stroke="#39424E" stroke-linecap="round" stroke-miterlimit="10" stroke-width=".75" d="M754.528 256.459c1.24.676 2.593 1.465 3.945 2.705 3.044 2.592 4.735 5.41 5.637 7.326M665.366 281.819c.338.451 1.014 1.465 2.254 2.141 1.804.902 3.607.564 4.058.451M760.052 287.341c.338.226 1.127.564 2.254.451 1.127-.112 1.916-.563 2.254-.901M716.09 249.696c1.015.902 2.142 2.029 3.157 3.382 3.945 5.522 3.719 11.609 3.494 14.088 1.803-1.127 3.607-2.367 5.41-3.494-.112-1.803-.45-5.184-2.254-8.791-1.691-3.381-3.945-5.523-5.411-6.65-1.465.564-2.93 1.014-4.396 1.465zM706.284 329.495c.676.676 3.156 3.156 7.101 3.382a9.437 9.437 0 003.945-.564M675.398 392.5c.113.789.338 2.142 1.353 3.607.789 1.127 1.69 1.916 2.254 2.254M751.936 388.556c-.226.789-.564 2.028-1.353 3.381-.902 1.465-1.916 2.48-2.593 3.043M691.179 189.96c1.014.901 7.327 6.424 16.57 5.635 8.454-.676 13.527-6.086 14.541-7.213"/>
  <path fill="#39424E" d="M304.094 229.183c-.563-.789-1.24-1.465-1.803-2.029-1.916 2.254-9.131 9.58-19.275 10.482-.226 0-.451-.113-.451-.338 0-.225.112-.451.338-.451 9.807-.902 16.795-8.002 18.712-10.257.112-.112.338-.112.45-.112.339-.676.677-1.691.902-2.818.677-4.396-1.24-8.002-2.029-9.693-3.156-6.537-.338-7.326-3.607-18.372s-7.665-14.99-8.679-15.779c-3.044-2.593-5.749-3.382-6.425-3.494-4.284-1.128-7.891.112-9.582.676-1.24.451-3.269 1.127-5.41 2.818-2.255 1.803-3.607 4.057-4.509 6.086-2.48 5.185-2.142 8.228-4.171 23.106-.338 2.592-.676 5.297-.564 9.016.113 3.044.564 5.523.902 7.327.113 0 .338 0 .451.225 1.916 2.705 5.185 6.425 10.483 9.017 1.691.789 4.396 1.916 7.778 2.367.225 0 .338.225.338.451 0 .225-.225.338-.451.338h-.112c-3.382-.451-6.2-1.578-8.004-2.48-5.298-2.592-8.679-6.312-10.708-9.129-.902 1.352-1.804 3.156-2.593 5.41-.676 2.029-.902 3.832-1.014 5.297 1.24 1.353 12.174 12.624 28.631 10.82 13.414-1.465 21.079-10.594 22.657-12.511 0-1.577-.564-3.832-2.255-5.973zm-30.772 13.074c0 .226-.226.338-.451.338h-.113c-3.044-.789-5.862-1.916-8.454-3.606-2.142-1.353-4.171-2.931-5.862-4.734-.112-.113-.112-.451 0-.564.113-.112.451-.112.564 0 1.691 1.804 3.607 3.269 5.749 4.621 2.592 1.578 5.298 2.705 8.228 3.494.339 0 .451.226.339.451zm-1.579-28.177c-.112 0-.112-.113-.225-.226-.451-.451-.789-.901-1.578-2.141-.226-.226-.338-.564-.676-1.015-4.847-6.65-4.622-15.554-2.48-19.949.789-1.578 1.916-2.931 1.916-2.931.789-.902 3.043-3.381 6.876-4.283 5.185-1.24 9.243 1.465 10.032 1.916 4.847 3.269 5.862 8.792 6.313 11.722 1.127 6.875-.339 16.456-6.313 19.612-.338.112-1.803.901-3.832 1.014-2.255.225-4.284-.451-5.975-1.352a32.277 32.277 0 006.087 3.381c1.466.563 2.818 1.014 4.171 1.24 1.578-.113 4.509-.564 7.101-2.705a12.265 12.265 0 003.044-3.72c.113-.225.338-.338.564-.225.225.112.338.338.225.563-.789 1.578-1.916 2.818-3.156 3.945-1.691 1.465-3.495 2.142-5.073 2.593 5.298.676 9.807-.226 12.512-1.015.226-.113.451.113.564.338.113.226-.113.451-.338.564-2.029.563-5.185 1.24-8.905 1.24-3.269 0-6.989-.564-10.821-2.029-3.833-1.353-7.102-3.607-10.033-6.537z"/>
  <path fill="#C5D4D6" stroke="#39424E" stroke-linecap="round" stroke-miterlimit="10" stroke-width=".732" d="M583.981 389.119c3.945 26.825 7.891 53.65 11.949 80.475 2.592.113 5.41.226 8.228.339 2.593 0 5.073 0 7.44-.113 1.578-11.271 2.931-22.993 4.171-34.94 1.578-16.005 2.818-31.447 3.607-46.437-4.847.563-10.033.902-15.443 1.014-7.214.338-13.865.113-19.952-.338z"/>
  <path stroke="#39424E" stroke-linecap="round" stroke-miterlimit="10" stroke-width=".732" d="M601.678 389.57c.789 27.614 1.691 55.228 2.48 82.842"/>
  <path fill="#C5D4D6" stroke="#39424E" stroke-linecap="round" stroke-miterlimit="10" stroke-width=".732" d="M587.137 218.25a15.247 15.247 0 01-.225 4.396c-.564 2.93-1.804 4.959-2.593 6.199.789.789 4.735 4.395 10.822 4.508 5.861.113 9.806-3.043 10.708-3.832-.902-1.24-1.916-2.818-2.705-4.959a18.227 18.227 0 01-1.24-7.777c-1.466.789-3.945 1.803-7.327 2.141-3.269.226-5.862-.225-7.44-.676zM565.157 321.493c.338 4.283.225 7.777 0 10.144-.338 4.283-.902 5.635-.789 9.355.112 3.606.225 6.086 1.916 8.678 1.691 2.593 4.171 3.833 5.636 4.396-.564-10.933-1.127-21.978-1.691-32.911-1.691 0-3.381.225-5.072.338zM633.128 318.788c-.339 1.916-.564 4.959-.226 8.678.451 4.058 1.353 5.974 1.691 8.116.451 3.268-.338 8.34-6.989 15.441-.902-10.82-1.916-21.64-2.818-32.461 2.818 0 5.636.113 8.342.226z"/>
  <path stroke="#39424E" stroke-linecap="round" stroke-miterlimit="10" stroke-width=".732" d="M584.319 228.845c1.24 1.24 3.607 3.268 7.327 4.17 7.44 1.803 13.301-2.818 14.203-3.494 3.269 8.002 6.425 17.245 9.13 27.727a240.756 240.756 0 015.862 30.995c2.142 13.638 3.945 28.065 5.41 43.168 1.917 19.725 2.818 38.322 3.157 55.792-9.131 1.465-19.726 2.48-31.562 2.48-8.567 0-16.457-.564-23.446-1.353-1.691-21.415-2.818-39.223-3.494-51.959-.113-1.804-1.128-21.303-1.24-47.339-.113-19.837.338-33.024 7.326-47.676 2.48-5.523 5.298-9.694 7.327-12.511z"/>
  <path fill="#39424E" d="M617.685 193.115c.112-.225 1.127-1.803.563-3.719-.563-1.803-2.029-2.48-2.254-2.592 1.127-1.24 1.353-2.931.676-4.283-.902-1.804-2.818-2.142-2.93-2.142.789-1.127.789-2.592.225-3.719-.676-1.353-2.254-2.142-3.833-1.916 0-.113.789-1.578 0-2.705-.676-1.128-2.479-1.578-4.058-.789.451-1.578-.112-3.382-1.465-4.283-1.24-.902-2.931-.902-4.283-.113-.113-.226-.564-1.804-2.255-2.592-2.029-.902-3.832.45-3.945.45-.113-.112-1.353-1.465-3.156-1.127-1.466.226-2.255 1.465-2.367 1.578-.226-.113-2.48-1.352-4.847-.338-1.578.676-2.368 1.916-2.593 2.367-1.24-.676-2.818-.564-4.058.338-1.24.902-1.803 2.254-1.578 3.72-.338 0-2.48-.226-4.171 1.239-1.578 1.353-2.141 3.72-1.465 5.861-1.353-.112-2.818.451-3.607 1.578-.789 1.127-.902 2.705-.338 3.945-.338.113-2.255 1.127-2.818 3.381-.451 1.804.225 3.833 1.69 5.185-1.465 1.015-2.254 2.705-2.028 4.283.338 2.029 2.028 2.931 2.254 3.156-1.127 1.465-1.24 3.494-.338 5.072.789 1.353 2.367 2.029 3.945 2.029-1.127 1.465-1.014 3.381.225 4.621 1.015 1.014 2.818 1.24 4.171.451-.451 1.352-.113 2.705.902 3.607 1.127.901 2.931.901 4.171-.113.112.338.676 1.69 2.029 2.479 1.465.677 3.269.451 4.734-.676.113 0 .338.226.789.451 5.298 2.705 13.526 2.142 17.923-2.48.45-.45.901-1.014 1.352-1.803.338.113 1.578.225 2.931-.451 1.691-1.014 2.029-2.818 2.029-3.043.225 0 1.803 0 3.156-1.24 1.353-1.352 1.127-3.043 1.127-3.268.113 0 2.255-.339 3.157-2.48.789-2.029-.339-3.72-.451-3.832.338-.226 1.24-.902 1.578-2.029.676-2.254-.677-3.832-.789-4.058zm-19.276 24.909c-5.185 1.917-11.046.339-14.879-2.592-4.17-3.156-5.523-7.664-6.199-9.806-.902-3.156-1.015-5.861-.902-7.664.902.564 2.029.564 2.705 0 .564-.451.902-1.24.789-2.029 1.24.789 2.705.789 3.72.113 1.014-.676 1.24-1.916 1.353-2.142.112 0 1.69.902 3.156 0 1.352-.789 1.578-2.141 1.578-2.367.113.226 1.465 1.691 3.494 1.578 1.466-.112 2.367-.901 2.593-1.127.113.113.676 1.24 2.029 1.466 1.127.112 1.916-.564 2.029-.677 0 .113-.226 1.353.676 2.142.789.789 2.029.901 3.156.225-.112 1.353.677 2.593 1.804 3.043 1.24.564 2.367-.112 2.592-.225 1.804 9.017-2.705 17.47-9.694 20.062z"/>
  <path stroke="#39424E" stroke-linecap="round" stroke-miterlimit="10" stroke-width=".732" d="M589.504 205.175c.113.226 1.466 1.804 3.608 1.804 2.254 0 3.607-1.691 3.719-1.916M586.799 210.022c.902.564 3.833 2.142 7.665 1.691 2.818-.338 4.735-1.691 5.636-2.367M591.646 213.854c.338.226 1.127.564 2.142.564a5.088 5.088 0 002.705-.789"/>
  <path fill="#39424E" d="M583.868 200.78a1.353 1.353 0 100-2.707 1.353 1.353 0 000 2.707zM600.551 200.216a1.352 1.352 0 10.001-2.705 1.352 1.352 0 00-.001 2.705zM584.319 228.845c-2.592 1.24-5.298 2.592-8.116 4.17-1.24.676-2.479 1.353-3.607 2.142-3.607 2.141-6.312 5.522-7.552 9.58v.113c-1.916 6.65-3.156 37.194-2.593 78.897h7.891l.676 12.511c6.2-.338 12.512-.564 18.712-.902-2.705-17.808-4.734-38.096-5.073-60.638-.225-16.005.564-30.883 1.804-44.408-1.014-.676-1.24-.789-2.142-1.465zM604.384 227.379c1.24.789 2.93 2.029 5.298 3.269 4.396 2.367 7.89 3.381 8.566 3.72 9.244 3.381 11.949 35.278 12.4 39.786.789 8.904 2.029 23.219 4.17 46.212-3.269.225-6.425.451-9.694.789.451 4.395.902 8.791 1.353 13.074h-14.203c-.676-19.95-1.803-40.801-3.607-62.216a1054.05 1054.05 0 00-4.283-44.634z"/>
  <path stroke="#39424E" stroke-linecap="round" stroke-miterlimit="10" stroke-width=".732" d="M604.158 469.933c2.48 0 4.96 0 7.44-.113.338 1.24 1.127 3.381 2.592 5.635 2.931 4.396 5.636 5.185 7.891 8.792.789 1.352 1.691 3.381 2.029 6.312.113 1.24-.564 2.367-1.691 2.705a26.796 26.796 0 01-5.861 1.24c-4.622.45-8.567-.113-11.16-.789-.676-.902-1.127-1.466-1.803-2.367l.563-21.415z"/>
  <path stroke="#39424E" stroke-linecap="round" stroke-miterlimit="10" stroke-width=".732" d="M595.93 469.594c-1.804 2.593-3.382 4.734-4.284 6.087-2.705 3.945-3.607 5.297-5.298 7.101-1.014 1.127-2.029 2.141-2.931 2.93-.901.789-1.465 2.029-1.465 3.269v1.803c0 1.465.902 2.818 2.367 3.156 1.691.451 3.72.789 5.862 1.014 4.847.339 9.017-.338 11.835-1.127a32.024 32.024 0 011.579-2.029c.225-7.213.338-14.426.563-21.753-2.818-.225-5.523-.338-8.228-.451z"/>
  <path stroke="#39424E" stroke-linecap="round" stroke-miterlimit="10" stroke-width=".732" d="M582.967 487.29c1.578.789 3.494 1.691 5.861 2.254 4.96 1.24 9.243.902 11.836.338M623.659 488.304c-1.353.677-2.931 1.353-4.847 1.804-6.538 1.578-12.174-.338-14.767-1.465M584.545 232.339c1.24 1.014 4.734 3.607 9.694 3.945 7.552.563 12.512-4.283 13.414-5.072"/>
  <path stroke="#E7EEEF" stroke-linecap="round" stroke-miterlimit="10" stroke-width=".732" d="M569.215 323.747c-.338-9.468-.113-13.976 0-24.007.112-15.104.676-29.53 1.69-43.168M625.913 321.042c-1.803-16.907-2.93-26.487-5.636-44.295a6719.913 6719.913 0 00-3.043-18.823"/>
  <path stroke="#39424E" stroke-linecap="round" stroke-miterlimit="10" stroke-width=".808" d="M630.648 336.821c.225 1.466.338 4.058-.789 7.101-.677 1.804-1.578 3.269-2.255 4.17M567.637 343.246c-.113.789-.113 2.592.789 4.508 1.014 2.255 2.705 3.382 3.381 3.72"/>
  <path stroke="#39424E" stroke-miterlimit="10" stroke-width=".782" d="M69.409 475.455c.338 3.494.676 6.876.902 10.37 2.705.113 5.523.112 8.228.225.113-3.719.113-7.326.226-11.045-3.044.112-6.2.338-9.356.45zM78.877 475.005c-.112 3.719-.112 7.326-.225 11.045h9.243c.451-3.832.902-7.551 1.353-11.384-3.607.113-6.989.226-10.37.339z"/>
  <path fill="#39424E" d="M78.652 483.571c-2.818 0-5.749-.113-8.567-.113a45.966 45.966 0 01-3.494 1.803c-6.425 3.156-9.356 3.382-10.709 5.974-.45.789-.901 2.141-.563 4.17 7.665-.225 15.33-.451 22.882-.789.113-3.606.338-7.326.451-11.045z"/>
  <path fill="#39424E" d="M78.088 483.571c2.819 0 5.75-.113 8.567-.113a45.96 45.96 0 003.495 1.803c6.425 3.156 9.355 3.382 10.708 5.974.451.789.902 2.141.564 4.17-7.665-.225-15.33-.451-22.883-.789-.112-3.606-.225-7.326-.45-11.045zM68.394 199.765c.564-1.916 2.142-5.635 5.75-8.228 6.988-4.959 17.584-2.705 23.332 3.044 5.975 6.086 5.524 14.99 5.411 15.779-.338 4.734-2.254 6.425-2.029 12.624.113 2.705.226 5.635 1.916 8.678 2.368 4.283 5.073 3.833 7.553 7.439 2.48 3.607 4.283 10.482.563 15.216-3.043 3.945-9.017 5.41-14.653 3.382-4.847-3.945-9.807-8.003-14.654-11.948-.338-1.465-.79-2.93-1.127-4.283 1.803-.789 3.832-1.916 5.748-3.832 6.65-6.875 4.96-17.019 4.622-18.484-7.665-6.425-14.992-12.962-22.432-19.387z"/>
  <path stroke="#39424E" stroke-miterlimit="10" stroke-width=".782" d="M48.894 335.694l52.753 1.353c-.225 7.101-.451 14.201-.789 21.415-1.69 40.238-5.185 78.897-9.92 115.866-7.777.338-15.555.789-23.22 1.127-4.058-19.048-7.101-35.391-9.469-48.352-3.381-19.161-5.185-29.531-6.763-43.619-2.029-18.936-2.592-35.279-2.592-47.79z"/>
  <path stroke="#39424E" stroke-linecap="round" stroke-miterlimit="10" stroke-width=".782" d="M70.31 347.754c.677.339 2.03.902 3.72.902 1.579.113 2.819-.338 3.608-.563"/>
  <path stroke="#39424E" stroke-miterlimit="10" stroke-width=".782" d="M74.03 348.656c1.579 42.041 3.157 84.195 4.735 126.236"/>
  <path stroke="#39424E" stroke-linecap="round" stroke-miterlimit="10" stroke-width=".782" d="M66.478 240.341c0 .676 0 1.465-.225 2.48-.338 1.24-.902 2.254-1.24 2.818 2.93 2.705 5.861 5.41 8.792 8.002 2.593-2.592 5.072-5.297 7.665-7.89-.225-.338-.789-1.127-.902-2.254a4.528 4.528 0 01.451-2.818c-1.352.677-4.17 1.804-8.003 1.578-3.156-.225-5.298-1.24-6.538-1.916z"/>
  <path fill="#39424E" d="M86.092 256.572H61.857v6.086h24.235v-6.086zM85.754 268.97H61.519v6.086h24.235v-6.086zM85.754 281.481H61.519v6.086h24.235v-6.086zM87.895 303.572H60.278v6.086h27.617v-6.086zM87.444 317.21H59.828v6.086h27.616v-6.086zM87.444 330.622H59.828v5.749h27.616v-5.749z"/>
  <path stroke="#39424E" stroke-miterlimit="10" stroke-width=".808" d="M35.029 318.562c-.226 3.382-.564 6.199-.79 8.228-.45 3.832-.788 4.734-.788 7.101 0 1.578.113 4.621 1.578 7.89 1.353 3.043 4.283 7.1 5.749 6.537 2.367-.789-.79-13.638.901-14.089 1.353-.338 3.946 7.777 5.298 7.439 1.015-.225 1.24-5.636-.789-22.091"/>
  <path stroke="#39424E" stroke-miterlimit="10" stroke-width=".782" d="M55.431 220.053c-.788 8.003 3.608 15.78 9.695 19.499 1.352.789 4.508 2.705 8.904 2.705 5.75 0 9.695-3.268 10.709-4.17 8.341-6.988 6.312-19.612 6.2-20.288-.451-1.691-2.48-7.89-8.793-11.384-6.988-3.945-16.457-2.817-21.98 2.818-3.945 4.058-4.509 9.13-4.734 10.82z"/>
  <path stroke="#39424E" stroke-miterlimit="10" stroke-width=".782" d="M55.431 221.631c-.338.113-2.028.789-2.705 2.48-.789 2.029.226 4.396 2.03 5.41.901.564 1.915.564 2.48.564a22.303 22.303 0 01-1.466-5.185c-.339-1.24-.451-2.367-.339-3.269z"/>
  <path fill="#39424E" d="M53.74 222.646c-.45-2.029-1.014-5.636.226-9.806.226-.789 3.156-11.046 13.301-13.976 8.229-2.367 17.247 1.127 21.755 8.228 3.72 5.973 2.706 12.398 2.368 14.088-2.48.226-5.75.226-9.356-.563-9.018-1.916-14.654-7.552-16.909-10.144-.225.789-.676 2.367-.45 4.283.338 2.48 1.69 4.17 2.254 4.846-.902-.338-2.705-1.127-4.283-2.93-1.127-1.353-1.578-2.705-1.804-3.494a11.142 11.142 0 00-3.381 3.269 11.427 11.427 0 00-2.03 5.522c-.563 0-1.127.339-1.69.677z"/>
  <path stroke="#39424E" stroke-linecap="round" stroke-miterlimit="10" stroke-width=".782" d="M67.267 233.917c.677.563 2.367 2.028 5.073 2.254 3.832.338 6.425-1.803 6.876-2.254"/>
  <path fill="#39424E" d="M62.082 223.547a1.127 1.127 0 10.001-2.254 1.127 1.127 0 000 2.254zM80.681 223.547a1.127 1.127 0 10.001-2.254 1.127 1.127 0 000 2.254z"/>
  <path stroke="#39424E" stroke-linecap="round" stroke-miterlimit="10" stroke-width=".782" d="M60.391 218.137h2.367M70.874 223.66c-.225.676-.563 1.803-.563 3.156 0 1.578-.113 3.381 1.014 4.17.226.113 1.015.676 2.48.338M71.889 237.862c.45.112 1.014.225 1.578.225.564 0 1.014 0 1.465-.113"/>
  <path fill="#39424E" d="M58.588 248.682c-3.382 1.803-4.735 2.029-7.327 3.719-2.593 1.804-4.17 3.607-4.847 4.509-3.72 4.508-5.073 9.355-5.636 11.834-3.945 15.892-5.974 23.895-6.989 36.857-.338 4.733-.789 11.158-.789 18.935 3.269 0 6.65-.113 9.92-.113a304.875 304.875 0 012.028-24.909 271.201 271.201 0 013.044-19.161c0-.225.338-.45.564-.45.225 0 .45.338.45.563a278.704 278.704 0 00-3.043 19.048c-1.24 9.806-1.916 19.725-2.142 29.53.338 3.044.564 6.087.79 9.13.225 3.381.45 6.537.563 9.806l15.555.338c1.353-34.715 2.818-69.317 4.171-104.032-2.48 2.254-4.734 3.607-6.312 4.396z"/>
  <path fill="#fff" stroke="#39424E" stroke-miterlimit="10" stroke-width=".75" d="M78.427 294.668a55.553 55.553 0 00-6.764-2.142c-5.297-1.352-7.214-1.24-8.003-1.127-1.127.113-5.185.676-5.861 3.043-.226.789 0 1.465.225 2.029-.225.225-1.578 1.353-1.69 3.269-.113 1.239.337 2.254.563 2.592-.79 1.353-.902 2.254-.564 2.818 1.015 1.916 6.65 1.127 11.836-.113 1.127.225 2.48.451 4.058.564 1.803.112 3.494.112 4.96 0 .338-3.607.789-7.214 1.24-10.933z"/>
  <path fill="#39424E" d="M107.509 273.14c-1.804-4.959-5.298-14.314-11.949-18.485-.676-.45-2.93-1.803-6.989-4.283-3.043-1.916-5.523-3.494-7.214-4.508-.225 13.976-.112 28.065.226 42.379 0 1.691.112 3.382.112 4.959l17.247-.112-4.058-16.118c-.113-.225.113-.451.338-.563.226-.113.451.112.564.338l4.396 17.244h-19.84c-.9.113-1.803.226-2.704.226-.113 3.494-.226 6.875-.339 10.369 1.353 0 2.706.113 4.058.113 1.128 13.525 2.142 27.05 3.27 40.576 1.803.676 4.057 1.24 6.537 1.69 4.847.789 9.018.451 12.061 0 .338-7.1.564-14.427.564-22.204 0-5.748-.113-11.383-.338-16.793 1.578.225 3.832.338 5.749-.789 8.454-5.411-1.015-32.123-1.691-34.039z"/>
  <path fill="#E7EEEF" d="M90.713 222.871c.451 0 1.353.113 2.03.676 1.352 1.127 1.24 3.494.337 4.96-1.352 2.141-4.058 2.141-4.283 2.141.676-2.592 1.24-5.185 1.916-7.777z"/>
  <path fill="#fff" d="M106.156 308.982c-7.327 0-14.541-.676-21.642-2.029-3.946-.789-7.89-1.691-11.723-2.818l.225-.901c3.832 1.127 7.778 2.028 11.61 2.817 9.018 1.691 18.261 2.255 27.504 1.804v.902c-1.916.225-3.945.225-5.974.225z"/>
  <path stroke="#39424E" stroke-miterlimit="10" stroke-width=".782" d="M90.6 221.068a28.574 28.574 0 01-.112 5.297c-.338 2.592-.902 4.734-1.578 6.425"/>
  <path stroke="#E7EEEF" stroke-linecap="round" stroke-miterlimit="10" stroke-width=".782" d="M65.802 198.526c1.69-.339 4.17-.677 6.989-.451 1.803.112 5.185.451 8.792 2.254 7.552 3.945 9.468 11.947 9.581 12.511.79 3.381.451 6.199.113 7.89"/>
  <path stroke="#E7EEEF" stroke-miterlimit="10" stroke-width=".75" d="M78.54 493.94c0-4.17.112-6.199.112-10.369"/>
  <path stroke="#39424E" stroke-linecap="round" stroke-miterlimit="10" stroke-width=".808" d="M37.283 337.61c.226 1.128.451 2.367.902 3.72a46.705 46.705 0 002.593 6.875"/>
  <path fill="#C5D4D6" stroke="#39424E" stroke-linecap="round" stroke-miterlimit="10" stroke-width=".75" d="M162.178 153.892c-1.803 2.931-2.029 8.341-2.029 10.595-.112 2.254.113 4.17.339 5.523-1.804.113-2.706.902-3.044 1.127-1.916 2.029-1.127 6.424 1.466 8.341 1.014.788 2.254 1.014 2.93 1.014.226 1.465.789 4.17 2.818 6.988 1.24 1.691 2.593 2.818 3.72 3.494.113 1.24.226 2.818 0 4.621-.338 2.48-1.014 4.396-1.691 5.748.338.677 3.157 6.763 9.92 8.228 5.523 1.127 9.807-1.578 10.596-2.141 2.705-1.804 4.058-4.171 4.734-5.298-.789-.789-1.804-1.916-2.593-3.494-2.029-3.945-1.352-7.777-1.127-9.242a13.494 13.494 0 002.367-2.592c2.931-3.945 2.818-8.454 2.706-10.257.563-.113 1.239-.338 2.029-.789 2.479-1.916 2.93-6.65.563-8.791-.338-.338-1.353-1.127-3.382-1.127.677-2.255 1.353-6.087-.45-9.581-4.847-9.468-25.25-9.693-29.872-2.367z"/>
  <path fill="#C5D4D6" stroke="#39424E" stroke-linecap="round" stroke-miterlimit="10" stroke-width=".732" d="M139.972 379.313c.113 5.861.339 23.895 1.466 41.365.563 9.468.902 14.202 1.691 19.95 1.127 9.242 1.352 12.398 1.916 18.823.113.789.338 4.057.113 8.227-.113 2.367-.451 5.411-.902 7.214-1.578 6.763-8.116 11.384-11.723 13.525l8.116 1.015c6.65-.677 13.301-1.466 20.064-2.142-1.24-8.115-1.578-14.99-1.691-20.175-.112-9.017.564-16.118 1.24-21.528 1.127-10.595 2.142-12.06 2.818-19.048.564-5.974.677-14.652-1.24-25.473l4.058-36.856c-8.792 4.959-17.359 10.031-25.926 15.103zM180.89 388.556c-.451 8.566 0 15.441.451 20.175.789 7.889 1.916 11.271 3.72 26.261.563 4.96.902 7.439 1.127 10.933.226 3.832.113 6.199.226 17.132 0 9.13.112 9.693.45 10.82 2.48 7.665 10.822 13.638 13.978 11.835.789-.451 2.818-2.254.789-12.285-.226-3.044-.564-7.665-.676-13.3-.113-7.89.45-12.511 1.127-20.964a603.39 603.39 0 001.465-28.291c.226-7.551.226-16.23 0-26.036-7.665 1.465-15.217 2.592-22.657 3.72z"/>
  <path fill="#39424E" d="M161.84 145.89c0 1.127-1.691 1.465-3.043 3.381-.789 1.127-1.127 2.142-1.466 3.494-.789 3.156-.45 5.748-.225 7.214.338 2.592.564 6.311.338 11.271.226-.226.564-.451 1.015-.677.789-.45 1.578-.45 2.029-.45.338.676.789 1.465 1.127 2.141.225-3.494.225-6.199.225-8.115 0-2.592-.225-3.945.677-5.523 1.014-1.803 2.705-2.705 3.945-3.156-.113 1.465-.338 2.931-.451 4.396a18.471 18.471 0 013.269-2.254c2.931-1.804 5.636-2.818 7.89-3.382a15.12 15.12 0 01-1.465 2.367c-.789 1.015-1.578 1.804-2.254 2.254a11.57 11.57 0 003.832-.225c3.607-.902 5.749-3.381 6.538-4.283.225.676.338 1.803.225 3.043-.112.902-.338 1.691-.45 2.254.789-.225 2.028-.789 2.93-1.916 1.466-1.578 1.466-3.043 2.142-3.043 1.24-.113 2.367 4.509 2.48 4.847a27.88 27.88 0 01.676 8.228c.113-.789.789-1.466 1.466-1.691.901-.225 1.578.338 1.69.338.339-2.48.564-4.508.564-6.086.225-4.171.225-7.101-1.015-10.482-.563-1.466-1.127-3.156-2.705-4.734-2.592-2.593-5.749-3.156-7.101-3.269-.451-.676-1.24-1.465-2.255-2.141-1.465-1.015-2.93-1.466-3.945-1.691.113.902.225 1.691.338 2.592-.789-.225-2.029-.45-3.494-.563-2.029-.113-3.72.113-5.636.563-3.833.902-7.327 2.142-9.92 3.269 1.578.789 1.917 1.465 2.029 2.029zM158.008 178.688c.338 1.015.676 2.367.789 3.945.225 2.367-.113 4.396-.338 5.749.563-.789 1.24-1.691 1.803-2.48.451 2.141.902 4.396 1.24 6.537.676-.789 1.466-1.578 2.142-2.367.676 1.015 1.465 2.029 2.142 3.156.789-.789 1.578-1.465 2.367-2.254-1.128-.789-3.157-2.367-4.735-5.185-1.127-2.029-1.578-4.057-1.69-5.297-.451 0-1.24-.113-2.029-.451-.789-.451-1.353-1.014-1.691-1.353zM195.882 175.307c.676 2.705 1.465 5.298 2.142 8.003-.564-.113-1.127-.113-1.691-.226-.225 1.691-.564 3.269-.789 4.96-.676-.564-1.353-1.128-2.142-1.691-.563 1.352-1.127 2.592-1.691 3.945-.789-.564-1.578-1.24-2.479-1.804.901-.901 2.141-2.479 3.043-4.621 1.24-3.043 1.127-5.635 1.015-7.101a30.166 30.166 0 012.592-1.465zM144.932 314.617a313.368 313.368 0 00-3.156 21.303c-.451 3.945-.902 8.678-1.804 23.218a1144.28 1144.28 0 00-1.465 27.614c3.043 1.578 7.552 3.382 13.301 4.283 5.411.902 10.032.564 13.301.113.338-3.832.789-7.89 1.353-11.947a214.008 214.008 0 015.974-28.065c1.015 3.945 1.916 8.115 2.818 12.398a219.616 219.616 0 013.72 28.628c2.029 1.127 5.298 2.593 9.356 3.043 8.228 1.015 14.428-2.366 16.795-3.719 1.015-5.974 1.804-12.285 2.48-18.823 1.916-18.371 2.367-35.503 1.804-50.945-6.989 2.48-22.432 6.763-41.031 2.593-10.37-2.142-18.261-6.312-23.446-9.694z"/>
  <path stroke="#39424E" stroke-linecap="round" stroke-miterlimit="10" stroke-width=".732" d="M166.575 201.456c-1.466.676-3.833 1.803-6.651 2.931-3.494 1.465-4.509 1.916-5.861 2.479 0 0-4.509 2.142-9.356 6.537-5.073 4.734-11.949 20.626-11.611 42.38 5.186-.339 10.258-.677 15.443-1.015-.113 3.72-.451 9.468-1.014 16.569-.677 8.34-1.353 12.736-2.48 23.218-.451 4.396-1.127 10.82-1.804 18.71a68.808 68.808 0 009.807 5.974c22.544 11.045 45.878 5.748 56.361 2.592.225-3.72.563-9.017.901-15.441.789-13.3 1.128-20.288 1.128-28.629 0-6.312-.226-15.103-1.128-25.811l15.556-2.367c-.902-4.508-3.494-17.582-8.229-28.741-1.465-3.494-3.269-7.1-6.763-10.369-2.48-2.254-4.847-3.494-6.876-4.509-2.705-1.352-6.763-3.043-12.174-3.944-.225.45-3.72 6.988-10.934 7.777-5.861.676-11.723-2.705-14.315-8.341z"/>
  <path fill="#39424E" d="M186.414 468.355c2.254 4.17 6.425 6.537 10.144 5.861 2.368-.451 3.946-1.917 4.735-2.706 1.127 3.044 2.705 7.101 4.283 12.061 5.636 17.357 4.509 20.287 3.156 21.527-1.014.902-2.367.902-3.381.789-6.876-.112-11.723-9.355-15.105-15.892-5.636-10.707-4.847-16.907-4.622-18.71.226-1.24.564-2.254.79-2.93z"/>
  <path stroke="#39424E" stroke-linecap="round" stroke-miterlimit="10" stroke-width=".732" d="M168.265 190.861c.789.676 2.029 1.691 3.72 2.48.677.338 3.495 1.578 7.214 1.127 5.524-.676 8.68-4.621 9.356-5.41M175.141 177.561c.113.226.677.789 1.578 1.015.902.113 1.917-.338 2.48-1.127"/>
  <path fill="#39424E" d="M167.702 170.912a1.24 1.24 0 100-2.48 1.24 1.24 0 000 2.48zM184.272 170.461a1.24 1.24 0 100-2.48 1.24 1.24 0 000 2.48z"/>
  <path stroke="#39424E" stroke-linecap="round" stroke-miterlimit="10" stroke-width=".732" d="M168.942 164.825c-.226-.563-.564-.902-1.127-1.014-.677-.113-1.353.338-1.579 1.014M185.512 164.374c-.226-.563-.564-.901-1.127-1.014-.677-.113-1.353.338-1.579 1.014"/>
  <path fill="#39424E" d="M170.633 181.394c1.239.676 3.607 1.69 6.876 1.69 3.719 0 6.537-1.352 7.777-2.141-.563 3.381-3.269 5.973-6.425 6.312-3.72.45-7.327-2.029-8.228-5.861z"/>
  <path stroke="#39424E" stroke-linecap="round" stroke-miterlimit="10" stroke-width=".732" d="M176.945 189.396c.338.113.789.225 1.353.113.676 0 1.127-.226 1.465-.338"/>
  <path stroke="#39424E" stroke-linecap="round" stroke-miterlimit="10" stroke-width=".696" d="M192.5 168.319c1.015-.563 1.579-.451 1.804-.338 1.353.563 1.916 3.269 1.015 4.959-.564 1.127-1.579 1.691-1.917 1.804"/>
  <path stroke="#39424E" stroke-linecap="round" stroke-miterlimit="10" stroke-width=".678" d="M160.6 171.926c-.338 0-1.24.225-1.803 1.014-.902 1.353-.338 3.607.789 4.734.902 1.015 2.142 1.015 2.48 1.015"/>
  <path stroke="#39424E" stroke-linecap="round" stroke-miterlimit="10" stroke-width=".732" d="M147.299 240.003a81.742 81.742 0 011.353 14.878c0 3.832-.226 7.439-.564 10.595M209.409 241.806c.563 6.763 1.127 13.413 1.578 20.176"/>
  <path fill="#39424E" d="M159.36 476.132c-.676.451-3.607 2.705-7.777 2.367-4.284-.339-6.876-3.044-7.44-3.607-3.494 3.381-9.018 8.228-16.57 13.3-8.229 5.41-14.316 8.002-13.865 10.369.451 2.254 6.538 3.156 10.822 3.043 13.413-.225 16.795-9.467 29.533-9.129 3.156.112 5.185.676 6.876-.789 3.607-3.043-.564-13.3-1.579-15.554z"/>
  <path fill="#C5D4D6" stroke="#39424E" stroke-linecap="round" stroke-miterlimit="10" stroke-width=".732" d="M135.351 255.783c.113 9.58.113 17.244.113 22.542-.113 23.105-.113 34.602-.113 34.827-.789 3.607-2.593 10.82.338 17.808.676 1.804 1.916 4.734 4.396 5.072 0 0 1.353.226 1.804-.225.451-.451 3.156-21.302 3.156-21.302l-1.691-1.24s3.833-35.391 4.171-39.561c.338-4.171 1.24-18.936 1.24-18.936l-13.414 1.015zM222.033 250.26c.113 11.722 0 21.415-.225 28.741-.338 10.144-.789 16.906-1.015 18.823-.676 8.566-.789 7.213-.901 9.805-.113 13.526 4.847 17.471 2.141 25.698-1.465 4.509-4.621 8.228-5.861 7.777-.789-.225-.676-2.254-1.127-8.115-.451-4.846-.789-9.58-1.578-9.58-1.128-.113-2.48 10.144-3.495 10.144-.563 0-.789-3.269-.789-11.497 0 0 2.48-36.067 2.029-48.014-.451-11.948-1.127-21.866-1.127-21.866l11.948-1.916z"/>
  <path stroke="#39424E" stroke-linecap="round" stroke-miterlimit="10" stroke-width=".732" d="M218.877 328.706c.338 1.466.789 4.396-.338 7.777-.676 2.029-1.578 3.494-2.367 4.509M137.831 323.183c-.113 1.353 0 2.818.112 4.396a28.74 28.74 0 002.142 8.453M141.663 322.62c.338 4.283.564 8.679.902 12.962"/>
  <path stroke="#39424E" stroke-linecap="round" stroke-miterlimit="10" stroke-width=".674" d="M467.653 474.103c.113.902.225 2.367-.113 4.057-.451 2.142-1.465 3.607-2.142 4.509 6.651-.451 13.414-1.014 20.065-1.465.113-3.044.225-5.974.225-9.017a99.2 99.2 0 01-11.385 1.578 67.504 67.504 0 01-6.65.338z"/>
  <path fill="#39424E" d="M485.463 479.626c-6.425.338-12.963.676-19.388 1.014-.226.451-.564 1.353-1.353 2.142-3.494 3.944-9.243 2.367-13.865 4.959-1.465.902-3.268 2.48-4.621 5.635-.564 1.24.451 2.593 1.803 2.593 12.963-.226 26.039-.451 39.002-.564.113-2.592 0-5.523-.338-8.679a75.773 75.773 0 00-1.24-7.1z"/>
  <path stroke="#39424E" stroke-linecap="round" stroke-miterlimit="10" stroke-width=".674" d="M531.566 472.976c-.226 1.014-.451 2.705 0 4.846.451 2.142 1.465 3.72 2.141 4.509-6.65-.451-13.413-1.015-20.064-1.465-.113-2.48-.113-5.072-.225-7.552 2.592.113 5.298.225 8.228.225 3.607-.225 6.876-.338 9.92-.563z"/>
  <path fill="#39424E" d="M513.756 479.062c6.425.338 12.963.676 19.388 1.015.225.45.563 1.352 1.352 2.141 3.495 3.945 9.244 2.367 13.865 4.959 1.24.789 2.818 2.029 4.058 4.283.902 1.691-.338 3.833-2.367 3.833-12.625-.226-25.25-.339-37.874-.564-.113-2.592 0-5.523.338-8.679a42.797 42.797 0 011.24-6.988z"/>
  <path stroke="#39424E" stroke-miterlimit="10" stroke-width=".72" d="M444.432 364.097c0 1.128-.112 3.044-.338 5.298-.338 2.705-.563 3.607-.902 6.199-.338 3.381-.563 5.185-.338 6.312.113.789 1.015 5.184 5.185 7.664 2.593 1.465 5.186 1.578 6.425 1.465.113-3.381.226-6.762.451-10.144.338-5.523.677-10.933 1.24-16.117a32.601 32.601 0 01-7.439 0c-1.578-.113-3.044-.338-4.284-.677zM545.43 360.603c.113 1.353.226 3.494.677 5.974.676 4.058 1.465 4.959 1.803 8.228.339 3.043.564 5.072-.338 7.552-1.24 3.381-4.058 5.522-6.087 6.649-.902-6.762-2.141-13.863-3.945-21.189-.338-1.465-.789-3.043-1.127-4.509 1.352-.112 2.931-.45 4.734-.901 1.691-.564 3.156-1.24 4.283-1.804z"/>
  <path stroke="#39424E" stroke-linecap="round" stroke-miterlimit="10" stroke-width=".674" d="M481.292 264.236c-.225.451-.451.902-.902 1.352-1.24 1.578-2.818 2.48-3.832 2.818 1.352 1.465 7.552 8.341 17.246 8.792.902 0 4.734.225 9.243-1.353 5.749-2.029 9.243-5.523 10.709-7.326-.902-.451-2.367-1.465-3.495-3.156a17.344 17.344 0 01-1.014-2.142c-.902.902-6.087 5.861-14.428 5.861-7.44.113-12.4-3.832-13.527-4.846zM456.606 361.054c5.298 1.127 10.821 2.142 16.796 2.818 24.347 2.93 45.652.338 61.996-3.381 1.466 4.508 3.157 10.594 4.509 17.921.338 1.69 1.353 7.664 1.916 18.259.789 12.398.451 22.316.226 27.388-.564 11.271-2.142 27.953-6.763 48.466-4.509.563-9.582.902-14.992.789-2.931 0-5.749-.113-8.454-.338-.564-13.976-1.804-24.797-2.818-32.235-.564-4.171-1.466-9.13-2.48-17.696-1.015-7.89-1.466-12.398-1.917-17.357-.789-6.988-2.029-17.132-4.17-29.643-2.255 0-4.509-.113-6.764-.113-.789 6.763-1.916 17.132-2.367 29.981-.338 9.13-.225 15.103-.225 24.571 0 9.58 0 23.444-.564 40.576-3.156.901-6.876 1.803-11.046 2.367a68.013 68.013 0 01-17.247.112c-1.465-8.678-3.269-20.851-4.959-35.616-1.128-9.468-2.142-17.921-2.593-26.938-.902-11.947-1.015-28.967 1.916-49.931z"/>
  <path stroke="#39424E" stroke-miterlimit="10" stroke-width=".72" d="M476.558 268.519c-2.029.451-4.96 1.127-8.342 2.592-2.367 1.015-11.046 5.072-17.02 14.202-2.48 3.719-3.72 7.213-4.622 10.369-5.298 18.597-6.312 62.667-6.425 67.063 1.803.789 4.283 1.578 7.327 2.029 3.494.563 6.538.338 8.679.112.113-1.239.338-2.592.451-3.832 9.694 2.142 22.094 3.945 36.522 4.058a184.106 184.106 0 0042.27-4.621c.113.901.113 1.916.226 2.817a30.555 30.555 0 004.847-.789c3.043-.789 5.41-2.141 6.988-3.155-.112-13.977-.901-25.924-1.803-34.941 0 0-3.382-34.715-14.654-46.324-3.156-3.268-6.989-5.523-6.989-5.523-3.832-2.254-7.552-3.494-10.144-4.057-.79.901-7.102 8.566-18.149 8.679-11.835.338-18.486-7.89-19.162-8.679z"/>
  <path stroke="#39424E" stroke-linecap="round" stroke-miterlimit="10" stroke-width=".744" d="M458.41 418.424c.112 1.24.225 2.818.901 4.734a26.808 26.808 0 002.142 4.395M537.089 413.915c-.113 1.24-.225 2.818-.902 4.734a26.707 26.707 0 01-2.141 4.396"/>
  <path stroke="#39424E" stroke-linecap="round" stroke-miterlimit="10" stroke-width=".674" d="M474.754 239.44c-3.381 8.791-1.127 18.371 5.749 24.232.451.338 9.92 8.228 21.079 4.509 8.905-2.931 12.963-11.271 13.526-17.809.564-6.086-2.028-10.82-3.381-12.736-7.665-8.453-19.05-11.384-27.391-7.777-5.749 2.48-8.567 7.439-9.582 9.581z"/>
  <path stroke="#39424E" stroke-linecap="round" stroke-miterlimit="10" stroke-width=".674" d="M514.545 243.835c1.803.226 3.381 1.127 3.945 2.593.789 2.028-.564 4.733-3.607 5.635.225-1.352.338-3.043.225-4.959a21.66 21.66 0 00-.563-3.269zM473.289 244.85c-1.804.338-3.269 1.465-3.607 2.93-.564 2.029 1.127 4.621 4.171 5.297-.339-1.352-.677-2.93-.79-4.959 0-1.24.113-2.367.226-3.268z"/>
  <path stroke="#39424E" stroke-linecap="round" stroke-miterlimit="10" stroke-width=".744" d="M486.59 260.742c1.127.676 3.833 2.029 7.44 2.029 5.298.112 8.905-2.705 9.806-3.494"/>
  <path fill="#39424E" d="M480.616 229.408a28.676 28.676 0 007.101 4.509c8.68 3.945 17.134 2.705 20.515 1.916.113.789.339 2.367 1.579 4.057 1.578 2.142 3.832 3.044 4.621 3.269.113-1.916.226-6.086-2.367-10.257-3.945-6.424-12.061-9.242-19.05-8.678-6.425.563-10.708 3.719-12.399 5.184z"/>
  <path fill="#39424E" d="M480.616 229.408c1.127.902 2.254 1.691 3.494 2.593-.789 1.014-1.578 1.916-2.367 2.93a3875.172 3875.172 0 00-8.341 10.031c-.339-.789-1.691-4.846.451-9.242 2.028-4.283 5.861-5.974 6.763-6.312z"/>
  <path stroke="#39424E" stroke-linecap="round" stroke-miterlimit="10" stroke-width=".744" d="M494.255 265.25c.451.113 1.24.226 2.255.113.901-.113 1.578-.451 1.916-.676M490.31 255.557c.113.113 1.352 1.578 3.381 1.465 1.804 0 2.931-1.239 3.157-1.352"/>
  <path fill="#39424E" d="M482.87 249.471c.685 0 1.24-.505 1.24-1.127 0-.623-.555-1.127-1.24-1.127-.685 0-1.24.504-1.24 1.127 0 .622.555 1.127 1.24 1.127zM503.047 248.344c.685 0 1.24-.505 1.24-1.127 0-.623-.555-1.128-1.24-1.128-.684 0-1.24.505-1.24 1.128 0 .622.556 1.127 1.24 1.127z"/>
  <path stroke="#39424E" stroke-miterlimit="10" stroke-width=".819" d="M483.434 254.655c3.735 0 6.763-2.825 6.763-6.311 0-3.486-3.028-6.312-6.763-6.312s-6.763 2.826-6.763 6.312 3.028 6.311 6.763 6.311zM503.047 253.528c3.736 0 6.764-2.826 6.764-6.311 0-3.486-3.028-6.312-6.764-6.312-3.735 0-6.763 2.826-6.763 6.312 0 3.485 3.028 6.311 6.763 6.311z"/>
  <path stroke="#39424E" stroke-miterlimit="10" stroke-width=".744" d="M490.084 247.442a6.143 6.143 0 013.382-1.014c1.465 0 2.48.563 2.931.789M509.472 245.188c1.579-.677 3.269-1.353 4.847-2.029M473.289 244.85c1.24.338 2.592.789 3.832 1.127"/>
  <path stroke="#39424E" stroke-linecap="round" stroke-miterlimit="10" stroke-width=".674" d="M502.146 243.835c.112-.112.563-.451 1.239-.338.79 0 1.24.564 1.24.676M484.11 244.511c-.113-.112-.563-.45-1.24-.338-.789 0-1.24.564-1.24.677"/>
  <path stroke="#39424E" stroke-linecap="round" stroke-miterlimit="10" stroke-width=".744" d="M487.041 260.066c-.338.563-.676 1.014-1.015 1.577M503.047 258.713c.564.451 1.128.902 1.691 1.465"/>
  <path stroke="#39424E" stroke-miterlimit="10" stroke-width=".744" d="M473.289 246.315c-1.015.225-1.916.902-2.142 1.803-.338 1.127.564 2.142.677 2.254.563.564 1.239.789 1.578.902M515.108 245.413c.226.113 1.015.451 1.466 1.353.113.112.563 1.127.113 2.254-.451.902-1.353 1.352-1.579 1.465"/>
  <path stroke="#39424E" stroke-miterlimit="10" stroke-width=".72" d="M526.493 274.267c1.466 13.863 3.044 27.84 4.396 41.816 1.579 14.878 3.044 29.643 4.509 44.408M460.777 275.394c-1.353 28.516-2.818 57.032-4.171 85.66M493.804 277.198c.226 29.304.564 58.609.789 87.914"/>
  <path fill="#39424E" d="M490.084 319.689c.685 0 1.24-.504 1.24-1.127 0-.622-.555-1.127-1.24-1.127-.684 0-1.24.505-1.24 1.127 0 .623.556 1.127 1.24 1.127zM490.084 328.932c.685 0 1.24-.505 1.24-1.127 0-.623-.555-1.128-1.24-1.128-.684 0-1.24.505-1.24 1.128 0 .622.556 1.127 1.24 1.127zM457.846 335.694c4.058.226 8.116.451 12.061.789.226 1.804.451 4.509 0 7.777-.563 4.509-1.352 9.919-5.523 12.06-.902.451-3.382 1.578-7.665.451M532.806 335.694c-4.058.226-8.116.451-12.061.789-.226 1.804-.451 4.509 0 7.777.563 4.509 1.352 9.806 5.523 12.06.789.451 3.72 1.804 8.792.338"/>
  <path stroke="#39424E" stroke-linecap="round" stroke-miterlimit="10" stroke-width=".674" d="M456.155 363.985c6.651 1.803 14.203 3.268 22.545 4.17 23.446 2.48 43.284-1.127 56.811-4.734"/>
  <path stroke="#39424E" stroke-linecap="round" stroke-miterlimit="10" stroke-width=".75" d="M127.911 201.681c0 .451 0 .902-.112 1.466 0 .112-.113.225-.113.225-.338.226-.789.564-1.127.789-.451.226-.789.451-1.24.676h-.226c-.451-.225-.902-.45-1.24-.676-.451-.225-.789-.451-1.127-.789-.113-.113-.113-.113-.113-.225 0-.451-.112-.902-.112-1.466 0-.45 0-.901.112-1.352 0-.113 0-.113.113-.225.338-.226.789-.564 1.127-.789.451-.226.789-.451 1.24-.677h.226c.451.226.901.451 1.24.677.45.225.789.45 1.127.789.113 0 .113.112.113.225.112.451.112.902.112 1.352zM649.247 229.972c0 .338 0 .789-.113 1.127 0 .113 0 .113-.113.225-.338.226-.563.451-.902.564-.338.225-.676.338-1.014.451h-.226c-.338-.113-.676-.338-1.014-.451-.338-.226-.676-.338-.902-.564-.112 0-.112-.112-.112-.225 0-.338-.113-.789-.113-1.127 0-.338 0-.789.113-1.127 0-.113 0-.113.112-.113.338-.225.564-.451.902-.564.338-.225.676-.338 1.014-.45h.226c.338.112.676.338 1.014.45.339.226.677.339.902.564l.113.113c.113.451.113.789.113 1.127z"/>
  <path stroke="#39424E" stroke-linecap="round" stroke-miterlimit="10" stroke-width=".697" d="M386.606 241.017a70.64 70.64 0 01-.338 6.989c0 .45-.225.901-.563 1.239l-.113.113c-1.578 1.353-3.269 2.592-4.96 3.719-1.803 1.128-3.494 2.255-5.298 3.156h-.112c-.339.113-.79.226-1.128 0h-.112c-1.804-.901-3.608-1.916-5.298-3.156-1.691-1.127-3.382-2.366-4.96-3.719l-.113-.113c-.338-.338-.563-.676-.563-1.239a70.637 70.637 0 01-.339-6.989c0-2.366.113-4.621.339-6.875v-.225c0-.338.225-.789.451-1.015.112-.112.112-.112.225-.112 1.578-1.353 3.269-2.593 4.96-3.72 1.803-1.24 3.607-2.254 5.41-3.156h.113a1.575 1.575 0 011.015 0s.112 0 .112.113c1.804.902 3.607 1.916 5.411 3.156 1.691 1.127 3.381 2.479 4.96 3.832l.112.113c.226.225.451.676.451 1.014v.226c.226 1.916.338 4.283.338 6.649z"/>
  <path stroke="#39424E" stroke-linecap="round" stroke-miterlimit="10" stroke-width=".75" d="M116.526 225.689c0 1.24-.112 2.592-.112 3.832M114.61 227.605c1.24 0 2.593-.113 3.833-.113M108.861 216.221a1.352 1.352 0 10.001-2.705 1.352 1.352 0 00-.001 2.705zM643.047 220.279a1.353 1.353 0 100-2.707 1.353 1.353 0 000 2.707zM324.835 235.382c0 1.24-.113 2.592-.113 3.832M322.919 237.411c1.24 0 2.592-.113 3.832-.113M437.894 285.876c0 1.24-.112 2.593-.112 3.832M435.978 287.792c1.24 0 2.593-.112 3.833-.112M337.46 207.993c-.113 2.705-.113 5.298-.226 8.003M333.515 212.051c2.705-.113 5.298-.113 8.003-.226M654.545 210.811c0 1.465-.113 3.043-.113 4.508M652.29 213.178c1.466 0 3.044-.113 4.509-.113M317.283 226.027a1.352 1.352 0 100-2.705 1.352 1.352 0 000 2.705zM429.215 297.26a1.352 1.352 0 10.001-2.705 1.352 1.352 0 00-.001 2.705z"/>
  <g>
    <path fill="#1572B6" d="M281.911 64.502l-4.913-55.127h54.005l-4.92 55.118-22.116 6.132-22.056-6.123z"/>
    <path fill="#33A9DC" d="M304 65.94l17.872-4.955 4.204-47.102H304V65.94z"/>
    <path fill="#fff" d="M304 33.855h8.947l.617-6.923H304V20.17h16.953l-.162 1.814-1.66 18.633H304v-6.762z"/>
    <path fill="#EBEBEB" d="M304.042 51.414l-.031.01-7.529-2.035-.482-5.392h-6.787l.947 10.615 13.849 3.846.033-.009v-7.035z"/>
    <path fill="#fff" d="M312.372 40.33l-.814 9.054-7.541 2.035v7.035l13.86-3.842.103-1.141 1.175-13.14h-6.783z"/>
    <path fill="#EBEBEB" d="M304.024 20.17v6.762h-16.332l-.135-1.52-.309-3.428-.162-1.814h16.938zM304 33.855v6.762h-7.435l-.136-1.52-.306-3.428-.162-1.814H304z"/>
  </g>
  <g>
    <path fill="#F7DF1E" d="M594 8h70v70h-70V8z"/>
    <path fill="#000" d="M612.406 66.497l5.356-3.242c1.034 1.833 1.974 3.383 4.229 3.383 2.162 0 3.525-.846 3.525-4.135V40.138h6.578v22.46c0 6.813-3.994 9.914-9.821 9.914-5.262 0-8.317-2.725-9.868-6.014h.001zm23.261-.705l5.356-3.1c1.41 2.302 3.243 3.993 6.484 3.993 2.726 0 4.464-1.363 4.464-3.242 0-2.255-1.785-3.054-4.793-4.37l-1.644-.705c-4.746-2.02-7.894-4.558-7.894-9.914 0-4.934 3.759-8.693 9.633-8.693 4.182 0 7.189 1.456 9.35 5.262l-5.122 3.29c-1.128-2.02-2.349-2.82-4.228-2.82-1.927 0-3.149 1.222-3.149 2.82 0 1.973 1.222 2.773 4.041 3.994l1.644.705c5.592 2.397 8.74 4.84 8.74 10.337 0 5.921-4.651 9.163-10.901 9.163-6.108 0-10.055-2.913-11.982-6.72"/>
  </g>
  <g>
    <path fill="#E44F26" d="M123.911 108.502l-4.916-55.127h54.01l-4.922 55.118-22.116 6.132-22.056-6.123z"/>
    <path fill="#F1662A" d="M146 109.939l17.872-4.954 4.204-47.102H146v52.056z"/>
    <path fill="#EBEBEB" d="M146 78.328h-8.947l-.617-6.924H146v-6.761h-16.953l.162 1.815 1.66 18.631H146v-6.761zm0 17.559l-.031.009-7.529-2.032-.481-5.393h-6.788l.947 10.614 13.851 3.846.031-.009v-7.035z"/>
    <path fill="#fff" d="M145.976 78.328v6.761h8.326l-.784 8.77-7.542 2.034v7.035l13.862-3.843.101-1.142 1.588-17.8.166-1.815h-15.717zm0-13.685v6.761h16.332l.135-1.518.309-3.428.162-1.815h-16.938z"/>
  </g>
</svg>
