<svg xmlns="http://www.w3.org/2000/svg" width="800" height="600" fill="none" viewBox="0 0 800 600">
  <g clip-path="url(#clip0_23_7)">
    <path fill="#C36F0B" d="M129.964 279.394c11.711 0 21.204-10.995 21.204-24.558 0-13.562-9.493-24.557-21.204-24.557s-21.205 10.995-21.205 24.557c0 13.563 9.494 24.558 21.205 24.558zM58.313 549.119l5.37 10.565 37.738-18.958-7.925-15.59-35.183 23.983z"/>
    <path fill="#000" d="M59.922 544.395l10.574 20.804v.001a17.05 17.05 0 011.708 5.667 17.75 17.75 0 01-.296 5.993 16.516 16.516 0 01-2.254 5.406c-1.05 1.613-2.364 2.971-3.868 3.995l-.372.254-17.312-34.062 11.82-8.058z"/>
    <path fill="#C36F0B" d="M120.524 587.177l10.585-.001 5.035-47.281-15.622.001.002 47.281z"/>
    <path fill="#000" d="M117.824 583.175l20.845-.001h.001c1.744 0 3.472.397 5.083 1.17 1.612.774 3.076 1.907 4.31 3.335a15.747 15.747 0 012.879 4.991 17.511 17.511 0 011.012 5.888v.5l-34.129.001-.001-15.884zM77.97 558.531c-.609 0-1.21-.166-1.753-.484a4.092 4.092 0 01-1.375-1.349l-10.208-16.056a4.86 4.86 0 01-.654-1.64 5.198 5.198 0 01-.045-1.806c.091-.599.286-1.17.573-1.68.287-.509.66-.946 1.096-1.284l45.425-35.136-27.409-83.463 58.613 5.601 1.974 71.724c.185 6.532-1.167 12.999-3.911 18.709-2.744 5.711-6.778 10.45-11.669 13.71l-48.716 32.549c-.59.396-1.259.604-1.94.605z"/>
    <path fill="#000" d="M120.843 577.578c-1.005-.002-1.97-.456-2.693-1.265-.722-.809-1.146-1.911-1.182-3.075l-2.148-69.872 26.598-1.622-2.117 70.374c-.032 1.114-.42 2.176-1.091 2.977-.67.801-1.574 1.284-2.535 1.355l-14.567 1.118a3.37 3.37 0 01-.265.01z"/>
    <path fill="#00B0FF" d="M149.016 435.11c-6.767 0-30.404-8.816-38.61-11.958-1.228 1.138-7.972 6.978-15.844 5.911-4.857-.661-9.133-3.845-12.709-9.465-7.897-12.412 1.857-65.642 11.43-108.111 1.92-8.584 6.637-15.972 13.163-20.611 6.525-4.639 14.349-6.168 21.827-4.265 5.421 1.386 10.4 4.494 14.378 8.977 3.979 4.482 6.8 10.161 8.145 16.397 1.803 8.497.252 18.492-.88 25.791-.532 3.431-.953 6.141-.809 7.473.556 5.148 3.642 85.88 1.658 89.327-.212.368-.823.534-1.749.534z"/>
    <path fill="#C36F0B" d="M124.259 435.253c1.088-.938 1.985-2.141 2.628-3.523a12.07 12.07 0 001.094-4.479 12.285 12.285 0 00-.646-4.595c-.502-1.458-1.274-2.772-2.263-3.847l.419-97.83-19.895 3.837 5.844 94.957c-1.45 2.042-2.202 4.629-2.115 7.271.087 2.642 1.008 5.155 2.588 7.063 1.58 1.908 3.71 3.079 5.985 3.29 2.276.211 4.539-.552 6.361-2.144z"/>
    <path fill="#00B0FF" d="M128.861 383.806h-21.43c-1.023-.003-2.004-.473-2.731-1.307-.727-.834-1.142-1.966-1.154-3.151l-.526-67.282a20.063 20.063 0 011.119-6.79c.756-2.155 1.875-4.115 3.289-5.767 1.415-1.651 3.099-2.961 4.954-3.855a13.432 13.432 0 015.853-1.349c2.009.003 3.998.467 5.851 1.366 1.853.898 3.534 2.213 4.945 3.869 1.412 1.656 2.526 3.619 3.278 5.776a20.052 20.052 0 011.104 6.793l-.667 67.25c-.015 1.183-.431 2.312-1.157 3.143-.727.832-1.706 1.3-2.728 1.304z"/>
    <path fill="#000" d="M124.564 279.292c-9.708.02-18.867-8.867-20.55-19.941a33.025 33.025 0 01.794-13.012c1.221-4.791 3.314-9.224 6.14-12.999 2.825-3.775 6.316-6.805 10.238-8.885 3.922-2.08 8.184-3.162 12.497-3.173 4.314-.012 8.58 1.048 12.51 3.108 2.597 1.361 5.155 3.316 6.345 6.316 1.189 3.001.444 7.195-2.157 8.545-1.7.882-3.834.449-5.342 1.715-2.166 1.819-1.609 5.691-.641 8.58.967 2.89 2.061 6.386.44 8.851-1.511 2.297-4.532 2.226-6.911 1.361-2.379-.864-4.727-2.312-7.208-2.018-3.617.43-6.217 4.598-6.698 8.772-.482 4.175.651 8.348 1.77 12.356l-1.227.424z"/>
    <path fill="#CCC" d="M223.608 600H.863a.807.807 0 01-.61-.293A1.085 1.085 0 010 599c0-.265.091-.519.253-.707a.81.81 0 01.61-.293h222.745c.229 0 .449.106.61.293.162.188.253.442.253.707 0 .265-.091.52-.253.707a.804.804 0 01-.61.293z"/>
    <path fill="#F2F2F2" d="M785.755 434.486H232.486c-3.777-.005-7.398-1.744-10.068-4.837-2.671-3.093-4.173-7.286-4.177-11.66V22.891c.003-3.204 1.103-6.277 3.06-8.543 1.956-2.266 4.609-3.54 7.376-3.544h560.706c2.815.004 5.514 1.3 7.504 3.606 1.99 2.305 3.11 5.43 3.113 8.69v394.889c-.004 4.374-1.506 8.567-4.177 11.66-2.671 3.093-6.291 4.832-10.068 4.837z"/>
    <path fill="#fff" d="M767.866 413.657H252.234c-7.558 0-13.708-6.669-13.708-14.866V54.734c0-6.079 4.557-11.025 10.158-11.025h522.564c5.694 0 10.326 5.028 10.326 11.207v343.875c0 8.197-6.149 14.866-13.708 14.866z"/>
    <path fill="#3F3D56" d="M799.802 24.947H218.041v-8.4c.005-4.388 1.514-8.595 4.194-11.697 2.68-3.102 6.314-4.846 10.103-4.85h553.167c3.789.004 7.422 1.748 10.103 4.85 2.68 3.102 4.188 7.309 4.194 11.697v8.4z"/>
    <path fill="#fff" d="M244.024 16.781c2.042 0 3.698-1.917 3.698-4.283 0-2.365-1.656-4.283-3.698-4.283-2.043 0-3.699 1.918-3.699 4.283 0 2.366 1.656 4.283 3.699 4.283zM258.061 16.781c2.042 0 3.698-1.917 3.698-4.283 0-2.365-1.656-4.283-3.698-4.283-2.043 0-3.698 1.918-3.698 4.283 0 2.366 1.655 4.283 3.698 4.283zM272.098 16.781c2.042 0 3.698-1.917 3.698-4.283 0-2.365-1.656-4.283-3.698-4.283-2.043 0-3.698 1.918-3.698 4.283 0 2.366 1.655 4.283 3.698 4.283z"/>
    <path fill="#CCC" d="M497.817 118.938H396.971c-1.504 0-2.946-.692-4.009-1.923-1.063-1.232-1.66-2.901-1.66-4.643 0-1.741.597-3.411 1.66-4.642 1.063-1.231 2.505-1.923 4.009-1.923h100.846c1.504 0 2.946.692 4.009 1.923 1.063 1.231 1.66 2.901 1.66 4.642 0 1.742-.597 3.411-1.66 4.643-1.063 1.231-2.505 1.923-4.009 1.923zM623.13 118.938H522.283c-1.503 0-2.945-.692-4.008-1.923-1.064-1.232-1.661-2.901-1.661-4.643 0-1.741.597-3.411 1.661-4.642 1.063-1.231 2.505-1.923 4.008-1.923H623.13c1.503 0 2.945.692 4.008 1.923 1.063 1.231 1.661 2.901 1.661 4.642 0 1.742-.598 3.411-1.661 4.643-1.063 1.231-2.505 1.923-4.008 1.923zM623.13 143.816H447.693c-1.504 0-2.946-.691-4.009-1.923-1.063-1.231-1.66-2.901-1.66-4.642 0-1.741.597-3.411 1.66-4.642 1.063-1.232 2.505-1.923 4.009-1.923H623.13c1.503 0 2.945.691 4.008 1.923 1.063 1.231 1.661 2.901 1.661 4.642 0 1.741-.598 3.411-1.661 4.642-1.063 1.232-2.505 1.923-4.008 1.923zM497.817 93.713H396.971c-1.502-.002-2.942-.694-4.004-1.925-1.062-1.231-1.658-2.9-1.658-4.64 0-1.74.596-3.408 1.658-4.64 1.062-1.23 2.502-1.923 4.004-1.925h100.846a5.005 5.005 0 012.172.497c.689.33 1.314.813 1.842 1.423.527.61.945 1.334 1.23 2.13.285.798.432 1.652.432 2.515 0 .863-.147 1.717-.432 2.514a6.712 6.712 0 01-1.23 2.131 5.698 5.698 0 01-1.842 1.423 5.005 5.005 0 01-2.172.497zM553.313 94.059H524.67c-1.504 0-2.946-.692-4.009-1.923-1.063-1.231-1.66-2.901-1.66-4.642 0-1.742.597-3.411 1.66-4.643 1.063-1.23 2.505-1.922 4.009-1.922h28.643c1.503 0 2.945.691 4.008 1.922 1.063 1.232 1.661 2.901 1.661 4.643 0 1.74-.598 3.41-1.661 4.642-1.063 1.231-2.505 1.923-4.008 1.923zM425.614 143.816h-28.643c-1.502-.002-2.942-.695-4.004-1.926-1.062-1.231-1.658-2.899-1.658-4.639 0-1.74.596-3.408 1.658-4.639 1.062-1.231 2.502-1.924 4.004-1.926h28.643a5.007 5.007 0 012.171.497c.689.33 1.315.813 1.842 1.423.527.61.945 1.334 1.23 2.131.286.797.433 1.651.433 2.514 0 .863-.147 1.717-.433 2.514a6.714 6.714 0 01-1.23 2.131 5.692 5.692 0 01-1.842 1.423 5.007 5.007 0 01-2.171.497zM497.817 351.905H396.971c-1.504 0-2.946-.692-4.009-1.923-1.063-1.232-1.66-2.901-1.66-4.643 0-1.741.597-3.411 1.66-4.642 1.063-1.231 2.505-1.923 4.009-1.923h100.846c.745 0 1.482.17 2.17.5.688.33 1.312.813 1.839 1.423.526.61.944 1.333 1.229 2.13.285.796.431 1.65.431 2.512 0 .863-.146 1.716-.431 2.513a6.737 6.737 0 01-1.229 2.13 5.705 5.705 0 01-1.839 1.423c-.688.33-1.425.5-2.17.5zM623.13 351.905H522.283c-1.503 0-2.945-.692-4.008-1.923-1.064-1.232-1.661-2.901-1.661-4.643 0-1.741.597-3.411 1.661-4.642 1.063-1.231 2.505-1.923 4.008-1.923H623.13c.744 0 1.481.17 2.169.5a5.68 5.68 0 011.839 1.423c.527.61.944 1.333 1.229 2.13a7.47 7.47 0 01.432 2.512c0 .863-.147 1.716-.432 2.513a6.718 6.718 0 01-1.229 2.13 5.695 5.695 0 01-1.839 1.423c-.688.33-1.425.5-2.169.5zM623.13 376.783H447.693c-1.504 0-2.946-.691-4.009-1.923-1.063-1.231-1.66-2.901-1.66-4.642 0-1.741.597-3.411 1.66-4.642 1.063-1.231 2.505-1.923 4.009-1.923H623.13a5.007 5.007 0 012.171.497c.689.33 1.314.813 1.842 1.423.527.61.945 1.334 1.23 2.131.286.797.432 1.651.432 2.514 0 .863-.146 1.717-.432 2.514a6.714 6.714 0 01-1.23 2.131 5.702 5.702 0 01-1.842 1.423 5.007 5.007 0 01-2.171.497zM497.817 326.68H396.971c-1.504 0-2.946-.691-4.009-1.922-1.063-1.232-1.66-2.902-1.66-4.643 0-1.741.597-3.411 1.66-4.642 1.063-1.231 2.505-1.923 4.009-1.923h100.846c1.504 0 2.946.692 4.009 1.923 1.063 1.231 1.66 2.901 1.66 4.642 0 1.741-.597 3.411-1.66 4.643-1.063 1.231-2.505 1.922-4.009 1.922zM553.313 327.026H524.67c-1.504 0-2.946-.692-4.009-1.923-1.063-1.231-1.66-2.901-1.66-4.642 0-1.741.597-3.411 1.66-4.643 1.063-1.231 2.505-1.922 4.009-1.922h28.643c1.503 0 2.945.691 4.008 1.922 1.063 1.232 1.661 2.902 1.661 4.643 0 1.741-.598 3.411-1.661 4.642-1.063 1.231-2.505 1.923-4.008 1.923zM425.614 376.783h-28.643c-1.504 0-2.946-.691-4.009-1.923-1.063-1.231-1.66-2.901-1.66-4.642 0-1.741.597-3.411 1.66-4.642 1.063-1.231 2.505-1.923 4.009-1.923h28.643a5.007 5.007 0 012.171.497c.689.33 1.315.813 1.842 1.423.527.61.945 1.334 1.23 2.131.286.797.433 1.651.433 2.514 0 .863-.147 1.717-.433 2.514a6.714 6.714 0 01-1.23 2.131 5.692 5.692 0 01-1.842 1.423 5.007 5.007 0 01-2.171.497z"/>
    <path fill="#00B0FF" d="M471.479 281.422c-2.14.006-4.195-.968-5.718-2.71l-37.909-43.353a9.339 9.339 0 01-1.738-2.983 10.417 10.417 0 01-.611-3.528c0-1.211.208-2.41.611-3.528a9.35 9.35 0 011.738-2.983l37.756-43.178c1.573-1.79 3.692-2.789 5.897-2.781 2.205.008 4.319 1.023 5.882 2.824 1.564 1.816 2.443 4.277 2.443 6.843 0 2.565-.878 5.026-2.443 6.842l-28.055 32.492c-.875 1.015-1.365 2.39-1.365 3.823 0 1.433.49 2.808 1.365 3.822l27.903 32.316c1.139 1.317 1.916 2.996 2.23 4.825a10.797 10.797 0 01-.463 5.446c-.616 1.722-1.66 3.194-2.999 4.228-1.34 1.035-2.914 1.586-4.524 1.583zM531.884 281.422c-1.61.003-3.184-.548-4.523-1.583-1.339-1.034-2.383-2.506-3-4.228a10.818 10.818 0 01-.463-5.446c.315-1.829 1.091-3.508 2.231-4.825l27.903-32.315c.874-1.015 1.365-2.39 1.365-3.823 0-1.433-.491-2.808-1.365-3.823l-28.055-32.492a9.905 9.905 0 01-1.812-3.139 11.019 11.019 0 01-.636-3.703c0-1.271.216-2.529.636-3.703a9.91 9.91 0 011.812-3.14c1.563-1.801 3.676-2.816 5.882-2.824 2.205-.008 4.324.991 5.897 2.781l37.755 43.179a9.355 9.355 0 011.739 2.982c.403 1.118.611 2.317.611 3.528 0 1.212-.208 2.411-.611 3.528a9.36 9.36 0 01-1.739 2.983l-37.908 43.353c-1.523 1.741-3.579 2.715-5.719 2.71z"/>
  </g>
  <defs>
    <clipPath id="clip0_23_7">
      <path fill="#fff" d="M0 0h800v600H0z"/>
    </clipPath>
  </defs>
</svg>
