<svg xmlns="http://www.w3.org/2000/svg" width="112" height="23" fill="none" viewBox="0 0 112 23">
  <path fill="#000" d="M.085 22L.1.4h3.18v13.2l6.36-7.8h3.99l-6.72 8.1 7.41 8.1h-4.26l-6.78-7.8V22H.085zM40.189.4h3.165L37.594 22h-3.165L40.189.4zm32.41 22.05c-1.51 0-2.815-.375-3.915-1.125-1.09-.75-1.934-1.77-2.534-3.06-.59-1.3-.886-2.76-.886-4.38 0-1.63.3-3.085.9-4.365.6-1.29 1.45-2.305 2.55-3.045 1.11-.75 2.425-1.125 3.945-1.125 1.53 0 2.816.375 3.855 1.125 1.05.74 1.84 1.755 2.37 3.045.54 1.29.81 2.745.81 4.365s-.27 3.075-.81 4.365-1.335 2.315-2.385 3.075c-1.05.75-2.35 1.125-3.9 1.125zm.435-2.835c1.03 0 1.87-.245 2.52-.735.65-.49 1.126-1.165 1.425-2.025.3-.86.45-1.85.45-2.97s-.154-2.11-.465-2.97c-.3-.86-.77-1.53-1.41-2.01-.63-.48-1.434-.72-2.415-.72-1.04 0-1.894.255-2.564.765-.67.51-1.17 1.195-1.5 2.055-.32.86-.48 1.82-.48 2.88 0 1.07.16 2.04.48 2.91.33.86.82 1.545 1.47 2.055.66.51 1.49.765 2.49.765zM77.43 22V10.345h-.36V.4h3.15V22h-2.79zm14.172.45c-1.61 0-3.025-.35-4.245-1.05a7.467 7.467 0 01-2.835-2.955c-.67-1.27-1.005-2.74-1.005-4.41 0-1.77.33-3.305.99-4.605.67-1.3 1.6-2.305 2.79-3.015s2.575-1.065 4.155-1.065c1.65 0 3.055.385 4.215 1.155 1.16.76 2.025 1.845 2.595 3.255.58 1.41.81 3.085.69 5.025h-3.135v-1.14c-.02-1.88-.38-3.27-1.08-4.17-.69-.9-1.745-1.35-3.165-1.35-1.57 0-2.75.495-3.54 1.485-.79.99-1.185 2.42-1.185 4.29 0 1.78.395 3.16 1.185 4.14.79.97 1.93 1.455 3.42 1.455.98 0 1.825-.22 2.535-.66.72-.45 1.28-1.09 1.68-1.92l3.075.975c-.63 1.45-1.585 2.575-2.865 3.375-1.28.79-2.705 1.185-4.275 1.185zm-5.775-7.665V12.34h11.565v2.445H85.826zM102.317 22V5.8h2.79v3.93l-.39-.51c.2-.52.46-.995.78-1.425.32-.44.69-.8 1.11-1.08.41-.3.865-.53 1.365-.69.51-.17 1.03-.27 1.56-.3.53-.04 1.04-.015 1.53.075v2.94c-.53-.14-1.12-.18-1.77-.12-.64.06-1.23.265-1.77.615-.51.33-.915.73-1.215 1.2-.29.47-.5.995-.63 1.575a8.145 8.145 0 00-.195 1.815V22h-3.165z"/>
  <path fill="#24A0ED" d="M25.087 19.705l-7.155-7.155 7.155-7.155 1.95 1.95-5.31 5.205 5.31 5.205-1.95 1.95zm27.626 0l-1.965-1.95 5.325-5.205-5.325-5.205 1.965-1.95 7.14 7.155-7.14 7.155z"/>
</svg>
