<svg width="150" height="150" viewBox="0 0 150 150" fill="none" xmlns="http://www.w3.org/2000/svg">
<g opacity="0.5">
<path opacity="0.5" d="M75 150C116.421 150 150 116.421 150 75C150 33.5786 116.421 0 75 0C33.5786 0 0 33.5786 0 75C0 116.421 33.5786 150 75 150Z" fill="url(#paint0_linear_190_186)"/>
</g>
<path d="M75.1461 147.939C115.694 147.939 148.564 115.069 148.564 74.5208C148.564 33.9729 115.694 1.10242 75.1461 1.10242C34.5983 1.10242 1.72778 33.9729 1.72778 74.5208C1.72778 115.069 34.5983 147.939 75.1461 147.939Z" fill="#F5F5F5"/>
<path d="M75.2149 148.229C89.5608 148.253 103.596 144.052 115.571 136.152C112.865 121.367 102.569 120.524 102.569 120.524H45.793C45.793 120.524 36.0774 121.322 33.043 134.923C45.3888 143.607 60.1207 148.255 75.2149 148.229Z" fill="#6C63FF"/>
<path d="M74.4348 108.41C94.0061 108.41 109.872 92.5448 109.872 72.9735C109.872 53.4022 94.0061 37.5365 74.4348 37.5365C54.8635 37.5365 38.9978 53.4022 38.9978 72.9735C38.9978 92.5448 54.8635 108.41 74.4348 108.41Z" fill="#333333"/>
<path opacity="0.1" d="M62.9978 102.49H85.7041V120.655C85.7041 123.666 84.5086 126.553 82.3804 128.682C80.2522 130.811 77.3656 132.008 74.3553 132.009C71.3442 132.009 68.4565 130.813 66.3274 128.683C64.1982 126.554 63.0021 123.667 63.0021 120.655V102.49H62.9978Z" fill="black"/>
<path d="M63.7178 101.648H84.9929C85.1838 101.648 85.3669 101.723 85.5019 101.858C85.6369 101.993 85.7128 102.177 85.7128 102.367V119.813C85.7131 121.305 85.4195 122.781 84.8488 124.159C84.2781 125.537 83.4415 126.789 82.3868 127.844C81.3321 128.898 80.0799 129.735 78.7018 130.305C77.3238 130.876 75.8468 131.169 74.3553 131.168C71.3443 131.168 68.4566 129.972 66.3275 127.843C64.1983 125.714 63.0022 122.826 63.0022 119.815V102.367C63.0022 102.177 63.0774 101.995 63.2115 101.86C63.3456 101.725 63.5276 101.649 63.7178 101.648Z" fill="#FDB797"/>
<path opacity="0.1" d="M63.0387 111.065C70.3567 113.799 78.4121 113.821 85.745 111.127V108.333H63.0387V111.065Z" fill="black"/>
<path d="M74.4349 112.584C92.4098 112.584 106.981 98.0123 106.981 80.0373C106.981 62.0623 92.4098 47.4907 74.4349 47.4907C56.4599 47.4907 41.8883 62.0623 41.8883 80.0373C41.8883 98.0123 56.4599 112.584 74.4349 112.584Z" fill="#FDB797"/>
<path opacity="0.1" d="M51.2515 50.4326C51.2515 50.4326 64.9685 78.2751 103.661 62.106L94.6526 47.9806L78.6834 42.2493L51.2515 50.4326Z" fill="black"/>
<path d="M51.2515 50.0243C51.2515 50.0243 64.9685 77.8667 103.661 61.6934L94.6526 47.568L78.6834 41.8367L51.2515 50.0243Z" fill="#333333"/>
<path d="M51.1311 48.1375C52.056 45.2745 53.6545 42.6752 55.7923 40.558C62.1941 34.2292 72.6898 32.8947 78.0731 25.6783C79.3625 27.6812 78.3653 30.7607 76.139 31.6203C81.2966 31.5859 87.2729 31.1346 90.1891 26.8925C90.9098 28.5703 91.1395 30.4182 90.8516 32.2213C90.5636 34.0245 89.7697 35.7089 88.5623 37.0788C93.1332 37.2937 98.0179 40.3882 98.3059 44.9549C98.5036 47.9978 96.5867 50.8775 94.096 52.6225C91.6053 54.3675 88.5709 55.169 85.5946 55.8245C76.904 57.7435 45.4599 65.7743 51.1311 48.1375Z" fill="#333333"/>
<path d="M41.8753 85.6848C43.5476 85.6848 44.9033 83.1428 44.9033 80.0071C44.9033 76.8714 43.5476 74.3295 41.8753 74.3295C40.2031 74.3295 38.8474 76.8714 38.8474 80.0071C38.8474 83.1428 40.2031 85.6848 41.8753 85.6848Z" fill="#FDB797"/>
<path d="M106.977 85.6848C108.649 85.6848 110.005 83.1428 110.005 80.0071C110.005 76.8714 108.649 74.3295 106.977 74.3295C105.305 74.3295 103.949 76.8714 103.949 80.0071C103.949 83.1428 105.305 85.6848 106.977 85.6848Z" fill="#FDB797"/>
<defs>
<linearGradient id="paint0_linear_190_186" x1="75" y1="150" x2="75" y2="0" gradientUnits="userSpaceOnUse">
<stop stop-color="#808080" stop-opacity="0.25"/>
<stop offset="0.54" stop-color="#808080" stop-opacity="0.12"/>
<stop offset="1" stop-color="#808080" stop-opacity="0.1"/>
</linearGradient>
</defs>
</svg>


