<svg width="30" height="30" viewBox="0 0 30 30" fill="none" xmlns="http://www.w3.org/2000/svg">
<path d="M28.823 24.4824C28.0705 22.7984 26.9784 21.2687 25.6076 19.9786C24.241 18.6848 22.6221 17.6533 20.8404 16.941C20.8244 16.9334 20.8085 16.9296 20.7925 16.9221C23.2779 15.2261 24.8936 12.4636 24.8936 9.34673C24.8936 4.18342 20.4654 0 15 0C9.53461 0 5.10645 4.18342 5.10645 9.34673C5.10645 12.4636 6.72213 15.2261 9.20749 16.9259C9.19153 16.9334 9.17557 16.9372 9.15961 16.9447C7.37239 17.657 5.76868 18.6784 4.39236 19.9824C3.02286 21.2735 1.93096 22.8029 1.17695 24.4862C0.436223 26.1341 0.0367296 27.9009 9.97573e-05 29.691C-0.000965016 29.7312 0.00650313 29.7712 0.0220644 29.8087C0.0376256 29.8461 0.0609649 29.8802 0.0907071 29.909C0.120449 29.9378 0.155993 29.9607 0.195243 29.9764C0.234493 29.992 0.276656 30 0.319247 30H2.71285C2.88838 30 3.02801 29.8681 3.03199 29.706C3.11178 26.7965 4.34847 24.0716 6.53463 22.0063C8.79658 19.8693 11.8006 18.6935 15 18.6935C18.1994 18.6935 21.2034 19.8693 23.4654 22.0063C25.6515 24.0716 26.8882 26.7965 26.968 29.706C26.972 29.8719 27.1116 30 27.2872 30H29.6808C29.7233 30 29.7655 29.992 29.8048 29.9764C29.844 29.9607 29.8796 29.9378 29.9093 29.909C29.939 29.8802 29.9624 29.8461 29.9779 29.8087C29.9935 29.7712 30.001 29.7312 29.9999 29.691C29.96 27.8894 29.5651 26.1369 28.823 24.4824ZM15 15.8291C13.1689 15.8291 11.4455 15.1545 10.149 13.9296C8.85243 12.7048 8.13834 11.0766 8.13834 9.34673C8.13834 7.61683 8.85243 5.98869 10.149 4.76382C11.4455 3.53894 13.1689 2.86432 15 2.86432C16.8311 2.86432 18.5545 3.53894 19.851 4.76382C21.1476 5.98869 21.8617 7.61683 21.8617 9.34673C21.8617 11.0766 21.1476 12.7048 19.851 13.9296C18.5545 15.1545 16.8311 15.8291 15 15.8291Z" fill="#9CA8AF"/>
</svg>
