<svg xmlns="http://www.w3.org/2000/svg" width="525" height="742" fill="none" viewBox="0 0 525 742">
  <g clip-path="url(#clip0_12_10)">
    <path stroke="#424D76" stroke-linecap="round" stroke-miterlimit="10" stroke-width="5" d="M221.652 660.204h103.035M185.925 457.102l181.08 264.829M360.414 457.102l-181.08 264.829"/>
    <path fill="#fff" stroke="#FFB000" stroke-miterlimit="10" stroke-width="5" d="M397.927 435.073c0 2.257-5.622 4.378-15.501 6.22-21.254 3.968-62.22 6.657-109.256 6.657-47.037 0-88.003-2.689-109.244-6.663-9.886-1.842-15.501-3.963-15.501-6.22 0-7.108 55.854-12.877 124.758-12.877 68.903 0 124.744 5.769 124.744 12.883z"/>
    <path fill="#FFD880" stroke="#FFB000" stroke-miterlimit="10" stroke-width="5" d="M397.927 435.073v12.439c0 7.108-55.861 12.877-124.757 12.877-68.897 0-124.758-5.763-124.758-12.877v-12.439c0 2.257 5.622 4.378 15.501 6.22 21.254 3.968 62.214 6.657 109.257 6.657 47.042 0 88.002-2.689 109.256-6.663 9.879-1.836 15.501-3.957 15.501-6.214z"/>
    <g>
      <path fill="#39424E" d="M253.049 630.546c5.516 2.832 17.32 3.146 19.422 10.413 2.102 7.268-9.451 36.043-7.612 46.202 1.839 10.158 1.674 31.849-17.056 34.195-20.727 2.594-36.472-3.773-36.472-10.852 0-7.078 12.074-15.11 13.886-27.134 1.813-12.024 6.591-37.968 6.591-37.968l21.241-14.856z"/>
      <path stroke="#fff" stroke-linecap="round" stroke-linejoin="round" stroke-width="4" d="M226.615 662.224s8.745-6.812 22.157 0M224.637 670.516s8.746-6.811 22.158 0M222.66 678.809s8.746-6.812 22.158 0"/>
      <path fill="#39424E" d="M323.732 666.263c-3.506 4.609-23.726 15.928-22.665 21.117s19.679 20.281 20.991 28.295c1.311 8.014-.521 20.045 7.348 23.587 7.869 3.542 49.593 3.773 56.414 0 6.822-3.773-.527-15.804-7.875-18.398-7.348-2.594-27.021-32.069-25.887-50.229l-28.326-4.372z"/>
      <path stroke="#fff" stroke-linecap="round" stroke-linejoin="round" stroke-width="4" d="M360.698 687.546s-8.746-6.812-22.157 0M363.993 695.838s-8.746-6.811-22.157 0M367.947 704.131s-8.745-6.812-22.157 0"/>
      <path fill="#39424E" d="M198.361 347.599s-120.77 43.216-120.77 80.396c0 66.299 102.989 188.359 124.066 186.529 21.076-1.83 35.265-17.106 34.454-25.121-.81-8.014-38.883-111.144-66.089-146.12 0 0 83.119-18.955 94.066-19.31 10.947-.355 67.295 26.963 68.106 28.052.81 1.09-29.13 74.965-11.758 171.242 2.432 13.481 47.834 16.395 52.296 10.934 4.462-5.461 54.701-195.657 47.833-210.957-6.867-15.299-64.586-57.177-99.469-73.869-25.137-12.024-122.735-1.776-122.735-1.776z"/>
      <path fill="#C36F0B" d="M358.799 653.541c-.751 2.084-4.316 11.899-6.742 17.094-2.319 4.958-31.219 3.276-28.339-4.377 2.459-6.516 2.498-15.401 2.452-17.9 4.732 1.688 18.15 5.923 32.629 5.183z"/>
      <path fill="#fff" d="M359.353 653.511l8.073-17.284s-26.21 2.926-43.694-7.931l.659 19.38s18.176 7.44 34.962 5.835z"/>
      <path fill="#C36F0B" d="M241.133 610.153s9.557 17.799 11.916 20.393c2.359 2.595-10.756 15.798-21.248 14.856l-16.766-20.311s17.986-3.021 26.098-14.938z"/>
      <path fill="#fff" d="M235.044 594.539l6.748 15.614s-10.472 13.06-28.075 15.53l-12.061-11.159s22.586-2.446 33.388-19.985z"/>
      <g>
        <path fill="#F6F8FE" d="M312.429 124.985c10.663 7.043 39.635 19.357 57.667 30.7 14.545 9.152 27.521 49.163 27.521 49.163s-20.252 18.564-54.272 25.843c0 0-19.442 53.902-26.731 116.854 0 0-62.379 20.732-118.674 0 0 0-22.685-115.397-25.519-116.096-2.834-.698-44.868-12.29-58.655-30.86 0 0 16.259-42.096 38.423-50.347 24.081-8.968 56.17-21.259 67.334-26.655 5.694-2.796 92.906 1.398 92.906 1.398z"/>
        <path fill="#fff" d="M163.386 146.007l-47.28 57.325a29.27 29.27 0 01-1.463-1.676l44.624-54.092 4.119-1.557zM186.505 137.169l-61.061 74.041a83.636 83.636 0 01-1.799-1.268l58.655-71.126 4.205-1.647zM210.132 127.704l-74.057 89.778c-.659-.343-1.318-.687-1.977-1.048l71.697-86.93c1.523-.628 2.946-1.226 4.337-1.8zM230.114 122.657l-82.605 100.139c-.698-.291-1.397-.593-2.102-.895l81.788-99.173c.922-.03 1.891-.059 2.919-.071zM245.905 122.687L159.57 227.392l-2.234-.776 85.761-103.965 2.808.036zM261.465 123.036l-89.354 108.295c-.454-.124-1.245-.344-2.306-.652l88.852-107.714c.93.018 1.852.042 2.808.071zM276.854 123.528L176.501 245.174a87.61 87.61 0 00-.659-2.666l98.231-119.057 2.781.077zM292.19 124.108L179.934 260.195c-.204-.918-.402-1.824-.599-2.713l110.107-133.486 2.748.112zM307.473 124.76L183.23 275.382c-.198-.912-.396-1.83-.587-2.736l122.088-148.005 2.742.119zM319.646 129.191L186.433 290.676c-.185-.918-.376-1.836-.567-2.754l131.809-159.804c.633.35 1.292.705 1.971 1.073zM330.764 134.883L189.629 306.011c-.191-.912-.376-1.83-.567-2.76L328.747 133.87c.666.343 1.338.681 2.017 1.013zM341.981 140.462L192.72 321.406c-.178-.906-.363-1.83-.554-2.766l147.805-179.179 2.01 1.001zM353.125 146.131L195.817 336.86c-.178-.883-.356-1.777-.553-2.778l155.871-188.958 1.99 1.007zM364.039 152.072l-162.33 196.812-2.194-.788L362.121 150.97l1.918 1.102zM374.162 159.02L214.547 352.479a50.165 50.165 0 01-2.366-.592l160.346-194.389c.541.485 1.075.983 1.635 1.522zM381.675 169.048l-153.406 185.99a73.984 73.984 0 01-2.538-.379l154.712-187.56c.415.634.823 1.292 1.232 1.949zM342.989 231.675a487.643 487.643 0 00-1.977 5.834L242.913 356.46c-.903-.054-1.799-.107-2.709-.178l102.785-124.607zM387.91 180.664l-40.466 49.056c-1.16.29-2.34.592-3.526.829l42.93-52.053c.356.734.712 1.457 1.062 2.168zM333.604 262.244a359.733 359.733 0 00-1.397 5.136l-73.675 89.323c-.955 0-1.911.035-2.88.041l77.952-94.5zM393.36 193.239l-23.811 28.887c-1.411.628-2.867 1.25-4.383 1.86l27.271-33.063c.317.793.626 1.587.923 2.316zM326.645 289.859c-.356 1.552-.71 3.131-1.061 4.738l-50.371 61.069c-1.022.101-2.043.201-3.085.29l54.517-66.097zM321.438 315.37c-.257 1.451-.52 2.908-.771 4.377l-27.568 33.408c-1.074.189-2.181.385-3.295.592l31.634-38.377z"/>
      </g>
      <g>
        <path fill="#C36F0B" d="M417 300.491c-1.49 24.878-53.989 47.978-81.676 58.462-.916 5.154-4.679 7.41-11.915 9.087-15.086 3.494-13.669 12.439-14.447 14.144-1.219 2.719-16.1 5.817-19.679 3.554-2.129-1.356 3.882-18.391 7.302-24.38 2.129-3.725 16.391-10.78 25.743-13.819 0 0 47.451-51.692 53.949-54.606 0 0-17.55-43.24-24.892-58.8-1.048-2.233-1.891-3.892-2.438-4.774 0 0 26.362-7.108 44.195-20.91 0 0 1.615 3.62 3.994 9.572 7.164 17.924 21.373 57.053 19.864 82.47z"/>
        <path fill="#B65A18" d="M397.13 218.016c-3.691 3.524-14.908 11.159-45.751 16.111-1.055-2.227-1.899-3.892-2.446-4.774 0 0 26.362-7.108 44.203-20.909 0 0 1.608 3.613 3.994 9.572z"/>
        <g>
          <path fill="#C36F0B" d="M227.096 385.14c-4.001 1.587-15.949-1.386-17.043-2.962-1.094-1.575-2.636-11.372-14.44-14.737-8.449-2.41-12.285-4.809-12.14-12.302-24.562-7.541-89.88-29.907-92.84-55.3-1.977-16.94 17.736-65.398 25.967-84.702 2.155-5.041 3.519-8.097 3.519-8.097 18.987 14.215 43.629 21.631 43.629 21.631l-2.036 5.017-23.772 58.51c10.821 3.69 50.232 47.191 56.375 54.02 12.805 2.227 26.52 10.23 28.121 14.542 1.681 4.519 8.779 22.739 4.66 24.38z"/>
          <path fill="#B65A18" d="M120.126 207.028c18.981 14.216 43.629 21.632 43.629 21.632l-2.037 5.011c-13.016-1.848-34.395-6.368-45.111-18.552 2.148-5.035 3.519-8.091 3.519-8.091z"/>
        </g>
      </g>
      <g>
        <path fill="#fff" stroke="#F0F4FB" stroke-miterlimit="10" stroke-width="7" d="M353.995 401.382H163.168l-32.122-113.478a9.361 9.361 0 01-.257-4.763 9.889 9.889 0 012.138-4.365c1.08-1.286 2.478-2.328 4.083-3.045a12.647 12.647 0 015.168-1.083h232.834a12.621 12.621 0 015.159 1.091c1.602.718 2.997 1.761 4.074 3.047a9.888 9.888 0 012.131 4.361 9.372 9.372 0 01-.259 4.757l-32.122 113.478z"/>
        <path fill="#F0F4FB" d="M348.209 400.316H168.948L138.77 293.697c-1.977-6.237-3.374-13.624 3.843-13.624h231.931c7.217 0 5.839 7.399 3.842 13.624l-30.177 106.619z"/>
        <path stroke="#fff" stroke-linejoin="round" stroke-width="6" d="M269.492 349.322h-21.821c-.732 0-1.443-.22-2.02-.625a2.952 2.952 0 01-1.169-1.608l-2.604-12.634a1.232 1.232 0 01-.032-.623c.043-.207.139-.402.28-.571.141-.168.324-.304.533-.398.21-.094.441-.143.676-.144h30.494c.234.001.465.05.675.144.21.094.393.23.534.398.141.169.237.364.28.571.043.207.032.42-.033.623l-2.616 12.652a2.957 2.957 0 01-1.169 1.594c-.574.4-1.28.619-2.008.621z"/>
      </g>
      <g>
        <path fill="#B65A18" d="M287.583 90.038s-1.081 21.323 24.846 34.947c0 0-25.703 16.822-46.983 38.43 0 0-22.803-25.061-45.903-39.881 0 0 22.678-16.023 22.678-33.49l45.362-.006z"/>
        <path fill="#C36F0B" d="M309.648 78.298c-2.603 3.068-7.302 8.82-9.569 12.948-4.034 19.66-17.795 32.667-35.24 32.667-15.118 0-25.333-15.235-30.039-29.397a6.052 6.052 0 01-.277-.788c-1.166-3.903-7.486-11.669-10.663-15.4a2.497 2.497 0 01-.522-1.003 2.355 2.355 0 01-.015-1.107c.083-.366.252-.711.496-1.014.244-.302.556-.554.917-.738 3.876-1.996 5.886-.545 6.94 1.35-.56-14.162.092-29.024 9.266-29.107 10.545-.089 45.613-.71 51.689 1.114 5.227 1.564 8.673 8.144 8.687 29.178.823-2.37 2.801-4.934 7.453-2.535.356.185.665.435.905.735.241.3.408.642.491 1.004.083.362.079.736-.01 1.097-.09.36-.263.7-.509.996z"/>
        <path fill="#000" d="M315.948 52.526c-6.972 7.878-15.23 26.115-15.23 26.115s2.999-28.23-9.154-27.922c-5.78.142-17.406 7.422-29.578 6.237-10.11-.983-22.737-13.315-27.937-5.254-2.88 6.178-2.676 15.875-2.241 25.85-3.104-12.765-9.523-21.259-13.049-26.33-7.408-3.453-13.221-10.845-11.547-18.361 2.847-12.718 13.755-12.007 13.755-12.007 18.394 1.712 7.658-7.925 29.953-17.03 22.296-9.103 47.656-.485 49.837 10.485 1.503 7.522 6.65 3.755 14.71 7.108 11.323 4.75 8.673 21.827.481 31.109z"/>
        <path stroke="#242424" stroke-miterlimit="10" stroke-width="3" d="M249.523 61.061c31.213 3.554 34.31-11.675 47.748-9.833"/>
      </g>
    </g>
  </g>
  <defs>
    <clipPath id="clip0_12_10">
      <path fill="#fff" d="M0 0h525v742H0z"/>
    </clipPath>
  </defs>
</svg>
