<svg xmlns="http://www.w3.org/2000/svg" width="425" height="742" fill="none" viewBox="0 0 425 742">
  <g clip-path="url(#clip0_22_141)">
    <path fill="#fff" stroke="#D8BAA3" stroke-miterlimit="10" stroke-width="6" d="M274.094 457.326H79.068c-14.69 0-26.597 9.928-26.597 22.175s11.908 22.175 26.597 22.175h195.026c14.689 0 26.597-9.928 26.597-22.175s-11.908-22.175-26.597-22.175z"/>
    <path stroke="#D8BAA3" stroke-miterlimit="10" stroke-width="6" d="M68.522 740.321a1.903 1.903 0 01-.677-.111 1.649 1.649 0 01-.56-.335 1.327 1.327 0 01-.344-.498 1.144 1.144 0 01-.064-.573l40.024-237.128h130.424L69.972 739.644a1.58 1.58 0 01-.617.499c-.255.119-.542.18-.833.178v0z"/>
    <path stroke="#D8BAA3" stroke-miterlimit="10" stroke-width="6" d="M283.056 740.321c.234.004.466-.034.68-.112.215-.078.406-.194.562-.34.155-.146.27-.318.337-.505.068-.187.085-.383.052-.577l-46.69-237.111H107.573l174.06 237.99c.15.201.36.367.609.481.249.115.529.175.814.174v0z"/>
    <g>
      <path fill="#B65A18" d="M326.309 651.084c9.049.75 23.698 2.239 41.172.857-4.484 14.429-6.545 28.225-9.808 40.482-2.108 7.892 10.741 18.576 14.635 26.305a3.43 3.43 0 00-.302-.117c-17.817-2.368-41.676 11.681-39.219-10.248 2.357-21.951-3.571-38.053-6.478-57.279z"/>
      <path fill="#000" d="M333.324 692.222c-6.129 0-17.414 9.229-16.427 24.004.55 8.717 2.28 17.353 5.156 25.746h71.496c3.356-21.117-21.543-23.395-21.543-23.395-17.824-2.367-40.783 11.681-38.326-10.242l-.356-16.113z"/>
      <path fill="#C36F0B" d="M276.631 651.644c9.05.75 28.397 1.679 45.872.297-4.485 14.428-7.123 40.482-7.123 40.482-2.108 7.892 10.741 18.576 14.635 26.305a3.43 3.43 0 00-.302-.117c-17.817-2.368-41.676 11.68-39.219-10.248 2.356-21.951-13.863-56.719-13.863-56.719z"/>
      <path fill="#000" d="M289.689 692.222c-6.13 0-16.072 9.229-15.085 24.004.55 8.717 2.279 17.353 5.156 25.746h71.495c3.357-21.117-21.542-23.395-21.542-23.395-17.824-2.367-40.783 11.681-38.326-10.242l-1.698-16.113z"/>
      <path fill="#3F4D90" d="M132.969 333.535S71.536 395.52 75.906 436.859c4.37 41.338 55.297 53.562 149.034 52.649 0 0 2.745 62.008 51.423 162.31 0 0 22.59 3.638 50.349 0 0 0 23.496 1.975 40.95-.096 0 0 37.219-202.802 32.694-223.371-5.995-27.256-124.463-51.844-155.129-57.748l-25.638-37.068s-51.477 5.451-86.62 0z"/>
      <path stroke="#fff" stroke-miterlimit="10" stroke-width="4" d="M201.826 394.58s98.255 21.492 110.251 47.836c11.997 26.345 12.608 211.641 12.608 211.641"/>
      <g>
        <path fill="#F0E1D4" d="M251.497 255.968s-3.813 44.288-32.156 77.673c0 0-46.321 6.588-86.601 0 0 0-39.91-34.992-51.349-72.916 0 0-38.004-64.263-20.811-75.166 17.193-10.903 59.969-29.663 59.969-29.663l87.01 3.559c10.741 5.44 33.64 14.334 56.525 24.324l-12.587 72.189z"/>
        <path fill="#F0E1D4" stroke="#fff" stroke-linejoin="round" stroke-width="5" d="M180.988 241.265c3.467 0 6.277-2.343 6.277-5.234 0-2.89-2.81-5.233-6.277-5.233-3.466 0-6.277 2.343-6.277 5.233 0 2.891 2.811 5.234 6.277 5.234zM180.988 262.443c3.467 0 6.277-2.343 6.277-5.233 0-2.89-2.81-5.233-6.277-5.233-3.466 0-6.277 2.343-6.277 5.233 0 2.89 2.811 5.233 6.277 5.233zM180.988 283.616c3.467 0 6.277-2.343 6.277-5.233 0-2.89-2.81-5.233-6.277-5.233-3.466 0-6.277 2.343-6.277 5.233 0 2.89 2.811 5.233 6.277 5.233z"/>
      </g>
      <g>
        <path fill="#F0E1D4" d="M264.031 183.773c22.878 9.996 90.198 138.635 62.184 152.235-58.177 28.281-74.718-80.035-74.718-80.035l12.534-72.2z"/>
        <path fill="#B65A18" d="M301.739 340.021c7.854 2.799 28.121-2.356 50.644-14.658s-3.028-20.423-3.028-20.423-29.94-10.018-48.207-2.798c-18.267 7.22-14.454 32.478.591 37.879z"/>
        <path fill="#fff" stroke="#3F4D79" stroke-linejoin="round" stroke-width="5" d="M423.322 277.264H300.349l-134.935 73.638h122.965l134.943-73.638z"/>
        <path fill="#C36F0B" d="M377.853 307.644c0-2.676-20.395-18.414-28.195-12.47-3.27 2.485-3.458 23.826-3.156 27.676.954 12.257 31.183-1.483 31.351-15.206z"/>
      </g>
      <g>
        <path fill="#F0E1D4" d="M60.526 185.559C53.538 190.182-20.657 284.355 5.6 327.72c29.619 48.95 149.946 8.305 149.946 8.305s-15.266-3.918-5.458-20.272c0 0-49.785-22.085-89.83-15.497 0 0 31.056-42.928 34.325-59.736 3.27-16.807-8.988-71.539-34.056-54.961z"/>
        <path stroke="#722D54" stroke-miterlimit="10" stroke-width="6" d="M181.552 287.097l21.925 40.829"/>
        <path fill="#C36F0B" d="M150.121 314.444s22.066-10.489 30.881-6.56c9.66 4.299 21.247 17.91 22.308 20.199 1.06 2.289.758 4.668.59 7.12-.167 2.451-20.139 2.311-23.979 2.126-3.84-.184-24.45 1.853-28.048-1.085-13.205-10.78-1.752-21.8-1.752-21.8z"/>
        <path fill="#B65A18" d="M179.914 337.329c3.867.185 21.523.37 23.772-1.376 4.464-3.454 1.906-8.614-.329-10.634-2.048-1.859-12.944-13.136-22.362-17.418 0 0 10.922 15.845-1.081 29.445"/>
      </g>
      <g>
        <path fill="#000" d="M143.616 37.93s-9.808-13.175 0-19.986C153.424 11.132 157.458.073 175.215 0c18.34-.073 25.658 11.849 34.056 10.673 11.412-1.595 19.415-4.662 33.908 1.713 11.601 5.104 12.084 24.24 23.846 23.272 9.358-.767 19.75-.275 25.06 8.395 4.028 6.565-.268 24.302 5.72 29.07 5.988 4.769 20.139 6.325 21.254 18.621 1.477 16.617-19.334 19.063-13.897 32.255 7.157 17.35-2.94 28.242-20.703 30.223-12.493 1.382-34.446-14.104-42.495-3.409-6.867 9.118-21.254 13.176-38.936 7.276-17.683-5.899-28.605-4.091-39.501-.229-10.895 3.862-24.248 9.308-33.237 2.72-8.989-6.588-19.838-6.772-31.807-2.647-16.609 5.725-34.432-3.689-32.224-16.198 1.833-10.337-15.185-11.641-17.159-23.395-2.577-15.352 24.517-19.303 16.616-25.89-7.902-6.588-7.62-25.847 15.79-28.4 22.206-2.406 17.454-13.941 23.717-21.827 5.283-6.593 21.778-14.966 38.393-4.293z"/>
        <path stroke="#000" stroke-miterlimit="10" stroke-width="3" d="M56.203 88.834c-7.385-6.974-5.028-28.433 18.522-29.77C97.066 57.799 93.159 46.04 100 38.512c5.76-6.33 25.067-13.886 43.341-.666"/>
        <path fill="#C36F0B" d="M146.784 94.548c-.167 11.753.712 44.165-26.289 61.342 0 0 48.483 20.3 59.426 65.27 0 0 7.7-47.399 27.584-61.711 0 0-23.563-11.137-18.387-64.923l-42.334.022z"/>
        <path fill="#B65A18" d="M193.555 141.125c-3.356 2.53-7.143 3.974-11.251 3.974-17.011 0-33.949-21.604-35.58-44.702.054-2.273.054-4.254.081-5.849h42.333c-2.128 21.867.524 36.693 4.417 46.577z"/>
        <path fill="#C36F0B" d="M145.254 83.914c.188-5.91 2.685-36.794 32.686-35.658 30.002 1.137 34.869 26.345 32.184 46.56-2.686 20.217-17.455 33.84-27.786 32.933-10.332-.907-37.903-18.85-37.084-43.835z"/>
      </g>
    </g>
  </g>
  <defs>
    <clipPath id="clip0_22_141">
      <path fill="#fff" d="M0 0h425v742H0z"/>
    </clipPath>
  </defs>
</svg>
