<svg xmlns="http://www.w3.org/2000/svg" width="70" height="70" fill="none" viewBox="0 0 70 70">
  <path fill="#F5DE19" d="M4.375 4.375h61.25v61.25H4.375V4.375z"/>
  <path fill="#000" d="M45.52 52.227a6.27 6.27 0 005.687 3.5c2.385 0 3.91-1.193 3.91-2.844 0-1.969-1.567-2.673-4.192-3.822l-1.44-.617c-4.156-1.77-6.912-3.985-6.912-8.67 0-4.317 3.281-7.605 8.428-7.605a8.508 8.508 0 018.186 4.61l-4.5 2.876a3.913 3.913 0 00-3.694-2.468 2.504 2.504 0 00-2.754 2.468c0 1.726 1.07 2.426 3.54 3.5l1.438.617c4.892 2.098 7.657 4.235 7.657 9.04 0 5.183-4.071 8.022-9.538 8.022a11.058 11.058 0 01-10.489-5.886l4.673-2.721zm-20.333.498c.903 1.604 1.726 2.96 3.703 2.96 1.89 0 3.085-.74 3.085-3.616V32.497h5.755v19.649c0 5.958-3.5 8.67-8.595 8.67a8.936 8.936 0 01-8.634-5.25l4.686-2.84z"/>
</svg>
