<svg xmlns="http://www.w3.org/2000/svg" width="70" height="70" fill="none" viewBox="0 0 70 70">
  <path fill="#1572B6" d="M12.91 59.502L7.999 4.375h54.005l-4.92 55.118-22.116 6.132-22.056-6.123z"/>
  <path fill="#33A9DC" d="M35 60.94l17.872-4.955 4.204-47.102H35V60.94z"/>
  <path fill="#fff" d="M35 28.855h8.947l.617-6.923H35V15.17h16.953l-.162 1.814-1.66 18.633H35v-6.762z"/>
  <path fill="#EBEBEB" d="M35.041 46.414l-.03.01-7.53-2.035-.48-5.392h-6.789l.948 10.615 13.849 3.846.032-.009v-7.035z"/>
  <path fill="#fff" d="M43.372 35.33l-.814 9.054-7.54 2.035v7.035l13.86-3.842.102-1.141 1.175-13.14h-6.783z"/>
  <path fill="#EBEBEB" d="M35.024 15.17v6.762H18.692l-.136-1.52-.308-3.428-.162-1.814h16.938zM35 28.855v6.762h-7.435l-.136-1.52-.306-3.428-.162-1.814H35z"/>
</svg>
