<svg xmlns="http://www.w3.org/2000/svg" width="70" height="70" fill="none" viewBox="0 0 70 70">
  <path fill="#E44F26" d="M12.91 59.502L7.996 4.375h54.01l-4.922 55.118-22.116 6.132-22.056-6.123z"/>
  <path fill="#F1662A" d="M35 60.94l17.872-4.955 4.204-47.102H35V60.94z"/>
  <path fill="#EBEBEB" d="M35 29.328h-8.947l-.617-6.924H35v-6.761H18.047l.162 1.815 1.66 18.631H35v-6.761zm0 17.559l-.03.009-7.53-2.032-.481-5.393H20.17l.947 10.614 13.851 3.846.031-.01v-7.034z"/>
  <path fill="#fff" d="M34.976 29.328v6.761H43.3l-.783 8.77-7.542 2.034v7.035l13.862-3.843.1-1.142 1.589-17.8.166-1.815H34.976zm0-13.685v6.761h16.332l.135-1.518.309-3.428.162-1.815H34.976z"/>
</svg>
